<svg width="176" height="43" viewBox="0 0 176 43" fill="none" xmlns="http://www.w3.org/2000/svg">
<path fill-rule="evenodd" clip-rule="evenodd" d="M159.784 0C152.578 0 148.508 1.39619 146.17 4.66803C143.729 8.08545 143.238 13.4798 143.238 21.0773C143.238 35.9918 145.537 42.2264 159.784 42.2264C161.495 42.2264 167.344 42.1937 170.758 41.7755C172.087 41.5544 172.682 40.5333 172.682 39.6197V37.9725C172.682 36.6907 171.717 35.7234 170.436 35.7234H159.783C151.745 35.7234 150.296 33.8219 150.089 23.011V19.5113C150.158 8.44834 151.607 6.50307 159.784 6.50307C167.323 6.50307 168.769 8.22945 169.019 17.969H157.04V24.5443H172.796C175.9 24.5443 175.9 22.3659 175.9 21.6507V19.5514C175.675 4.38531 172.059 0 159.784 0ZM139.036 0.57968L138.865 0.534318C137.398 0.224699 133.387 0 131.399 0C124.363 0 120.645 2.95642 120.645 8.54962V39.6909C120.645 40.9727 121.539 41.8683 122.819 41.8683H125.322C126.603 41.8683 127.497 40.9732 127.497 39.6909V9.12139C127.497 7.74102 127.845 6.50307 132.043 6.50307L138.259 6.49779C138.868 6.57058 139.449 6.4018 139.896 6.0215C140.384 5.60849 140.653 5.00561 140.653 4.32571V2.75018C140.653 1.71636 140.063 0.925167 139.036 0.57968ZM108.989 0.501616H106.486C105.205 0.501616 104.311 1.39672 104.311 2.67898V35.7239H93.9026C87.4644 35.7239 84.8523 35.313 84.8523 25.0148V2.67898C84.8523 1.39724 83.9578 0.501616 82.6775 0.501616H80.2457C78.9655 0.501616 78 1.43733 78 2.67898V25.0148C78 39.6508 83.2893 42.2264 94.403 42.2264C98.401 42.2264 103.876 42.2264 109.098 41.4885L109.219 41.4642C110.508 41.1409 111.163 40.3998 111.163 39.2616V2.67898C111.163 1.39724 110.268 0.501616 108.989 0.501616Z" fill="#272727"/>
<path fill-rule="evenodd" clip-rule="evenodd" d="M70.7581 1.5249C70.437 0.839202 69.748 0.43042 68.9155 0.43042H65.6985C64.764 0.43042 64.0655 0.808082 63.6976 1.48798L58.9297 8.47948L63.1037 14.2082L70.3913 3.71703C71.1912 2.74175 70.9142 1.85878 70.7581 1.5249Z" fill="#74BB11"/>
<path fill-rule="evenodd" clip-rule="evenodd" d="M45.6203 1.40837L45.6161 1.40204C44.8893 0.429932 43.9222 0.429932 43.6043 0.429932H40.4577C39.6515 0.429932 38.9914 0.801792 38.6466 1.44899C38.2918 2.11201 38.367 2.90847 38.8579 3.64639L50.5144 19.8637L37.1104 38.6266C36.6421 39.3323 36.5764 40.1166 36.9301 40.7791C37.277 41.4263 37.9376 41.7971 38.7422 41.7971H41.9587C42.786 41.7971 43.5133 41.3662 43.877 40.6874L58.8804 19.9386L45.6203 1.40837Z" fill="#009CD9"/>
<path fill-rule="evenodd" clip-rule="evenodd" d="M72.3562 38.7905L63.0042 25.9099L58.8906 31.6012L66.2864 41.5075L66.4788 41.5919C66.7722 41.7242 67.0899 41.7939 67.4117 41.7965H70.5572C71.3171 41.7965 71.962 41.4579 72.3273 40.8661C72.7015 40.2595 72.712 39.5036 72.3562 38.7905Z" fill="#EB2084"/>
<path fill-rule="evenodd" clip-rule="evenodd" d="M24.7379 24.2579V35.1964C21.553 35.687 16.6983 35.7956 15.0438 35.7956C7.72479 35.7956 6.92278 33.7886 6.92278 29.5262C6.92278 25.5376 8.41014 24.2574 13.042 24.2574L24.7379 24.2579ZM14.6865 0C12.4249 0 9.34091 0.0590755 5.50374 0.522186L5.33031 0.560691C4.21243 0.879805 3.64639 1.61667 3.64639 2.75071V4.32571C3.64639 5.66863 4.47941 6.50307 5.82066 6.50307H14.687C21.8258 6.50307 24.7379 8.44413 24.7379 13.2024V17.8266H13.042C3.90076 17.8266 0 21.3253 0 29.5257C0 38.6655 4.03741 42.227 14.4006 42.227C18.5983 42.227 26.3252 41.8994 29.1811 41.0254C31.5892 40.3545 31.5892 38.5084 31.5892 37.9018V12.7735C31.5892 4.17855 26.0603 0 14.687 0H14.6865Z" fill="#272727"/>
</svg>
