<svg width="821" height="616" viewBox="0 0 821 616" fill="none" xmlns="http://www.w3.org/2000/svg">
<path d="M1026.2 614.802C722.329 546.404 556.39 541.217 268.205 587.751C171.321 590.821 -28.0868 591.35 175.543 410.482C268.204 328.178 881.741 325.3 1026.2 428.9V614.802Z" fill="#415158"/>
<path d="M745.973 405.227L645.25 382.515H626.981L572.176 376.59L568.226 386.959H607.726L522.309 410.165V431.889H538.108V416.089L626.981 395.846V455.589H638.831L645.25 395.846L717.336 410.165L727.211 431.889H745.973V405.227Z" fill="#24263C"/>
<path d="M625.993 384.983L625.695 321.603L646.237 322.278V384.983H625.993Z" fill="#24263C"/>
<path d="M633.396 327.215C613.647 327.215 602.455 310.099 599.328 301.541H666.477C663.679 310.099 653.146 327.215 633.396 327.215Z" fill="#191A29"/>
<path d="M685.733 376.59L645.246 384.984L682.277 387.452L695.608 392.884L685.733 376.59Z" fill="#24263C"/>
<path d="M561.381 70.2958L544.594 245.574L713.947 251.005L698.641 70.2958C633.467 31.9815 579.978 54.3315 561.381 70.2958Z" fill="#474A70"/>
<path d="M542.128 269.767C546.078 267.002 547.065 251.827 547.065 244.586H709.477C708.559 241.026 711.523 242.353 714.443 244.586H709.477C710.318 247.849 714.421 255.22 724.811 269.767C746.536 300.181 726.951 304.822 714.443 303.341C664.74 303.835 560.693 304.526 542.128 303.341C518.922 301.86 537.191 273.223 542.128 269.767Z" fill="#474A70"/>
<path d="M541.435 45.1843C479.419 35.9478 473.808 80.371 478.754 103.737C441.804 131.452 457.848 171.88 482.882 182.691C484.532 238.266 529.752 237.055 552.156 229.502C575.581 254.243 605.9 243.109 618.131 234.45C645.511 254.572 673.522 239.536 684.106 229.502C735.237 245.336 751.318 205.738 752.967 183.96C780.488 173.071 792.347 124.078 757.915 102.088C762.534 41.3911 716.681 38.8618 693.177 45.1843C680.312 -7.59575 636.686 0.651299 616.482 11.3723C568.98 -13.6981 546.658 23.4676 541.435 45.1843Z" fill="#FF91AA"/>
<path d="M515.865 154.043C516.258 158.427 518.239 164.728 522.875 169.809M549.265 177.959C536.301 179.515 527.979 175.402 522.875 169.809M522.875 169.809C511.203 185.948 495.839 188.286 482.882 182.691M616.482 11.3723C568.98 -13.6981 546.658 23.4676 541.435 45.1843C479.419 35.9478 473.808 80.371 478.754 103.737C441.804 131.452 457.848 171.88 482.882 182.691M616.482 11.3723C612.771 16.7327 606.668 30.9996 611.946 45.1843C607.273 52.4691 600.235 70.5024 609.472 84.3571C607.822 90.6797 606.008 105.304 611.946 113.221M616.482 11.3723C636.686 0.651299 680.312 -7.59575 693.177 45.1843C716.681 38.8618 762.534 41.3911 757.915 102.088C792.347 124.078 780.488 173.071 752.967 183.96M711.733 172.186C707.747 174.798 697.301 179.608 687.405 177.959M711.733 172.186C714.894 169.575 720.722 162.29 718.743 154.043M711.733 172.186C726.739 186.331 741.268 188.589 752.967 183.96M752.967 183.96C751.318 205.738 735.236 245.336 684.106 229.502C673.522 239.536 645.511 254.572 618.131 234.45C605.9 243.109 575.581 254.243 552.156 229.502C529.752 237.055 484.532 238.266 482.882 182.691M508.035 105.387C507.211 99.3389 508.283 87.9857 519.169 90.9546C518.758 82.4328 521.069 66.2965 533.601 69.9251M699.775 69.9251C705.823 69.5128 717.671 73.1414 716.681 90.9546C721.079 89.3052 729.381 89.8825 727.402 105.387" stroke="#EB6D8A" stroke-width="4.12343"/>
<path d="M752.967 183.96C780.488 173.071 792.347 124.078 757.916 102.088C767.344 120.858 776.761 162.312 739.005 177.967C742.267 195.617 735.206 228.5 680.875 218.831C671.852 228.807 646.672 243.925 618.131 224.587C610.213 231.701 585.932 242.643 552.156 229.502C575.581 254.243 605.9 243.109 618.131 234.45C645.511 254.573 673.523 239.536 684.106 229.502C735.237 245.336 751.318 205.738 752.967 183.96Z" fill="#F8698D"/>
<path d="M550.508 78.9968C552.157 71.987 559.249 58.9569 574.424 62.9154M631.739 62.9154C637.925 61.8159 651.449 63.4927 656.068 78.9968" stroke="black" stroke-width="4.12343"/>
<path d="M624.316 141.261C617.059 143.57 588.58 143.872 575.247 143.735C571.737 142.441 571.786 148.02 575.247 154.386C579.51 162.227 588.949 171.263 603.287 170.125C629.264 168.063 633.388 138.374 624.316 141.261Z" fill="#D9D9D9"/>
<path d="M575.247 154.386C579.51 162.227 588.949 171.263 603.287 170.125C629.264 168.063 633.388 138.374 624.316 141.261C617.059 143.57 588.58 143.872 575.247 143.735C571.737 142.441 571.786 148.02 575.247 154.386ZM575.247 154.386C580.608 156.012 595.287 158.288 611.121 154.386" stroke="black" stroke-width="4.12343"/>
<ellipse cx="566.177" cy="101.263" rx="12.7826" ry="18.1431" fill="black"/>
<ellipse cx="639.574" cy="101.263" rx="12.7826" ry="18.1431" fill="black"/>
<path d="M671.736 224.966C672.726 221.338 675.172 222.08 676.272 222.905C677.921 223.442 677.784 225.328 677.51 226.203C661.841 248.057 658.542 285.581 664.315 299.6C670.088 313.62 644.522 318.981 641.223 306.61C638.584 296.714 650.294 294.79 656.479 295.065C653.181 262.902 670.499 229.502 671.736 224.966Z" fill="black"/>
<path d="M566.146 225.231C567.136 221.603 569.583 222.345 570.682 223.17C572.331 223.707 572.194 225.593 571.92 226.468C556.251 248.323 552.952 285.846 558.725 299.866C564.498 313.885 538.932 319.246 535.633 306.875C532.994 296.979 544.705 295.055 550.89 295.33C547.591 263.167 564.909 229.767 566.146 225.231Z" fill="black"/>
<path d="M743.895 142.498C739.486 141.664 738.809 139.474 738.946 138.787C738.946 134.498 743.345 135.076 745.544 135.9C842.857 175.073 798.736 231.976 757.502 254.243C755.853 262.902 733.175 270.324 733.174 254.243C733.173 240.151 749.942 243.934 755.853 247.233C849.042 187.855 759.151 145.384 743.895 142.498Z" fill="black"/>
<path d="M456.906 137.137V130.952C409.899 130.952 416.909 81.4706 419.383 78.9965C421.857 76.5224 428.455 68.2756 426.806 55.9053C425.486 46.0091 417.734 54.5308 414.023 60.0287C394.89 62.9976 404.676 73.911 411.961 78.9965C407.013 132.436 439.863 140.023 456.906 137.137Z" fill="black"/>
<path d="M0 251.637L140.601 203.291H972.783L1027.93 251.637H0Z" fill="#4E4F6C"/>
<path d="M2.46777 291.491V251.498H1028.46V615.385H999.823V291.491H2.46777Z" fill="#41435B"/>
<path d="M65.668 590.697V291.491H265.139V590.697H65.668Z" fill="#43455E"/>
<path d="M322.473 451.101V290.868H261.873L264.751 590.636L322.473 451.101Z" fill="#383A51"/>
<path d="M121.955 188.299V24.8711H362.407V188.299H121.955Z" fill="#6A6E8A"/>
<path d="M362.404 24.8711V188.299H359.142V28.8999L122.016 28.3244V24.8711H362.404Z" fill="#43455E"/>
<path d="M223.665 222.861C211.42 175.857 228.767 140.077 238.971 128.063C259.905 160.057 256.91 204.593 252.796 222.861H223.665Z" fill="#43455E"/>
<path d="M164.912 235.204L225.148 221.379H252.798L303.653 235.204H164.912Z" fill="#383A51"/>
<path d="M367.836 225.33H339.199C337.882 220.886 338.409 211.999 351.049 211.999C363.689 211.999 367.507 220.886 367.836 225.33Z" fill="#262525"/>
<path d="M351.049 211.999C363.689 211.999 367.507 220.886 367.836 225.33H339.199C337.882 220.886 338.409 211.999 351.049 211.999ZM351.049 211.999V216.443" stroke="black" stroke-width="1.1511"/>
<path d="M390.547 230.267L386.104 219.899H395.485V213.974H404.866V219.899H415.728V213.974H423.134V219.899H434.49L436.959 212.492H449.796V219.899H459.671V212.492H471.027V219.899H480.408V212.492H492.751V219.899H505.095V213.974H516.945V219.899H537.682V213.974H548.05V219.899H558.419V230.267H390.547Z" fill="#1B1A1A"/>
</svg>
