<svg width="52" height="76" viewBox="0 0 52 76" fill="none" xmlns="http://www.w3.org/2000/svg">
<path d="M16.1859 63.7488H35.8146L35.8108 67.4391C35.8108 67.4391 35.8108 67.4392 35.8108 67.4392C35.8102 67.9821 35.6501 68.5121 35.3517 68.9625L35.3513 68.963L32.8267 72.7763L32.8263 72.7768C32.5766 73.1542 32.2386 73.4628 31.8431 73.6758C31.4476 73.8888 31.0064 74 30.5589 74H21.4426C20.995 74 20.5539 73.8888 20.1584 73.6758C19.7629 73.4628 19.4249 73.1542 19.1751 72.7768L19.1748 72.7763L16.6501 68.963L16.6495 68.9621C16.3519 68.5131 16.1917 67.9825 16.1907 67.4387C16.1907 67.4385 16.1907 67.4383 16.1907 67.4381L16.1859 63.7488ZM7.94223 41.9957L7.94215 41.9956C4.24291 37.7549 2 32.2091 2 26.1246C2 13.3414 12.0323 2.04254 25.9249 2.00012L25.9249 2.00012C39.206 1.95904 50 12.7661 50 26.1246C50 32.2091 47.7571 37.7549 44.0578 41.9956L44.0578 41.9957C41.7039 44.6944 38.1422 50.0495 36.366 55.0004H15.634C13.8578 50.0495 10.2961 44.6944 7.94223 41.9957ZM16.1818 26.1246C16.1818 20.6727 20.5973 16.2498 26 16.2498C28.4195 16.2498 30.3636 14.2826 30.3636 11.8749C30.3636 9.46716 28.4195 7.49993 26 7.49993C15.7628 7.49993 7.45455 15.8617 7.45455 26.1246C7.45455 28.5323 9.39871 30.4995 11.8182 30.4995C14.2377 30.4995 16.1818 28.5323 16.1818 26.1246Z" fill="#FF91AA" stroke="#F8698D" stroke-width="4"/>
</svg>
