<svg width="425" height="425" viewBox="0 0 425 425" fill="none" xmlns="http://www.w3.org/2000/svg">
<circle cx="212.5" cy="212.5" r="211.5" fill="#F4C33D" stroke="black" stroke-width="2"/>
<circle cx="211.928" cy="213.071" r="177.797" fill="#EB8D10" stroke="black" stroke-width="2"/>
<circle cx="212.501" cy="214.785" r="162.374" fill="#F4C33D" stroke="black" stroke-width="2"/>
<path d="M90.6048 155.778V169H87.8692V167.44C87.4373 167.984 86.8694 168.416 86.1656 168.736C85.4777 169.04 84.7418 169.192 83.958 169.192C82.9181 169.192 81.9823 168.976 81.1505 168.544C80.3346 168.112 79.6867 167.472 79.2068 166.624C78.7429 165.777 78.5109 164.753 78.5109 163.553V155.778H81.2224V163.145C81.2224 164.329 81.5184 165.241 82.1103 165.881C82.7022 166.504 83.51 166.816 84.5338 166.816C85.5577 166.816 86.3655 166.504 86.9574 165.881C87.5653 165.241 87.8692 164.329 87.8692 163.145V155.778H90.6048ZM100.405 155.562C101.445 155.562 102.373 155.778 103.188 156.21C104.02 156.642 104.668 157.282 105.132 158.13C105.596 158.978 105.828 160.002 105.828 161.201V169H103.116V161.609C103.116 160.426 102.82 159.522 102.229 158.898C101.637 158.258 100.829 157.938 99.805 157.938C98.7812 157.938 97.9654 158.258 97.3575 158.898C96.7656 159.522 96.4696 160.426 96.4696 161.609V169H93.7341V155.778H96.4696V157.29C96.9176 156.746 97.4855 156.322 98.1733 156.018C98.8772 155.714 99.6211 155.562 100.405 155.562ZM111.573 151.243V169H108.837V151.243H111.573ZM126.802 162.065C126.802 162.561 126.77 163.009 126.706 163.409H116.604C116.684 164.465 117.076 165.313 117.78 165.953C118.484 166.592 119.348 166.912 120.371 166.912C121.843 166.912 122.883 166.296 123.491 165.065H126.442C126.042 166.28 125.314 167.28 124.259 168.064C123.219 168.832 121.923 169.216 120.371 169.216C119.108 169.216 117.972 168.936 116.964 168.376C115.972 167.8 115.188 167 114.612 165.977C114.053 164.937 113.773 163.737 113.773 162.377C113.773 161.017 114.045 159.826 114.588 158.802C115.148 157.762 115.924 156.962 116.916 156.402C117.924 155.842 119.076 155.562 120.371 155.562C121.619 155.562 122.731 155.834 123.707 156.378C124.683 156.922 125.442 157.69 125.986 158.682C126.53 159.658 126.802 160.785 126.802 162.065ZM123.947 161.201C123.931 160.194 123.571 159.386 122.867 158.778C122.163 158.17 121.291 157.866 120.251 157.866C119.308 157.866 118.5 158.17 117.828 158.778C117.156 159.37 116.756 160.178 116.628 161.201H123.947ZM128.102 162.329C128.102 161.001 128.374 159.826 128.918 158.802C129.478 157.778 130.23 156.986 131.174 156.426C132.134 155.85 133.19 155.562 134.341 155.562C135.381 155.562 136.285 155.77 137.053 156.186C137.837 156.586 138.461 157.09 138.925 157.698V155.778H141.684V169H138.925V167.032C138.461 167.656 137.829 168.176 137.029 168.592C136.229 169.008 135.317 169.216 134.293 169.216C133.158 169.216 132.118 168.928 131.174 168.352C130.23 167.76 129.478 166.944 128.918 165.905C128.374 164.849 128.102 163.657 128.102 162.329ZM138.925 162.377C138.925 161.465 138.733 160.674 138.349 160.002C137.981 159.33 137.493 158.818 136.885 158.466C136.277 158.114 135.621 157.938 134.917 157.938C134.213 157.938 133.558 158.114 132.95 158.466C132.342 158.802 131.846 159.306 131.462 159.978C131.094 160.634 130.91 161.417 130.91 162.329C130.91 163.241 131.094 164.041 131.462 164.729C131.846 165.417 132.342 165.945 132.95 166.312C133.574 166.664 134.229 166.84 134.917 166.84C135.621 166.84 136.277 166.664 136.885 166.312C137.493 165.961 137.981 165.449 138.349 164.777C138.733 164.089 138.925 163.289 138.925 162.377ZM149.596 169.216C148.556 169.216 147.621 169.032 146.789 168.664C145.973 168.28 145.325 167.768 144.845 167.128C144.365 166.472 144.109 165.745 144.077 164.945H146.909C146.957 165.505 147.221 165.977 147.701 166.36C148.196 166.728 148.812 166.912 149.548 166.912C150.316 166.912 150.908 166.768 151.324 166.48C151.756 166.177 151.972 165.793 151.972 165.329C151.972 164.833 151.732 164.465 151.252 164.225C150.788 163.985 150.044 163.721 149.02 163.433C148.029 163.161 147.221 162.897 146.597 162.641C145.973 162.385 145.429 161.993 144.965 161.465C144.517 160.937 144.293 160.242 144.293 159.378C144.293 158.674 144.501 158.034 144.917 157.458C145.333 156.866 145.925 156.402 146.693 156.066C147.477 155.73 148.372 155.562 149.38 155.562C150.884 155.562 152.092 155.946 153.004 156.714C153.931 157.466 154.427 158.498 154.491 159.81H151.756C151.708 159.218 151.468 158.746 151.036 158.394C150.604 158.042 150.02 157.866 149.284 157.866C148.564 157.866 148.013 158.002 147.629 158.274C147.245 158.546 147.053 158.906 147.053 159.354C147.053 159.706 147.181 160.002 147.437 160.242C147.693 160.482 148.005 160.674 148.372 160.817C148.74 160.945 149.284 161.113 150.004 161.321C150.964 161.577 151.748 161.841 152.356 162.113C152.98 162.369 153.516 162.753 153.963 163.265C154.411 163.777 154.643 164.457 154.659 165.305C154.659 166.057 154.451 166.728 154.035 167.32C153.62 167.912 153.028 168.376 152.26 168.712C151.508 169.048 150.62 169.216 149.596 169.216ZM163.974 155.562C164.982 155.562 165.878 155.778 166.661 156.21C167.461 156.642 168.085 157.282 168.533 158.13C168.997 158.978 169.229 160.002 169.229 161.201V169H166.518V161.609C166.518 160.426 166.222 159.522 165.63 158.898C165.038 158.258 164.23 157.938 163.206 157.938C162.182 157.938 161.366 158.258 160.759 158.898C160.167 159.522 159.871 160.426 159.871 161.609V169H157.135V151.243H159.871V157.314C160.335 156.754 160.919 156.322 161.622 156.018C162.342 155.714 163.126 155.562 163.974 155.562ZM189.894 155.778L181.783 175.215H178.952L181.639 168.784L176.432 155.778H179.479L183.199 165.857L187.062 155.778H189.894ZM197.213 169.216C195.965 169.216 194.837 168.936 193.83 168.376C192.822 167.8 192.03 167 191.454 165.977C190.878 164.937 190.59 163.737 190.59 162.377C190.59 161.033 190.886 159.842 191.478 158.802C192.07 157.762 192.878 156.962 193.902 156.402C194.925 155.842 196.069 155.562 197.333 155.562C198.597 155.562 199.741 155.842 200.764 156.402C201.788 156.962 202.596 157.762 203.188 158.802C203.78 159.842 204.076 161.033 204.076 162.377C204.076 163.721 203.772 164.913 203.164 165.953C202.556 166.992 201.724 167.8 200.668 168.376C199.629 168.936 198.477 169.216 197.213 169.216ZM197.213 166.84C197.917 166.84 198.573 166.672 199.181 166.336C199.805 166.001 200.308 165.497 200.692 164.825C201.076 164.153 201.268 163.337 201.268 162.377C201.268 161.417 201.084 160.61 200.716 159.954C200.348 159.282 199.861 158.778 199.253 158.442C198.645 158.106 197.989 157.938 197.285 157.938C196.581 157.938 195.925 158.106 195.317 158.442C194.725 158.778 194.254 159.282 193.902 159.954C193.55 160.61 193.374 161.417 193.374 162.377C193.374 163.801 193.734 164.905 194.454 165.689C195.189 166.456 196.109 166.84 197.213 166.84ZM218.274 155.778V169H215.538V167.44C215.107 167.984 214.539 168.416 213.835 168.736C213.147 169.04 212.411 169.192 211.627 169.192C210.587 169.192 209.651 168.976 208.82 168.544C208.004 168.112 207.356 167.472 206.876 166.624C206.412 165.777 206.18 164.753 206.18 163.553V155.778H208.892V163.145C208.892 164.329 209.188 165.241 209.779 165.881C210.371 166.504 211.179 166.816 212.203 166.816C213.227 166.816 214.035 166.504 214.627 165.881C215.234 165.241 215.538 164.329 215.538 163.145V155.778H218.274ZM224.139 157.698C224.539 157.026 225.067 156.506 225.723 156.138C226.394 155.754 227.186 155.562 228.098 155.562V158.394H227.402C226.33 158.394 225.515 158.666 224.955 159.21C224.411 159.754 224.139 160.697 224.139 162.041V169H221.403V155.778H224.139V157.698ZM234.974 162.377C234.974 161.017 235.246 159.826 235.79 158.802C236.35 157.762 237.118 156.962 238.094 156.402C239.069 155.842 240.189 155.562 241.453 155.562C243.053 155.562 244.372 155.946 245.412 156.714C246.468 157.466 247.18 158.546 247.548 159.954H244.596C244.356 159.298 243.973 158.786 243.445 158.418C242.917 158.05 242.253 157.866 241.453 157.866C240.333 157.866 239.437 158.266 238.765 159.066C238.11 159.85 237.782 160.953 237.782 162.377C237.782 163.801 238.11 164.913 238.765 165.713C239.437 166.512 240.333 166.912 241.453 166.912C243.037 166.912 244.085 166.217 244.596 164.825H247.548C247.164 166.169 246.444 167.24 245.388 168.04C244.332 168.824 243.021 169.216 241.453 169.216C240.189 169.216 239.069 168.936 238.094 168.376C237.118 167.8 236.35 167 235.79 165.977C235.246 164.937 234.974 163.737 234.974 162.377ZM252.53 157.698C252.93 157.026 253.457 156.506 254.113 156.138C254.785 155.754 255.577 155.562 256.489 155.562V158.394H255.793C254.721 158.394 253.905 158.666 253.345 159.21C252.802 159.754 252.53 160.697 252.53 162.041V169H249.794V155.778H252.53V157.698ZM270.641 162.065C270.641 162.561 270.609 163.009 270.545 163.409H260.443C260.523 164.465 260.915 165.313 261.619 165.953C262.323 166.592 263.187 166.912 264.21 166.912C265.682 166.912 266.722 166.296 267.33 165.065H270.281C269.881 166.28 269.154 167.28 268.098 168.064C267.058 168.832 265.762 169.216 264.21 169.216C262.947 169.216 261.811 168.936 260.803 168.376C259.811 167.8 259.027 167 258.451 165.977C257.892 164.937 257.612 163.737 257.612 162.377C257.612 161.017 257.884 159.826 258.427 158.802C258.987 157.762 259.763 156.962 260.755 156.402C261.763 155.842 262.915 155.562 264.21 155.562C265.458 155.562 266.57 155.834 267.546 156.378C268.522 156.922 269.282 157.69 269.825 158.682C270.369 159.658 270.641 160.785 270.641 162.065ZM267.786 161.201C267.77 160.194 267.41 159.386 266.706 158.778C266.002 158.17 265.13 157.866 264.09 157.866C263.147 157.866 262.339 158.17 261.667 158.778C260.995 159.37 260.595 160.178 260.467 161.201H267.786ZM271.942 162.329C271.942 161.001 272.214 159.826 272.757 158.802C273.317 157.778 274.069 156.986 275.013 156.426C275.973 155.85 277.029 155.562 278.18 155.562C279.22 155.562 280.124 155.77 280.892 156.186C281.676 156.586 282.3 157.09 282.764 157.698V155.778H285.523V169H282.764V167.032C282.3 167.656 281.668 168.176 280.868 168.592C280.068 169.008 279.156 169.216 278.132 169.216C276.997 169.216 275.957 168.928 275.013 168.352C274.069 167.76 273.317 166.944 272.757 165.905C272.214 164.849 271.942 163.657 271.942 162.329ZM282.764 162.377C282.764 161.465 282.572 160.674 282.188 160.002C281.82 159.33 281.332 158.818 280.724 158.466C280.116 158.114 279.46 157.938 278.756 157.938C278.052 157.938 277.397 158.114 276.789 158.466C276.181 158.802 275.685 159.306 275.301 159.978C274.933 160.634 274.749 161.417 274.749 162.329C274.749 163.241 274.933 164.041 275.301 164.729C275.685 165.417 276.181 165.945 276.789 166.312C277.413 166.664 278.068 166.84 278.756 166.84C279.46 166.84 280.116 166.664 280.724 166.312C281.332 165.961 281.82 165.449 282.188 164.777C282.572 164.089 282.764 163.289 282.764 162.377ZM291.828 158.01V165.329C291.828 165.825 291.94 166.185 292.164 166.408C292.403 166.616 292.803 166.72 293.363 166.72H295.043V169H292.883C291.652 169 290.708 168.712 290.052 168.136C289.396 167.56 289.068 166.624 289.068 165.329V158.01H287.508V155.778H289.068V152.491H291.828V155.778H295.043V158.01H291.828ZM298.476 154.027C297.98 154.027 297.564 153.859 297.228 153.523C296.892 153.187 296.724 152.771 296.724 152.275C296.724 151.779 296.892 151.363 297.228 151.027C297.564 150.691 297.98 150.523 298.476 150.523C298.956 150.523 299.364 150.691 299.7 151.027C300.036 151.363 300.204 151.779 300.204 152.275C300.204 152.771 300.036 153.187 299.7 153.523C299.364 153.859 298.956 154.027 298.476 154.027ZM299.82 155.778V169H297.084V155.778H299.82ZM308.042 166.552L311.786 155.778H314.689L309.65 169H306.387L301.372 155.778H304.299L308.042 166.552ZM317.669 154.027C317.173 154.027 316.757 153.859 316.421 153.523C316.085 153.187 315.917 152.771 315.917 152.275C315.917 151.779 316.085 151.363 316.421 151.027C316.757 150.691 317.173 150.523 317.669 150.523C318.149 150.523 318.557 150.691 318.893 151.027C319.229 151.363 319.397 151.779 319.397 152.275C319.397 152.771 319.229 153.187 318.893 153.523C318.557 153.859 318.149 154.027 317.669 154.027ZM319.013 155.778V169H316.277V155.778H319.013ZM325.316 158.01V165.329C325.316 165.825 325.428 166.185 325.652 166.408C325.892 166.616 326.291 166.72 326.851 166.72H328.531V169H326.371C325.14 169 324.196 168.712 323.54 168.136C322.884 167.56 322.556 166.624 322.556 165.329V158.01H320.996V155.778H322.556V152.491H325.316V155.778H328.531V158.01H325.316ZM342.474 155.778L334.364 175.215H331.532L334.22 168.784L329.013 155.778H332.06L335.779 165.857L339.643 155.778H342.474ZM347.058 165.713L344.155 172.335H342.379L344.083 165.713H347.058ZM104.575 189.329C104.575 188.001 104.847 186.826 105.391 185.802C105.951 184.778 106.703 183.986 107.647 183.426C108.607 182.85 109.663 182.562 110.814 182.562C111.854 182.562 112.758 182.77 113.526 183.186C114.31 183.586 114.934 184.09 115.398 184.698V182.778H118.157V196H115.398V194.032C114.934 194.656 114.302 195.176 113.502 195.592C112.702 196.008 111.79 196.216 110.766 196.216C109.631 196.216 108.591 195.928 107.647 195.352C106.703 194.76 105.951 193.944 105.391 192.905C104.847 191.849 104.575 190.657 104.575 189.329ZM115.398 189.377C115.398 188.465 115.206 187.674 114.822 187.002C114.454 186.33 113.966 185.818 113.358 185.466C112.75 185.114 112.094 184.938 111.39 184.938C110.686 184.938 110.031 185.114 109.423 185.466C108.815 185.802 108.319 186.306 107.935 186.978C107.567 187.634 107.383 188.417 107.383 189.329C107.383 190.241 107.567 191.041 107.935 191.729C108.319 192.417 108.815 192.945 109.423 193.312C110.047 193.664 110.702 193.84 111.39 193.84C112.094 193.84 112.75 193.664 113.358 193.312C113.966 192.961 114.454 192.449 114.822 191.777C115.206 191.089 115.398 190.289 115.398 189.377ZM127.941 182.562C128.981 182.562 129.909 182.778 130.724 183.21C131.556 183.642 132.204 184.282 132.668 185.13C133.132 185.978 133.364 187.002 133.364 188.201V196H130.652V188.609C130.652 187.426 130.356 186.522 129.765 185.898C129.173 185.258 128.365 184.938 127.341 184.938C126.317 184.938 125.501 185.258 124.893 185.898C124.302 186.522 124.006 187.426 124.006 188.609V196H121.27V182.778H124.006V184.29C124.454 183.746 125.021 183.322 125.709 183.018C126.413 182.714 127.157 182.562 127.941 182.562ZM135.461 189.329C135.461 188.001 135.733 186.826 136.277 185.802C136.837 184.778 137.589 183.986 138.533 183.426C139.493 182.85 140.557 182.562 141.724 182.562C142.588 182.562 143.436 182.754 144.268 183.138C145.116 183.506 145.788 184.002 146.284 184.626V178.243H149.043V196H146.284V194.008C145.836 194.648 145.212 195.176 144.412 195.592C143.628 196.008 142.724 196.216 141.7 196.216C140.549 196.216 139.493 195.928 138.533 195.352C137.589 194.76 136.837 193.944 136.277 192.905C135.733 191.849 135.461 190.657 135.461 189.329ZM146.284 189.377C146.284 188.465 146.092 187.674 145.708 187.002C145.34 186.33 144.852 185.818 144.244 185.466C143.636 185.114 142.98 184.938 142.276 184.938C141.572 184.938 140.917 185.114 140.309 185.466C139.701 185.802 139.205 186.306 138.821 186.978C138.453 187.634 138.269 188.417 138.269 189.329C138.269 190.241 138.453 191.041 138.821 191.729C139.205 192.417 139.701 192.945 140.309 193.312C140.933 193.664 141.588 193.84 142.276 193.84C142.98 193.84 143.636 193.664 144.244 193.312C144.852 192.961 145.34 192.449 145.708 191.777C146.092 191.089 146.284 190.289 146.284 189.377ZM170.027 189.065C170.027 189.561 169.995 190.009 169.931 190.409H159.829C159.909 191.465 160.301 192.313 161.005 192.953C161.709 193.592 162.573 193.912 163.596 193.912C165.068 193.912 166.108 193.296 166.716 192.065H169.667C169.267 193.28 168.54 194.28 167.484 195.064C166.444 195.832 165.148 196.216 163.596 196.216C162.333 196.216 161.197 195.936 160.189 195.376C159.197 194.8 158.413 194 157.837 192.977C157.278 191.937 156.998 190.737 156.998 189.377C156.998 188.017 157.27 186.826 157.813 185.802C158.373 184.762 159.149 183.962 160.141 183.402C161.149 182.842 162.301 182.562 163.596 182.562C164.844 182.562 165.956 182.834 166.932 183.378C167.908 183.922 168.668 184.69 169.211 185.682C169.755 186.658 170.027 187.785 170.027 189.065ZM167.172 188.201C167.156 187.194 166.796 186.386 166.092 185.778C165.388 185.17 164.516 184.866 163.476 184.866C162.533 184.866 161.725 185.17 161.053 185.778C160.381 186.37 159.981 187.178 159.853 188.201H167.172ZM188.244 182.562C189.284 182.562 190.212 182.778 191.028 183.21C191.86 183.642 192.508 184.282 192.972 185.13C193.452 185.978 193.691 187.002 193.691 188.201V196H190.98V188.609C190.98 187.426 190.684 186.522 190.092 185.898C189.5 185.258 188.692 184.938 187.669 184.938C186.645 184.938 185.829 185.258 185.221 185.898C184.629 186.522 184.333 187.426 184.333 188.609V196H181.622V188.609C181.622 187.426 181.326 186.522 180.734 185.898C180.142 185.258 179.334 184.938 178.31 184.938C177.286 184.938 176.471 185.258 175.863 185.898C175.271 186.522 174.975 187.426 174.975 188.609V196H172.239V182.778H174.975V184.29C175.423 183.746 175.991 183.322 176.679 183.018C177.366 182.714 178.102 182.562 178.886 182.562C179.942 182.562 180.886 182.786 181.718 183.234C182.549 183.682 183.189 184.33 183.637 185.178C184.037 184.378 184.661 183.746 185.509 183.282C186.357 182.802 187.269 182.562 188.244 182.562ZM199.428 184.746C199.892 184.106 200.524 183.586 201.324 183.186C202.139 182.77 203.043 182.562 204.035 182.562C205.203 182.562 206.259 182.842 207.203 183.402C208.146 183.962 208.89 184.762 209.434 185.802C209.978 186.826 210.25 188.001 210.25 189.329C210.25 190.657 209.978 191.849 209.434 192.905C208.89 193.944 208.138 194.76 207.179 195.352C206.235 195.928 205.187 196.216 204.035 196.216C203.011 196.216 202.099 196.016 201.3 195.616C200.516 195.216 199.892 194.704 199.428 194.08V196H196.692V178.243H199.428V184.746ZM207.466 189.329C207.466 188.417 207.275 187.634 206.891 186.978C206.523 186.306 206.027 185.802 205.403 185.466C204.795 185.114 204.139 184.938 203.435 184.938C202.747 184.938 202.091 185.114 201.468 185.466C200.86 185.818 200.364 186.33 199.98 187.002C199.612 187.674 199.428 188.465 199.428 189.377C199.428 190.289 199.612 191.089 199.98 191.777C200.364 192.449 200.86 192.961 201.468 193.312C202.091 193.664 202.747 193.84 203.435 193.84C204.139 193.84 204.795 193.664 205.403 193.312C206.027 192.945 206.523 192.417 206.891 191.729C207.275 191.041 207.466 190.241 207.466 189.329ZM211.563 189.329C211.563 188.001 211.835 186.826 212.379 185.802C212.939 184.778 213.691 183.986 214.635 183.426C215.595 182.85 216.65 182.562 217.802 182.562C218.842 182.562 219.746 182.77 220.514 183.186C221.298 183.586 221.922 184.09 222.385 184.698V182.778H225.145V196H222.385V194.032C221.922 194.656 221.29 195.176 220.49 195.592C219.69 196.008 218.778 196.216 217.754 196.216C216.618 196.216 215.579 195.928 214.635 195.352C213.691 194.76 212.939 193.944 212.379 192.905C211.835 191.849 211.563 190.657 211.563 189.329ZM222.385 189.377C222.385 188.465 222.193 187.674 221.81 187.002C221.442 186.33 220.954 185.818 220.346 185.466C219.738 185.114 219.082 184.938 218.378 184.938C217.674 184.938 217.018 185.114 216.411 185.466C215.803 185.802 215.307 186.306 214.923 186.978C214.555 187.634 214.371 188.417 214.371 189.329C214.371 190.241 214.555 191.041 214.923 191.729C215.307 192.417 215.803 192.945 216.411 193.312C217.034 193.664 217.69 193.84 218.378 193.84C219.082 193.84 219.738 193.664 220.346 193.312C220.954 192.961 221.442 192.449 221.81 191.777C222.193 191.089 222.385 190.289 222.385 189.377ZM230.994 184.698C231.393 184.026 231.921 183.506 232.577 183.138C233.249 182.754 234.041 182.562 234.953 182.562V185.394H234.257C233.185 185.394 232.369 185.666 231.809 186.21C231.265 186.754 230.994 187.697 230.994 189.041V196H228.258V182.778H230.994V184.698ZM242.218 189.401L248.313 196H244.618L239.723 190.313V196H236.987V178.243H239.723V188.561L244.522 182.778H248.313L242.218 189.401ZM261.282 196.216C260.035 196.216 258.907 195.936 257.899 195.376C256.891 194.8 256.099 194 255.523 192.977C254.948 191.937 254.66 190.737 254.66 189.377C254.66 188.033 254.956 186.842 255.547 185.802C256.139 184.762 256.947 183.962 257.971 183.402C258.995 182.842 260.139 182.562 261.402 182.562C262.666 182.562 263.81 182.842 264.834 183.402C265.858 183.962 266.665 184.762 267.257 185.802C267.849 186.842 268.145 188.033 268.145 189.377C268.145 190.721 267.841 191.913 267.233 192.953C266.625 193.992 265.794 194.8 264.738 195.376C263.698 195.936 262.546 196.216 261.282 196.216ZM261.282 193.84C261.986 193.84 262.642 193.672 263.25 193.336C263.874 193.001 264.378 192.497 264.762 191.825C265.146 191.153 265.338 190.337 265.338 189.377C265.338 188.417 265.154 187.61 264.786 186.954C264.418 186.282 263.93 185.778 263.322 185.442C262.714 185.106 262.058 184.938 261.354 184.938C260.651 184.938 259.995 185.106 259.387 185.442C258.795 185.778 258.323 186.282 257.971 186.954C257.619 187.61 257.443 188.417 257.443 189.377C257.443 190.801 257.803 191.905 258.523 192.689C259.259 193.456 260.179 193.84 261.282 193.84ZM277.04 182.562C278.08 182.562 279.008 182.778 279.824 183.21C280.656 183.642 281.303 184.282 281.767 185.13C282.231 185.978 282.463 187.002 282.463 188.201V196H279.752V188.609C279.752 187.426 279.456 186.522 278.864 185.898C278.272 185.258 277.464 184.938 276.44 184.938C275.417 184.938 274.601 185.258 273.993 185.898C273.401 186.522 273.105 187.426 273.105 188.609V196H270.369V182.778H273.105V184.29C273.553 183.746 274.121 183.322 274.809 183.018C275.513 182.714 276.256 182.562 277.04 182.562ZM290.314 189.329C290.314 188.001 290.586 186.826 291.13 185.802C291.69 184.778 292.442 183.986 293.386 183.426C294.345 182.85 295.401 182.562 296.553 182.562C297.593 182.562 298.497 182.77 299.265 183.186C300.048 183.586 300.672 184.09 301.136 184.698V182.778H303.896V196H301.136V194.032C300.672 194.656 300.04 195.176 299.241 195.592C298.441 196.008 297.529 196.216 296.505 196.216C295.369 196.216 294.329 195.928 293.386 195.352C292.442 194.76 291.69 193.944 291.13 192.905C290.586 191.849 290.314 190.657 290.314 189.329ZM301.136 189.377C301.136 188.465 300.944 187.674 300.56 187.002C300.192 186.33 299.705 185.818 299.097 185.466C298.489 185.114 297.833 184.938 297.129 184.938C296.425 184.938 295.769 185.114 295.161 185.466C294.553 185.802 294.058 186.306 293.674 186.978C293.306 187.634 293.122 188.417 293.122 189.329C293.122 190.241 293.306 191.041 293.674 191.729C294.058 192.417 294.553 192.945 295.161 193.312C295.785 193.664 296.441 193.84 297.129 193.84C297.833 193.84 298.489 193.664 299.097 193.312C299.705 192.961 300.192 192.449 300.56 191.777C300.944 191.089 301.136 190.289 301.136 189.377ZM313.68 182.562C314.719 182.562 315.647 182.778 316.463 183.21C317.295 183.642 317.943 184.282 318.407 185.13C318.871 185.978 319.103 187.002 319.103 188.201V196H316.391V188.609C316.391 187.426 316.095 186.522 315.503 185.898C314.911 185.258 314.104 184.938 313.08 184.938C312.056 184.938 311.24 185.258 310.632 185.898C310.04 186.522 309.744 187.426 309.744 188.609V196H307.009V182.778H309.744V184.29C310.192 183.746 310.76 183.322 311.448 183.018C312.152 182.714 312.896 182.562 313.68 182.562ZM95.7695 216.065C95.7695 216.561 95.7375 217.009 95.6736 217.409H85.5714C85.6514 218.465 86.0433 219.313 86.7472 219.953C87.451 220.592 88.3149 220.912 89.3387 220.912C90.8104 220.912 91.8502 220.296 92.4581 219.065H95.4096C95.0097 220.28 94.2818 221.28 93.226 222.064C92.1862 222.832 90.8904 223.216 89.3387 223.216C88.0749 223.216 86.9391 222.936 85.9313 222.376C84.9395 221.8 84.1556 221 83.5797 219.977C83.0198 218.937 82.7399 217.737 82.7399 216.377C82.7399 215.017 83.0118 213.826 83.5557 212.802C84.1156 211.762 84.8915 210.962 85.8833 210.402C86.8911 209.842 88.0429 209.562 89.3387 209.562C90.5865 209.562 91.6983 209.834 92.6741 210.378C93.6499 210.922 94.4098 211.69 94.9537 212.682C95.4976 213.658 95.7695 214.785 95.7695 216.065ZM92.9141 215.201C92.8981 214.194 92.5381 213.386 91.8343 212.778C91.1304 212.17 90.2585 211.866 89.2187 211.866C88.2749 211.866 87.467 212.17 86.7952 212.778C86.1233 213.37 85.7234 214.178 85.5954 215.201H92.9141ZM103.645 216.305L107.916 223H104.82L101.965 218.513L99.2774 223H96.4219L100.693 216.497L96.4219 209.778H99.5174L102.373 214.266L105.06 209.778H107.916L103.645 216.305ZM116.315 209.562C117.323 209.562 118.219 209.778 119.002 210.21C119.802 210.642 120.426 211.282 120.874 212.13C121.338 212.978 121.57 214.002 121.57 215.201V223H118.858V215.609C118.858 214.426 118.562 213.522 117.971 212.898C117.379 212.258 116.571 211.938 115.547 211.938C114.523 211.938 113.707 212.258 113.099 212.898C112.508 213.522 112.212 214.426 112.212 215.609V223H109.476V205.243H112.212V211.314C112.676 210.754 113.259 210.322 113.963 210.018C114.683 209.714 115.467 209.562 116.315 209.562ZM125.971 208.027C125.475 208.027 125.059 207.859 124.723 207.523C124.387 207.187 124.219 206.771 124.219 206.275C124.219 205.779 124.387 205.363 124.723 205.027C125.059 204.691 125.475 204.523 125.971 204.523C126.451 204.523 126.859 204.691 127.195 205.027C127.531 205.363 127.699 205.779 127.699 206.275C127.699 206.771 127.531 207.187 127.195 207.523C126.859 207.859 126.451 208.027 125.971 208.027ZM127.315 209.778V223H124.579V209.778H127.315ZM133.162 205.243V223H130.426V205.243H133.162ZM135.362 216.329C135.362 215.001 135.634 213.826 136.178 212.802C136.737 211.778 137.489 210.986 138.433 210.426C139.393 209.85 140.449 209.562 141.601 209.562C142.64 209.562 143.544 209.77 144.312 210.186C145.096 210.586 145.72 211.09 146.184 211.698V209.778H148.943V223H146.184V221.032C145.72 221.656 145.088 222.176 144.288 222.592C143.488 223.008 142.576 223.216 141.553 223.216C140.417 223.216 139.377 222.928 138.433 222.352C137.489 221.76 136.737 220.944 136.178 219.905C135.634 218.849 135.362 217.657 135.362 216.329ZM146.184 216.377C146.184 215.465 145.992 214.674 145.608 214.002C145.24 213.33 144.752 212.818 144.144 212.466C143.536 212.114 142.88 211.938 142.176 211.938C141.473 211.938 140.817 212.114 140.209 212.466C139.601 212.802 139.105 213.306 138.721 213.978C138.353 214.634 138.169 215.417 138.169 216.329C138.169 217.241 138.353 218.041 138.721 218.729C139.105 219.417 139.601 219.945 140.209 220.312C140.833 220.664 141.489 220.84 142.176 220.84C142.88 220.84 143.536 220.664 144.144 220.312C144.752 219.961 145.24 219.449 145.608 218.777C145.992 218.089 146.184 217.289 146.184 216.377ZM154.792 211.698C155.192 211.026 155.72 210.506 156.375 210.138C157.047 209.754 157.839 209.562 158.751 209.562V212.394H158.055C156.983 212.394 156.168 212.666 155.608 213.21C155.064 213.754 154.792 214.697 154.792 216.041V223H152.056V209.778H154.792V211.698ZM159.874 216.329C159.874 215.001 160.146 213.826 160.69 212.802C161.25 211.778 162.001 210.986 162.945 210.426C163.905 209.85 164.961 209.562 166.113 209.562C167.152 209.562 168.056 209.77 168.824 210.186C169.608 210.586 170.232 211.09 170.696 211.698V209.778H173.455V223H170.696V221.032C170.232 221.656 169.6 222.176 168.8 222.592C168 223.008 167.088 223.216 166.065 223.216C164.929 223.216 163.889 222.928 162.945 222.352C162.001 221.76 161.25 220.944 160.69 219.905C160.146 218.849 159.874 217.657 159.874 216.329ZM170.696 216.377C170.696 215.465 170.504 214.674 170.12 214.002C169.752 213.33 169.264 212.818 168.656 212.466C168.048 212.114 167.392 211.938 166.689 211.938C165.985 211.938 165.329 212.114 164.721 212.466C164.113 212.802 163.617 213.306 163.233 213.978C162.865 214.634 162.681 215.417 162.681 216.329C162.681 217.241 162.865 218.041 163.233 218.729C163.617 219.417 164.113 219.945 164.721 220.312C165.345 220.664 166.001 220.84 166.689 220.84C167.392 220.84 168.048 220.664 168.656 220.312C169.264 219.961 169.752 219.449 170.12 218.777C170.504 218.089 170.696 217.289 170.696 216.377ZM179.76 212.01V219.329C179.76 219.825 179.872 220.185 180.096 220.408C180.336 220.616 180.736 220.72 181.296 220.72H182.975V223H180.816C179.584 223 178.64 222.712 177.984 222.136C177.328 221.56 177 220.624 177 219.329V212.01H175.441V209.778H177V206.491H179.76V209.778H182.975V212.01H179.76ZM186.408 208.027C185.912 208.027 185.496 207.859 185.161 207.523C184.825 207.187 184.657 206.771 184.657 206.275C184.657 205.779 184.825 205.363 185.161 205.027C185.496 204.691 185.912 204.523 186.408 204.523C186.888 204.523 187.296 204.691 187.632 205.027C187.968 205.363 188.136 205.779 188.136 206.275C188.136 206.771 187.968 207.187 187.632 207.523C187.296 207.859 186.888 208.027 186.408 208.027ZM187.752 209.778V223H185.017V209.778H187.752ZM197.534 209.562C198.574 209.562 199.502 209.778 200.318 210.21C201.15 210.642 201.798 211.282 202.262 212.13C202.726 212.978 202.957 214.002 202.957 215.201V223H200.246V215.609C200.246 214.426 199.95 213.522 199.358 212.898C198.766 212.258 197.958 211.938 196.935 211.938C195.911 211.938 195.095 212.258 194.487 212.898C193.895 213.522 193.599 214.426 193.599 215.609V223H190.864V209.778H193.599V211.29C194.047 210.746 194.615 210.322 195.303 210.018C196.007 209.714 196.751 209.562 197.534 209.562ZM211.294 209.562C212.318 209.562 213.222 209.77 214.005 210.186C214.805 210.586 215.429 211.09 215.877 211.698V209.778H218.637V223.216C218.637 224.432 218.381 225.512 217.869 226.455C217.357 227.415 216.613 228.167 215.637 228.711C214.677 229.255 213.525 229.527 212.182 229.527C210.39 229.527 208.902 229.103 207.719 228.255C206.535 227.423 205.863 226.287 205.703 224.848H208.414C208.622 225.536 209.062 226.087 209.734 226.503C210.422 226.935 211.238 227.151 212.182 227.151C213.286 227.151 214.173 226.815 214.845 226.143C215.533 225.472 215.877 224.496 215.877 223.216V221.008C215.413 221.632 214.781 222.16 213.981 222.592C213.198 223.008 212.302 223.216 211.294 223.216C210.142 223.216 209.086 222.928 208.126 222.352C207.183 221.76 206.431 220.944 205.871 219.905C205.327 218.849 205.055 217.657 205.055 216.329C205.055 215.001 205.327 213.826 205.871 212.802C206.431 211.778 207.183 210.986 208.126 210.426C209.086 209.85 210.142 209.562 211.294 209.562ZM215.877 216.377C215.877 215.465 215.685 214.674 215.301 214.002C214.933 213.33 214.445 212.818 213.837 212.466C213.23 212.114 212.574 211.938 211.87 211.938C211.166 211.938 210.51 212.114 209.902 212.466C209.294 212.802 208.798 213.306 208.414 213.978C208.046 214.634 207.863 215.417 207.863 216.329C207.863 217.241 208.046 218.041 208.414 218.729C208.798 219.417 209.294 219.945 209.902 220.312C210.526 220.664 211.182 220.84 211.87 220.84C212.574 220.84 213.23 220.664 213.837 220.312C214.445 219.961 214.933 219.449 215.301 218.777C215.685 218.089 215.877 217.289 215.877 216.377ZM228.895 208.027C228.399 208.027 227.983 207.859 227.647 207.523C227.311 207.187 227.143 206.771 227.143 206.275C227.143 205.779 227.311 205.363 227.647 205.027C227.983 204.691 228.399 204.523 228.895 204.523C229.375 204.523 229.783 204.691 230.119 205.027C230.454 205.363 230.622 205.779 230.622 206.275C230.622 206.771 230.454 207.187 230.119 207.523C229.783 207.859 229.375 208.027 228.895 208.027ZM230.238 225.592C230.238 226.887 229.911 227.823 229.255 228.399C228.615 228.991 227.679 229.287 226.447 229.287H225.031V226.983H225.967C226.527 226.983 226.919 226.871 227.143 226.647C227.383 226.439 227.503 226.087 227.503 225.592V209.778H230.238V225.592ZM239.085 223.216C237.837 223.216 236.709 222.936 235.702 222.376C234.694 221.8 233.902 221 233.326 219.977C232.75 218.937 232.462 217.737 232.462 216.377C232.462 215.033 232.758 213.842 233.35 212.802C233.942 211.762 234.75 210.962 235.774 210.402C236.797 209.842 237.941 209.562 239.205 209.562C240.469 209.562 241.613 209.842 242.636 210.402C243.66 210.962 244.468 211.762 245.06 212.802C245.652 213.842 245.948 215.033 245.948 216.377C245.948 217.721 245.644 218.913 245.036 219.953C244.428 220.992 243.596 221.8 242.54 222.376C241.501 222.936 240.349 223.216 239.085 223.216ZM239.085 220.84C239.789 220.84 240.445 220.672 241.053 220.336C241.677 220.001 242.18 219.497 242.564 218.825C242.948 218.153 243.14 217.337 243.14 216.377C243.14 215.417 242.956 214.61 242.588 213.954C242.22 213.282 241.733 212.778 241.125 212.442C240.517 212.106 239.861 211.938 239.157 211.938C238.453 211.938 237.797 212.106 237.189 212.442C236.597 212.778 236.126 213.282 235.774 213.954C235.422 214.61 235.246 215.417 235.246 216.377C235.246 217.801 235.606 218.905 236.326 219.689C237.061 220.456 237.981 220.84 239.085 220.84ZM260.146 209.778V223H257.41V221.44C256.978 221.984 256.411 222.416 255.707 222.736C255.019 223.04 254.283 223.192 253.499 223.192C252.459 223.192 251.523 222.976 250.692 222.544C249.876 222.112 249.228 221.472 248.748 220.624C248.284 219.777 248.052 218.753 248.052 217.553V209.778H250.764V217.145C250.764 218.329 251.06 219.241 251.651 219.881C252.243 220.504 253.051 220.816 254.075 220.816C255.099 220.816 255.907 220.504 256.499 219.881C257.106 219.241 257.41 218.329 257.41 217.145V209.778H260.146ZM266.011 211.698C266.411 211.026 266.939 210.506 267.594 210.138C268.266 209.754 269.058 209.562 269.97 209.562V212.394H269.274C268.202 212.394 267.387 212.666 266.827 213.21C266.283 213.754 266.011 214.697 266.011 216.041V223H263.275V209.778H266.011V211.698ZM278.675 209.562C279.715 209.562 280.643 209.778 281.459 210.21C282.291 210.642 282.939 211.282 283.403 212.13C283.867 212.978 284.098 214.002 284.098 215.201V223H281.387V215.609C281.387 214.426 281.091 213.522 280.499 212.898C279.907 212.258 279.099 211.938 278.076 211.938C277.052 211.938 276.236 212.258 275.628 212.898C275.036 213.522 274.74 214.426 274.74 215.609V223H272.005V209.778H274.74V211.29C275.188 210.746 275.756 210.322 276.444 210.018C277.148 209.714 277.892 209.562 278.675 209.562ZM299.226 216.065C299.226 216.561 299.194 217.009 299.13 217.409H289.028C289.107 218.465 289.499 219.313 290.203 219.953C290.907 220.592 291.771 220.912 292.795 220.912C294.267 220.912 295.306 220.296 295.914 219.065H298.866C298.466 220.28 297.738 221.28 296.682 222.064C295.642 222.832 294.347 223.216 292.795 223.216C291.531 223.216 290.395 222.936 289.387 222.376C288.396 221.8 287.612 221 287.036 219.977C286.476 218.937 286.196 217.737 286.196 216.377C286.196 215.017 286.468 213.826 287.012 212.802C287.572 211.762 288.348 210.962 289.339 210.402C290.347 209.842 291.499 209.562 292.795 209.562C294.043 209.562 295.154 209.834 296.13 210.378C297.106 210.922 297.866 211.69 298.41 212.682C298.954 213.658 299.226 214.785 299.226 216.065ZM296.37 215.201C296.354 214.194 295.994 213.386 295.29 212.778C294.587 212.17 293.715 211.866 292.675 211.866C291.731 211.866 290.923 212.17 290.251 212.778C289.579 213.37 289.179 214.178 289.052 215.201H296.37ZM313.34 209.778L305.229 229.215H302.398L305.085 222.784L299.878 209.778H302.925L306.645 219.857L310.508 209.778H313.34ZM323.869 212.01V219.329C323.869 219.825 323.981 220.185 324.205 220.408C324.445 220.616 324.845 220.72 325.405 220.72H327.084V223H324.925C323.693 223 322.749 222.712 322.093 222.136C321.437 221.56 321.109 220.624 321.109 219.329V212.01H319.55V209.778H321.109V206.491H323.869V209.778H327.084V212.01H323.869ZM334.861 223.216C333.613 223.216 332.485 222.936 331.477 222.376C330.469 221.8 329.678 221 329.102 219.977C328.526 218.937 328.238 217.737 328.238 216.377C328.238 215.033 328.534 213.842 329.126 212.802C329.717 211.762 330.525 210.962 331.549 210.402C332.573 209.842 333.717 209.562 334.981 209.562C336.244 209.562 337.388 209.842 338.412 210.402C339.436 210.962 340.244 211.762 340.835 212.802C341.427 213.842 341.723 215.033 341.723 216.377C341.723 217.721 341.419 218.913 340.811 219.953C340.204 220.992 339.372 221.8 338.316 222.376C337.276 222.936 336.124 223.216 334.861 223.216ZM334.861 220.84C335.564 220.84 336.22 220.672 336.828 220.336C337.452 220.001 337.956 219.497 338.34 218.825C338.724 218.153 338.916 217.337 338.916 216.377C338.916 215.417 338.732 214.61 338.364 213.954C337.996 213.282 337.508 212.778 336.9 212.442C336.292 212.106 335.636 211.938 334.933 211.938C334.229 211.938 333.573 212.106 332.965 212.442C332.373 212.778 331.901 213.282 331.549 213.954C331.197 214.61 331.021 215.417 331.021 216.377C331.021 217.801 331.381 218.905 332.101 219.689C332.837 220.456 333.757 220.84 334.861 220.84ZM82.5103 238.842C82.9903 238.106 83.5902 237.53 84.31 237.114C85.0299 236.682 85.8298 236.466 86.7096 236.466V240.81H85.5818C84.558 240.81 83.7901 241.034 83.2782 241.482C82.7663 241.913 82.5103 242.681 82.5103 243.785V250H78.4071V236.61H82.5103V238.842ZM100.813 243.089C100.813 243.473 100.789 243.873 100.741 244.289H91.4544C91.5184 245.121 91.7823 245.761 92.2462 246.209C92.7261 246.641 93.31 246.857 93.9979 246.857C95.0217 246.857 95.7336 246.425 96.1335 245.561H100.501C100.277 246.441 99.8688 247.232 99.277 247.936C98.7011 248.64 97.9732 249.192 97.0933 249.592C96.2135 249.992 95.2297 250.192 94.1419 250.192C92.8301 250.192 91.6623 249.912 90.6385 249.352C89.6147 248.792 88.8148 247.992 88.2389 246.953C87.663 245.913 87.3751 244.697 87.3751 243.305C87.3751 241.913 87.655 240.698 88.2149 239.658C88.7908 238.618 89.5907 237.818 90.6145 237.258C91.6383 236.698 92.8141 236.418 94.1419 236.418C95.4376 236.418 96.5894 236.69 97.5973 237.234C98.6051 237.778 99.3889 238.554 99.9488 239.562C100.525 240.57 100.813 241.745 100.813 243.089ZM96.6134 242.009C96.6134 241.306 96.3735 240.746 95.8936 240.33C95.4136 239.914 94.8138 239.706 94.0939 239.706C93.406 239.706 92.8221 239.906 92.3422 240.306C91.8783 240.706 91.5903 241.274 91.4784 242.009H96.6134ZM108.52 246.161L111.424 236.61H115.791L111.04 250H105.977L101.226 236.61H105.617L108.52 246.161ZM123.133 250.192C121.821 250.192 120.638 249.912 119.582 249.352C118.542 248.792 117.718 247.992 117.11 246.953C116.518 245.913 116.222 244.697 116.222 243.305C116.222 241.929 116.526 240.722 117.134 239.682C117.742 238.626 118.574 237.818 119.63 237.258C120.686 236.698 121.869 236.418 123.181 236.418C124.493 236.418 125.677 236.698 126.733 237.258C127.788 237.818 128.62 238.626 129.228 239.682C129.836 240.722 130.14 241.929 130.14 243.305C130.14 244.681 129.828 245.897 129.204 246.953C128.596 247.992 127.756 248.792 126.685 249.352C125.629 249.912 124.445 250.192 123.133 250.192ZM123.133 246.641C123.917 246.641 124.581 246.353 125.125 245.777C125.685 245.201 125.965 244.377 125.965 243.305C125.965 242.233 125.693 241.41 125.149 240.834C124.621 240.258 123.965 239.97 123.181 239.97C122.381 239.97 121.717 240.258 121.19 240.834C120.662 241.394 120.398 242.217 120.398 243.305C120.398 244.377 120.654 245.201 121.166 245.777C121.693 246.353 122.349 246.641 123.133 246.641ZM135.94 232.243V250H131.837V232.243H135.94ZM151.655 236.61V250H147.552V248.176C147.136 248.768 146.568 249.248 145.848 249.616C145.145 249.968 144.361 250.144 143.497 250.144C142.473 250.144 141.569 249.92 140.785 249.472C140.001 249.008 139.394 248.344 138.962 247.48C138.53 246.617 138.314 245.601 138.314 244.433V236.61H142.393V243.881C142.393 244.777 142.625 245.473 143.089 245.969C143.553 246.465 144.177 246.713 144.961 246.713C145.76 246.713 146.392 246.465 146.856 245.969C147.32 245.473 147.552 244.777 147.552 243.881V236.61H151.655ZM161.585 246.521V250H159.498C158.01 250 156.85 249.64 156.018 248.92C155.187 248.184 154.771 246.993 154.771 245.345V240.018H153.139V236.61H154.771V233.347H158.874V236.61H161.561V240.018H158.874V245.393C158.874 245.793 158.97 246.081 159.162 246.257C159.354 246.433 159.674 246.521 160.122 246.521H161.585ZM165.455 235.219C164.735 235.219 164.143 235.011 163.679 234.595C163.231 234.163 163.007 233.635 163.007 233.011C163.007 232.371 163.231 231.843 163.679 231.427C164.143 230.995 164.735 230.779 165.455 230.779C166.159 230.779 166.735 230.995 167.182 231.427C167.646 231.843 167.878 232.371 167.878 233.011C167.878 233.635 167.646 234.163 167.182 234.595C166.735 235.011 166.159 235.219 165.455 235.219ZM167.494 236.61V250H163.391V236.61H167.494ZM176.083 250.192C174.771 250.192 173.587 249.912 172.532 249.352C171.492 248.792 170.668 247.992 170.06 246.953C169.468 245.913 169.172 244.697 169.172 243.305C169.172 241.929 169.476 240.722 170.084 239.682C170.692 238.626 171.524 237.818 172.58 237.258C173.635 236.698 174.819 236.418 176.131 236.418C177.443 236.418 178.627 236.698 179.682 237.258C180.738 237.818 181.57 238.626 182.178 239.682C182.786 240.722 183.09 241.929 183.09 243.305C183.09 244.681 182.778 245.897 182.154 246.953C181.546 247.992 180.706 248.792 179.634 249.352C178.579 249.912 177.395 250.192 176.083 250.192ZM176.083 246.641C176.867 246.641 177.531 246.353 178.075 245.777C178.635 245.201 178.914 244.377 178.914 243.305C178.914 242.233 178.643 241.41 178.099 240.834C177.571 240.258 176.915 239.97 176.131 239.97C175.331 239.97 174.667 240.258 174.139 240.834C173.611 241.394 173.347 242.217 173.347 243.305C173.347 244.377 173.603 245.201 174.115 245.777C174.643 246.353 175.299 246.641 176.083 246.641ZM192.945 236.466C194.513 236.466 195.761 236.978 196.689 238.002C197.632 239.01 198.104 240.402 198.104 242.177V250H194.025V242.729C194.025 241.833 193.793 241.138 193.329 240.642C192.865 240.146 192.241 239.898 191.457 239.898C190.674 239.898 190.05 240.146 189.586 240.642C189.122 241.138 188.89 241.833 188.89 242.729V250H184.787V236.61H188.89V238.386C189.306 237.794 189.866 237.33 190.57 236.994C191.273 236.642 192.065 236.466 192.945 236.466ZM202.539 235.219C201.819 235.219 201.228 235.011 200.764 234.595C200.316 234.163 200.092 233.635 200.092 233.011C200.092 232.371 200.316 231.843 200.764 231.427C201.228 230.995 201.819 230.779 202.539 230.779C203.243 230.779 203.819 230.995 204.267 231.427C204.731 231.843 204.963 232.371 204.963 233.011C204.963 233.635 204.731 234.163 204.267 234.595C203.819 235.011 203.243 235.219 202.539 235.219ZM204.579 236.61V250H200.476V236.61H204.579ZM210.912 246.617H216.719V250H206.329V246.737L211.896 239.994H206.377V236.61H216.599V239.874L210.912 246.617ZM231.119 243.089C231.119 243.473 231.095 243.873 231.047 244.289H221.76C221.824 245.121 222.088 245.761 222.552 246.209C223.032 246.641 223.616 246.857 224.304 246.857C225.328 246.857 226.039 246.425 226.439 245.561H230.807C230.583 246.441 230.175 247.232 229.583 247.936C229.007 248.64 228.279 249.192 227.399 249.592C226.519 249.992 225.536 250.192 224.448 250.192C223.136 250.192 221.968 249.912 220.944 249.352C219.921 248.792 219.121 247.992 218.545 246.953C217.969 245.913 217.681 244.697 217.681 243.305C217.681 241.913 217.961 240.698 218.521 239.658C219.097 238.618 219.897 237.818 220.92 237.258C221.944 236.698 223.12 236.418 224.448 236.418C225.744 236.418 226.895 236.69 227.903 237.234C228.911 237.778 229.695 238.554 230.255 239.562C230.831 240.57 231.119 241.745 231.119 243.089ZM226.919 242.009C226.919 241.306 226.679 240.746 226.199 240.33C225.72 239.914 225.12 239.706 224.4 239.706C223.712 239.706 223.128 239.906 222.648 240.306C222.184 240.706 221.896 241.274 221.784 242.009H226.919ZM244.871 246.521V250H242.783C241.296 250 240.136 249.64 239.304 248.92C238.472 248.184 238.056 246.993 238.056 245.345V240.018H236.425V236.61H238.056V233.347H242.16V236.61H244.847V240.018H242.16V245.393C242.16 245.793 242.256 246.081 242.448 246.257C242.639 246.433 242.959 246.521 243.407 246.521H244.871ZM254.907 236.466C256.443 236.466 257.675 236.978 258.603 238.002C259.53 239.01 259.994 240.402 259.994 242.177V250H255.915V242.729C255.915 241.833 255.683 241.138 255.219 240.642C254.755 240.146 254.131 239.898 253.348 239.898C252.564 239.898 251.94 240.146 251.476 240.642C251.012 241.138 250.78 241.833 250.78 242.729V250H246.677V232.243H250.78V238.41C251.196 237.818 251.764 237.346 252.484 236.994C253.204 236.642 254.011 236.466 254.907 236.466ZM274.988 243.089C274.988 243.473 274.964 243.873 274.916 244.289H265.629C265.693 245.121 265.957 245.761 266.421 246.209C266.901 246.641 267.485 246.857 268.173 246.857C269.197 246.857 269.908 246.425 270.308 245.561H274.676C274.452 246.441 274.044 247.232 273.452 247.936C272.876 248.64 272.148 249.192 271.268 249.592C270.388 249.992 269.405 250.192 268.317 250.192C267.005 250.192 265.837 249.912 264.813 249.352C263.79 248.792 262.99 247.992 262.414 246.953C261.838 245.913 261.55 244.697 261.55 243.305C261.55 241.913 261.83 240.698 262.39 239.658C262.966 238.618 263.766 237.818 264.789 237.258C265.813 236.698 266.989 236.418 268.317 236.418C269.612 236.418 270.764 236.69 271.772 237.234C272.78 237.778 273.564 238.554 274.124 239.562C274.7 240.57 274.988 241.745 274.988 243.089ZM270.788 242.009C270.788 241.306 270.548 240.746 270.068 240.33C269.588 239.914 268.989 239.706 268.269 239.706C267.581 239.706 266.997 239.906 266.517 240.306C266.053 240.706 265.765 241.274 265.653 242.009H270.788ZM300.498 236.61L296.875 250H292.339L290.228 241.314L288.044 250H283.533L279.886 236.61H283.989L285.885 246.185L288.14 236.61H292.483L294.763 246.137L296.635 236.61H300.498ZM307.678 250.192C306.366 250.192 305.182 249.912 304.126 249.352C303.087 248.792 302.263 247.992 301.655 246.953C301.063 245.913 300.767 244.697 300.767 243.305C300.767 241.929 301.071 240.722 301.679 239.682C302.287 238.626 303.119 237.818 304.174 237.258C305.23 236.698 306.414 236.418 307.726 236.418C309.037 236.418 310.221 236.698 311.277 237.258C312.333 237.818 313.165 238.626 313.773 239.682C314.38 240.722 314.684 241.929 314.684 243.305C314.684 244.681 314.372 245.897 313.749 246.953C313.141 247.992 312.301 248.792 311.229 249.352C310.173 249.912 308.989 250.192 307.678 250.192ZM307.678 246.641C308.462 246.641 309.125 246.353 309.669 245.777C310.229 245.201 310.509 244.377 310.509 243.305C310.509 242.233 310.237 241.41 309.693 240.834C309.165 240.258 308.51 239.97 307.726 239.97C306.926 239.97 306.262 240.258 305.734 240.834C305.206 241.394 304.942 242.217 304.942 243.305C304.942 244.377 305.198 245.201 305.71 245.777C306.238 246.353 306.894 246.641 307.678 246.641ZM320.485 238.842C320.965 238.106 321.564 237.53 322.284 237.114C323.004 236.682 323.804 236.466 324.684 236.466V240.81H323.556C322.532 240.81 321.764 241.034 321.253 241.482C320.741 241.913 320.485 242.681 320.485 243.785V250H316.381V236.61H320.485V238.842ZM330.268 232.243V250H326.165V232.243H330.268ZM331.946 243.281C331.946 241.905 332.202 240.698 332.714 239.658C333.242 238.618 333.954 237.818 334.85 237.258C335.746 236.698 336.745 236.418 337.849 236.418C338.729 236.418 339.529 236.602 340.249 236.97C340.985 237.338 341.561 237.834 341.977 238.458V232.243H346.08V250H341.977V248.08C341.593 248.72 341.041 249.232 340.321 249.616C339.617 250 338.793 250.192 337.849 250.192C336.745 250.192 335.746 249.912 334.85 249.352C333.954 248.776 333.242 247.968 332.714 246.929C332.202 245.873 331.946 244.657 331.946 243.281ZM341.977 243.305C341.977 242.281 341.689 241.474 341.113 240.882C340.553 240.29 339.865 239.994 339.049 239.994C338.233 239.994 337.537 240.29 336.961 240.882C336.402 241.458 336.122 242.257 336.122 243.281C336.122 244.305 336.402 245.121 336.961 245.729C337.537 246.321 338.233 246.617 339.049 246.617C339.865 246.617 340.553 246.321 341.113 245.729C341.689 245.137 341.977 244.329 341.977 243.305ZM99.5501 273.521V277H97.4625C95.9747 277 94.8149 276.64 93.9831 275.92C93.1512 275.184 92.7353 273.993 92.7353 272.345V267.018H91.1036V263.61H92.7353V260.347H96.8386V263.61H99.5261V267.018H96.8386V272.393C96.8386 272.793 96.9346 273.081 97.1265 273.257C97.3185 273.433 97.6384 273.521 98.0863 273.521H99.5501ZM109.586 263.466C111.122 263.466 112.354 263.978 113.282 265.002C114.209 266.01 114.673 267.402 114.673 269.177V277H110.594V269.729C110.594 268.833 110.362 268.138 109.898 267.642C109.434 267.146 108.81 266.898 108.027 266.898C107.243 266.898 106.619 267.146 106.155 267.642C105.691 268.138 105.459 268.833 105.459 269.729V277H101.356V259.243H105.459V265.41C105.875 264.818 106.443 264.346 107.163 263.994C107.883 263.642 108.69 263.466 109.586 263.466ZM121.148 265.842C121.628 265.106 122.228 264.53 122.948 264.114C123.668 263.682 124.467 263.466 125.347 263.466V267.81H124.22C123.196 267.81 122.428 268.034 121.916 268.482C121.404 268.913 121.148 269.681 121.148 270.785V277H117.045V263.61H121.148V265.842ZM132.924 277.192C131.612 277.192 130.428 276.912 129.372 276.352C128.332 275.792 127.509 274.992 126.901 273.953C126.309 272.913 126.013 271.697 126.013 270.305C126.013 268.929 126.317 267.722 126.925 266.682C127.533 265.626 128.364 264.818 129.42 264.258C130.476 263.698 131.66 263.418 132.972 263.418C134.283 263.418 135.467 263.698 136.523 264.258C137.579 264.818 138.411 265.626 139.018 266.682C139.626 267.722 139.93 268.929 139.93 270.305C139.93 271.681 139.618 272.897 138.994 273.953C138.387 274.992 137.547 275.792 136.475 276.352C135.419 276.912 134.235 277.192 132.924 277.192ZM132.924 273.641C133.707 273.641 134.371 273.353 134.915 272.777C135.475 272.201 135.755 271.377 135.755 270.305C135.755 269.233 135.483 268.41 134.939 267.834C134.411 267.258 133.755 266.97 132.972 266.97C132.172 266.97 131.508 267.258 130.98 267.834C130.452 268.394 130.188 269.217 130.188 270.305C130.188 271.377 130.444 272.201 130.956 272.777C131.484 273.353 132.14 273.641 132.924 273.641ZM154.849 263.61V277H150.746V275.176C150.33 275.768 149.762 276.248 149.042 276.616C148.338 276.968 147.554 277.144 146.69 277.144C145.667 277.144 144.763 276.92 143.979 276.472C143.195 276.008 142.587 275.344 142.155 274.48C141.723 273.617 141.507 272.601 141.507 271.433V263.61H145.587V270.881C145.587 271.777 145.818 272.473 146.282 272.969C146.746 273.465 147.37 273.713 148.154 273.713C148.954 273.713 149.586 273.465 150.05 272.969C150.514 272.473 150.746 271.777 150.746 270.881V263.61H154.849ZM162.403 263.418C163.347 263.418 164.171 263.61 164.875 263.994C165.595 264.378 166.147 264.882 166.531 265.506V263.61H170.634V276.976C170.634 278.208 170.386 279.32 169.89 280.311C169.41 281.319 168.666 282.119 167.658 282.711C166.667 283.303 165.427 283.599 163.939 283.599C161.955 283.599 160.348 283.127 159.116 282.183C157.884 281.255 157.18 279.991 157.004 278.392H161.06C161.188 278.904 161.492 279.304 161.971 279.592C162.451 279.895 163.043 280.047 163.747 280.047C164.595 280.047 165.267 279.799 165.763 279.304C166.275 278.824 166.531 278.048 166.531 276.976V275.08C166.131 275.704 165.579 276.216 164.875 276.616C164.171 277 163.347 277.192 162.403 277.192C161.3 277.192 160.3 276.912 159.404 276.352C158.508 275.776 157.796 274.968 157.268 273.929C156.756 272.873 156.5 271.657 156.5 270.281C156.5 268.905 156.756 267.698 157.268 266.658C157.796 265.618 158.508 264.818 159.404 264.258C160.3 263.698 161.3 263.418 162.403 263.418ZM166.531 270.305C166.531 269.281 166.243 268.474 165.667 267.882C165.107 267.29 164.419 266.994 163.603 266.994C162.787 266.994 162.091 267.29 161.516 267.882C160.956 268.458 160.676 269.257 160.676 270.281C160.676 271.305 160.956 272.121 161.516 272.729C162.091 273.321 162.787 273.617 163.603 273.617C164.419 273.617 165.107 273.321 165.667 272.729C166.243 272.137 166.531 271.329 166.531 270.305ZM181.353 263.466C182.889 263.466 184.121 263.978 185.048 265.002C185.976 266.01 186.44 267.402 186.44 269.177V277H182.361V269.729C182.361 268.833 182.129 268.138 181.665 267.642C181.201 267.146 180.577 266.898 179.793 266.898C179.009 266.898 178.386 267.146 177.922 267.642C177.458 268.138 177.226 268.833 177.226 269.729V277H173.123V259.243H177.226V265.41C177.642 264.818 178.21 264.346 178.929 263.994C179.649 263.642 180.457 263.466 181.353 263.466ZM200.879 273.521V277H198.792C197.304 277 196.144 276.64 195.312 275.92C194.48 275.184 194.065 273.993 194.065 272.345V267.018H192.433V263.61H194.065V260.347H198.168V263.61H200.855V267.018H198.168V272.393C198.168 272.793 198.264 273.081 198.456 273.257C198.648 273.433 198.968 273.521 199.416 273.521H200.879ZM215.307 270.089C215.307 270.473 215.283 270.873 215.235 271.289H205.948C206.012 272.121 206.276 272.761 206.74 273.209C207.22 273.641 207.804 273.857 208.492 273.857C209.516 273.857 210.228 273.425 210.628 272.561H214.995C214.771 273.441 214.363 274.232 213.771 274.936C213.195 275.64 212.467 276.192 211.587 276.592C210.708 276.992 209.724 277.192 208.636 277.192C207.324 277.192 206.156 276.912 205.133 276.352C204.109 275.792 203.309 274.992 202.733 273.953C202.157 272.913 201.869 271.697 201.869 270.305C201.869 268.913 202.149 267.698 202.709 266.658C203.285 265.618 204.085 264.818 205.109 264.258C206.132 263.698 207.308 263.418 208.636 263.418C209.932 263.418 211.083 263.69 212.091 264.234C213.099 264.778 213.883 265.554 214.443 266.562C215.019 267.57 215.307 268.745 215.307 270.089ZM211.107 269.009C211.107 268.306 210.868 267.746 210.388 267.33C209.908 266.914 209.308 266.706 208.588 266.706C207.9 266.706 207.316 266.906 206.836 267.306C206.372 267.706 206.084 268.274 205.972 269.009H211.107ZM216.176 270.305C216.176 268.913 216.456 267.698 217.015 266.658C217.591 265.618 218.383 264.818 219.391 264.258C220.415 263.698 221.583 263.418 222.894 263.418C224.574 263.418 225.974 263.858 227.094 264.738C228.229 265.618 228.973 266.858 229.325 268.458H224.958C224.59 267.434 223.878 266.922 222.822 266.922C222.071 266.922 221.471 267.218 221.023 267.81C220.575 268.386 220.351 269.217 220.351 270.305C220.351 271.393 220.575 272.233 221.023 272.825C221.471 273.401 222.071 273.689 222.822 273.689C223.878 273.689 224.59 273.177 224.958 272.153H229.325C228.973 273.721 228.229 274.952 227.094 275.848C225.958 276.744 224.558 277.192 222.894 277.192C221.583 277.192 220.415 276.912 219.391 276.352C218.383 275.792 217.591 274.992 217.015 273.953C216.456 272.913 216.176 271.697 216.176 270.305ZM239.271 263.466C240.806 263.466 242.038 263.978 242.966 265.002C243.894 266.01 244.358 267.402 244.358 269.177V277H240.279V269.729C240.279 268.833 240.047 268.138 239.583 267.642C239.119 267.146 238.495 266.898 237.711 266.898C236.927 266.898 236.303 267.146 235.839 267.642C235.375 268.138 235.143 268.833 235.143 269.729V277H231.04V259.243H235.143V265.41C235.559 264.818 236.127 264.346 236.847 263.994C237.567 263.642 238.375 263.466 239.271 263.466ZM254.888 263.466C256.455 263.466 257.703 263.978 258.631 265.002C259.575 266.01 260.047 267.402 260.047 269.177V277H255.968V269.729C255.968 268.833 255.736 268.138 255.272 267.642C254.808 267.146 254.184 266.898 253.4 266.898C252.616 266.898 251.992 267.146 251.528 267.642C251.064 268.138 250.833 268.833 250.833 269.729V277H246.729V263.61H250.833V265.386C251.248 264.794 251.808 264.33 252.512 263.994C253.216 263.642 254.008 263.466 254.888 263.466ZM268.513 277.192C267.201 277.192 266.018 276.912 264.962 276.352C263.922 275.792 263.098 274.992 262.49 273.953C261.898 272.913 261.602 271.697 261.602 270.305C261.602 268.929 261.906 267.722 262.514 266.682C263.122 265.626 263.954 264.818 265.01 264.258C266.066 263.698 267.249 263.418 268.561 263.418C269.873 263.418 271.057 263.698 272.113 264.258C273.168 264.818 274 265.626 274.608 266.682C275.216 267.722 275.52 268.929 275.52 270.305C275.52 271.681 275.208 272.897 274.584 273.953C273.976 274.992 273.136 275.792 272.065 276.352C271.009 276.912 269.825 277.192 268.513 277.192ZM268.513 273.641C269.297 273.641 269.961 273.353 270.505 272.777C271.065 272.201 271.345 271.377 271.345 270.305C271.345 269.233 271.073 268.41 270.529 267.834C270.001 267.258 269.345 266.97 268.561 266.97C267.761 266.97 267.097 267.258 266.57 267.834C266.042 268.394 265.778 269.217 265.778 270.305C265.778 271.377 266.034 272.201 266.546 272.777C267.073 273.353 267.729 273.641 268.513 273.641ZM281.32 259.243V277H277.217V259.243H281.32ZM289.909 277.192C288.597 277.192 287.413 276.912 286.357 276.352C285.318 275.792 284.494 274.992 283.886 273.953C283.294 272.913 282.998 271.697 282.998 270.305C282.998 268.929 283.302 267.722 283.91 266.682C284.518 265.626 285.35 264.818 286.405 264.258C287.461 263.698 288.645 263.418 289.957 263.418C291.268 263.418 292.452 263.698 293.508 264.258C294.564 264.818 295.396 265.626 296.004 266.682C296.612 267.722 296.915 268.929 296.915 270.305C296.915 271.681 296.604 272.897 295.98 273.953C295.372 274.992 294.532 275.792 293.46 276.352C292.404 276.912 291.22 277.192 289.909 277.192ZM289.909 273.641C290.693 273.641 291.356 273.353 291.9 272.777C292.46 272.201 292.74 271.377 292.74 270.305C292.74 269.233 292.468 268.41 291.924 267.834C291.396 267.258 290.741 266.97 289.957 266.97C289.157 266.97 288.493 267.258 287.965 267.834C287.437 268.394 287.173 269.217 287.173 270.305C287.173 271.377 287.429 272.201 287.941 272.777C288.469 273.353 289.125 273.641 289.909 273.641ZM303.699 263.418C304.643 263.418 305.467 263.61 306.171 263.994C306.891 264.378 307.443 264.882 307.827 265.506V263.61H311.93V276.976C311.93 278.208 311.682 279.32 311.186 280.311C310.706 281.319 309.962 282.119 308.955 282.711C307.963 283.303 306.723 283.599 305.235 283.599C303.252 283.599 301.644 283.127 300.412 282.183C299.18 281.255 298.476 279.991 298.3 278.392H302.356C302.484 278.904 302.788 279.304 303.268 279.592C303.747 279.895 304.339 280.047 305.043 280.047C305.891 280.047 306.563 279.799 307.059 279.304C307.571 278.824 307.827 278.048 307.827 276.976V275.08C307.427 275.704 306.875 276.216 306.171 276.616C305.467 277 304.643 277.192 303.699 277.192C302.596 277.192 301.596 276.912 300.7 276.352C299.804 275.776 299.092 274.968 298.564 273.929C298.052 272.873 297.797 271.657 297.797 270.281C297.797 268.905 298.052 267.698 298.564 266.658C299.092 265.618 299.804 264.818 300.7 264.258C301.596 263.698 302.596 263.418 303.699 263.418ZM307.827 270.305C307.827 269.281 307.539 268.474 306.963 267.882C306.403 267.29 305.715 266.994 304.899 266.994C304.083 266.994 303.388 267.29 302.812 267.882C302.252 268.458 301.972 269.257 301.972 270.281C301.972 271.305 302.252 272.121 302.812 272.729C303.388 273.321 304.083 273.617 304.899 273.617C305.715 273.617 306.403 273.321 306.963 272.729C307.539 272.137 307.827 271.329 307.827 270.305ZM328.096 263.61L319.698 283.359H315.282L318.354 276.544L312.907 263.61H317.49L320.585 271.985L323.657 263.61H328.096ZM330.516 277.168C330.02 277.168 329.604 277 329.268 276.664C328.932 276.328 328.764 275.912 328.764 275.416C328.764 274.92 328.932 274.504 329.268 274.169C329.604 273.833 330.02 273.665 330.516 273.665C330.996 273.665 331.404 273.833 331.74 274.169C332.075 274.504 332.243 274.92 332.243 275.416C332.243 275.912 332.075 276.328 331.74 276.664C331.404 277 330.996 277.168 330.516 277.168Z" fill="#2E1D06"/>
</svg>
