<svg width="425" height="425" viewBox="0 0 425 425" fill="none" xmlns="http://www.w3.org/2000/svg">
<circle cx="212.5" cy="212.5" r="211.5" fill="#F4C33D" stroke="black" stroke-width="2"/>
<circle cx="211.928" cy="213.071" r="177.797" fill="#EB8D10" stroke="black" stroke-width="2"/>
<circle cx="212.501" cy="214.785" r="162.374" fill="#F4C33D" stroke="black" stroke-width="2"/>
<path d="M124.234 176.516V206H117.052V193.862H105.88V206H98.6984V176.516H105.88V188.066H117.052V176.516H124.234ZM127.151 194.24C127.151 191.832 127.599 189.718 128.495 187.898C129.419 186.078 130.665 184.678 132.233 183.698C133.801 182.718 135.551 182.228 137.483 182.228C139.135 182.228 140.577 182.564 141.809 183.236C143.069 183.908 144.035 184.79 144.707 185.882V182.564H151.889V206H144.707V202.682C144.007 203.774 143.027 204.656 141.767 205.328C140.535 206 139.093 206.336 137.441 206.336C135.537 206.336 133.801 205.846 132.233 204.866C130.665 203.858 129.419 202.444 128.495 200.624C127.599 198.776 127.151 196.648 127.151 194.24ZM144.707 194.282C144.707 192.49 144.203 191.076 143.195 190.04C142.215 189.004 141.011 188.486 139.583 188.486C138.155 188.486 136.937 189.004 135.929 190.04C134.949 191.048 134.459 192.448 134.459 194.24C134.459 196.032 134.949 197.46 135.929 198.524C136.937 199.56 138.155 200.078 139.583 200.078C141.011 200.078 142.215 199.56 143.195 198.524C144.203 197.488 144.707 196.074 144.707 194.282ZM154.817 194.282C154.817 191.846 155.307 189.718 156.287 187.898C157.295 186.078 158.681 184.678 160.445 183.698C162.237 182.718 164.281 182.228 166.577 182.228C169.517 182.228 171.967 182.998 173.927 184.538C175.915 186.078 177.217 188.248 177.833 191.048H170.189C169.545 189.256 168.299 188.36 166.451 188.36C165.135 188.36 164.085 188.878 163.301 189.914C162.517 190.922 162.125 192.378 162.125 194.282C162.125 196.186 162.517 197.656 163.301 198.692C164.085 199.7 165.135 200.204 166.451 200.204C168.299 200.204 169.545 199.308 170.189 197.516H177.833C177.217 200.26 175.915 202.416 173.927 203.984C171.939 205.552 169.489 206.336 166.577 206.336C164.281 206.336 162.237 205.846 160.445 204.866C158.681 203.886 157.295 202.486 156.287 200.666C155.307 198.846 154.817 196.718 154.817 194.282ZM195.157 206L188.017 196.172V206H180.835V174.92H188.017V192.098L195.115 182.564H203.977L194.233 194.324L204.061 206H195.157ZM204.53 194.24C204.53 191.832 204.978 189.718 205.874 187.898C206.798 186.078 208.044 184.678 209.612 183.698C211.18 182.718 212.93 182.228 214.862 182.228C216.514 182.228 217.956 182.564 219.188 183.236C220.448 183.908 221.414 184.79 222.086 185.882V182.564H229.268V206H222.086V202.682C221.386 203.774 220.406 204.656 219.146 205.328C217.914 206 216.472 206.336 214.82 206.336C212.916 206.336 211.18 205.846 209.612 204.866C208.044 203.858 206.798 202.444 205.874 200.624C204.978 198.776 204.53 196.648 204.53 194.24ZM222.086 194.282C222.086 192.49 221.582 191.076 220.574 190.04C219.594 189.004 218.39 188.486 216.962 188.486C215.534 188.486 214.316 189.004 213.308 190.04C212.328 191.048 211.838 192.448 211.838 194.24C211.838 196.032 212.328 197.46 213.308 198.524C214.316 199.56 215.534 200.078 216.962 200.078C218.39 200.078 219.594 199.56 220.574 198.524C221.582 197.488 222.086 196.074 222.086 194.282ZM246.685 199.91V206H243.031C240.427 206 238.397 205.37 236.941 204.11C235.485 202.822 234.757 200.736 234.757 197.852V188.528H231.901V182.564H234.757V176.852H241.939V182.564H246.643V188.528H241.939V197.936C241.939 198.636 242.107 199.14 242.443 199.448C242.779 199.756 243.339 199.91 244.123 199.91H246.685ZM264.252 182.312C266.94 182.312 269.096 183.208 270.72 185C272.344 186.764 273.156 189.2 273.156 192.308V206H266.016V193.274C266.016 191.706 265.61 190.488 264.798 189.62C263.986 188.752 262.894 188.318 261.522 188.318C260.15 188.318 259.058 188.752 258.246 189.62C257.434 190.488 257.028 191.706 257.028 193.274V206H249.846V174.92H257.028V185.714C257.756 184.678 258.75 183.852 260.01 183.236C261.27 182.62 262.684 182.312 264.252 182.312ZM287.975 206.336C285.679 206.336 283.607 205.846 281.759 204.866C279.939 203.886 278.497 202.486 277.433 200.666C276.397 198.846 275.879 196.718 275.879 194.282C275.879 191.874 276.411 189.76 277.475 187.94C278.539 186.092 279.995 184.678 281.843 183.698C283.691 182.718 285.763 182.228 288.059 182.228C290.355 182.228 292.427 182.718 294.275 183.698C296.123 184.678 297.579 186.092 298.643 187.94C299.707 189.76 300.239 191.874 300.239 194.282C300.239 196.69 299.693 198.818 298.601 200.666C297.537 202.486 296.067 203.886 294.191 204.866C292.343 205.846 290.271 206.336 287.975 206.336ZM287.975 200.12C289.347 200.12 290.509 199.616 291.461 198.608C292.441 197.6 292.931 196.158 292.931 194.282C292.931 192.406 292.455 190.964 291.503 189.956C290.579 188.948 289.431 188.444 288.059 188.444C286.659 188.444 285.497 188.948 284.573 189.956C283.649 190.936 283.187 192.378 283.187 194.282C283.187 196.158 283.635 197.6 284.531 198.608C285.455 199.616 286.603 200.12 287.975 200.12ZM317.489 182.312C320.233 182.312 322.417 183.208 324.041 185C325.693 186.764 326.519 189.2 326.519 192.308V206H319.379V193.274C319.379 191.706 318.973 190.488 318.161 189.62C317.349 188.752 316.257 188.318 314.885 188.318C313.513 188.318 312.421 188.752 311.609 189.62C310.797 190.488 310.391 191.706 310.391 193.274V206H303.209V182.564H310.391V185.672C311.119 184.636 312.099 183.824 313.331 183.236C314.563 182.62 315.949 182.312 317.489 182.312ZM180.049 246.336C177.753 246.336 175.681 245.846 173.833 244.866C172.013 243.886 170.571 242.486 169.507 240.666C168.471 238.846 167.953 236.718 167.953 234.282C167.953 231.874 168.485 229.76 169.549 227.94C170.613 226.092 172.069 224.678 173.917 223.698C175.765 222.718 177.837 222.228 180.133 222.228C182.429 222.228 184.501 222.718 186.349 223.698C188.197 224.678 189.653 226.092 190.717 227.94C191.781 229.76 192.313 231.874 192.313 234.282C192.313 236.69 191.767 238.818 190.675 240.666C189.611 242.486 188.141 243.886 186.265 244.866C184.417 245.846 182.345 246.336 180.049 246.336ZM180.049 240.12C181.421 240.12 182.583 239.616 183.535 238.608C184.515 237.6 185.005 236.158 185.005 234.282C185.005 232.406 184.529 230.964 183.577 229.956C182.653 228.948 181.505 228.444 180.133 228.444C178.733 228.444 177.571 228.948 176.647 229.956C175.723 230.936 175.261 232.378 175.261 234.282C175.261 236.158 175.709 237.6 176.605 238.608C177.529 239.616 178.677 240.12 180.049 240.12ZM209.563 222.312C212.307 222.312 214.491 223.208 216.115 225C217.767 226.764 218.593 229.2 218.593 232.308V246H211.453V233.274C211.453 231.706 211.047 230.488 210.235 229.62C209.423 228.752 208.331 228.318 206.959 228.318C205.587 228.318 204.495 228.752 203.683 229.62C202.871 230.488 202.465 231.706 202.465 233.274V246H195.283V222.564H202.465V225.672C203.193 224.636 204.173 223.824 205.405 223.236C206.637 222.62 208.023 222.312 209.563 222.312ZM229.926 214.92V246H222.744V214.92H229.926ZM258.23 222.564L243.53 257.13H235.802L241.178 245.202L231.644 222.564H239.666L245.084 237.222L250.46 222.564H258.23Z" fill="#2E1D06"/>
</svg>
