<svg width="425" height="425" viewBox="0 0 425 425" fill="none" xmlns="http://www.w3.org/2000/svg">
<circle cx="212.5" cy="212.5" r="211.5" fill="#F4C33D" stroke="black" stroke-width="2"/>
<circle cx="211.929" cy="213.071" r="177.797" fill="#EB8D10" stroke="black" stroke-width="2"/>
<circle cx="212.5" cy="214.785" r="162.374" fill="#F4C33D" stroke="black" stroke-width="2"/>
<path d="M117.224 160.377C117.224 159.017 117.496 157.826 118.04 156.802C118.6 155.762 119.368 154.962 120.344 154.402C121.32 153.842 122.44 153.562 123.703 153.562C125.303 153.562 126.623 153.946 127.663 154.714C128.718 155.466 129.43 156.546 129.798 157.954H126.847C126.607 157.298 126.223 156.786 125.695 156.418C125.167 156.05 124.503 155.866 123.703 155.866C122.583 155.866 121.688 156.266 121.016 157.066C120.36 157.85 120.032 158.953 120.032 160.377C120.032 161.801 120.36 162.913 121.016 163.713C121.688 164.512 122.583 164.912 123.703 164.912C125.287 164.912 126.335 164.217 126.847 162.825H129.798C129.414 164.169 128.694 165.24 127.639 166.04C126.583 166.824 125.271 167.216 123.703 167.216C122.44 167.216 121.32 166.936 120.344 166.376C119.368 165.8 118.6 165 118.04 163.977C117.496 162.937 117.224 161.737 117.224 160.377ZM138.883 153.562C139.891 153.562 140.787 153.778 141.571 154.21C142.371 154.642 142.994 155.282 143.442 156.13C143.906 156.978 144.138 158.002 144.138 159.201V167H141.427V159.609C141.427 158.426 141.131 157.522 140.539 156.898C139.947 156.258 139.139 155.938 138.115 155.938C137.091 155.938 136.276 156.258 135.668 156.898C135.076 157.522 134.78 158.426 134.78 159.609V167H132.044V149.243H134.78V155.314C135.244 154.754 135.828 154.322 136.532 154.018C137.251 153.714 138.035 153.562 138.883 153.562ZM152.883 167.216C151.635 167.216 150.507 166.936 149.499 166.376C148.491 165.8 147.7 165 147.124 163.977C146.548 162.937 146.26 161.737 146.26 160.377C146.26 159.033 146.556 157.842 147.148 156.802C147.739 155.762 148.547 154.962 149.571 154.402C150.595 153.842 151.739 153.562 153.003 153.562C154.266 153.562 155.41 153.842 156.434 154.402C157.458 154.962 158.266 155.762 158.857 156.802C159.449 157.842 159.745 159.033 159.745 160.377C159.745 161.721 159.441 162.913 158.834 163.953C158.226 164.992 157.394 165.8 156.338 166.376C155.298 166.936 154.146 167.216 152.883 167.216ZM152.883 164.84C153.586 164.84 154.242 164.672 154.85 164.336C155.474 164.001 155.978 163.497 156.362 162.825C156.746 162.153 156.938 161.337 156.938 160.377C156.938 159.417 156.754 158.61 156.386 157.954C156.018 157.282 155.53 156.778 154.922 156.442C154.314 156.106 153.658 155.938 152.955 155.938C152.251 155.938 151.595 156.106 150.987 156.442C150.395 156.778 149.923 157.282 149.571 157.954C149.219 158.61 149.043 159.417 149.043 160.377C149.043 161.801 149.403 162.905 150.123 163.689C150.859 164.456 151.779 164.84 152.883 164.84ZM167.705 167.216C166.457 167.216 165.329 166.936 164.321 166.376C163.313 165.8 162.522 165 161.946 163.977C161.37 162.937 161.082 161.737 161.082 160.377C161.082 159.033 161.378 157.842 161.97 156.802C162.562 155.762 163.369 154.962 164.393 154.402C165.417 153.842 166.561 153.562 167.825 153.562C169.088 153.562 170.232 153.842 171.256 154.402C172.28 154.962 173.088 155.762 173.68 156.802C174.271 157.842 174.567 159.033 174.567 160.377C174.567 161.721 174.263 162.913 173.656 163.953C173.048 164.992 172.216 165.8 171.16 166.376C170.12 166.936 168.968 167.216 167.705 167.216ZM167.705 164.84C168.408 164.84 169.064 164.672 169.672 164.336C170.296 164.001 170.8 163.497 171.184 162.825C171.568 162.153 171.76 161.337 171.76 160.377C171.76 159.417 171.576 158.61 171.208 157.954C170.84 157.282 170.352 156.778 169.744 156.442C169.136 156.106 168.48 155.938 167.777 155.938C167.073 155.938 166.417 156.106 165.809 156.442C165.217 156.778 164.745 157.282 164.393 157.954C164.041 158.61 163.865 159.417 163.865 160.377C163.865 161.801 164.225 162.905 164.945 163.689C165.681 164.456 166.601 164.84 167.705 164.84ZM181.591 167.216C180.551 167.216 179.615 167.032 178.783 166.664C177.967 166.28 177.32 165.768 176.84 165.128C176.36 164.472 176.104 163.745 176.072 162.945H178.903C178.951 163.505 179.215 163.977 179.695 164.36C180.191 164.728 180.807 164.912 181.543 164.912C182.311 164.912 182.903 164.768 183.318 164.48C183.75 164.177 183.966 163.793 183.966 163.329C183.966 162.833 183.726 162.465 183.246 162.225C182.783 161.985 182.039 161.721 181.015 161.433C180.023 161.161 179.215 160.897 178.591 160.641C177.967 160.385 177.424 159.993 176.96 159.465C176.512 158.937 176.288 158.242 176.288 157.378C176.288 156.674 176.496 156.034 176.912 155.458C177.328 154.866 177.919 154.402 178.687 154.066C179.471 153.73 180.367 153.562 181.375 153.562C182.879 153.562 184.086 153.946 184.998 154.714C185.926 155.466 186.422 156.498 186.486 157.81H183.75C183.702 157.218 183.462 156.746 183.031 156.394C182.599 156.042 182.015 155.866 181.279 155.866C180.559 155.866 180.007 156.002 179.623 156.274C179.239 156.546 179.047 156.906 179.047 157.354C179.047 157.706 179.175 158.002 179.431 158.242C179.687 158.482 179.999 158.674 180.367 158.817C180.735 158.945 181.279 159.113 181.999 159.321C182.959 159.577 183.742 159.841 184.35 160.113C184.974 160.369 185.51 160.753 185.958 161.265C186.406 161.777 186.638 162.457 186.654 163.305C186.654 164.057 186.446 164.728 186.03 165.32C185.614 165.912 185.022 166.376 184.254 166.712C183.502 167.048 182.615 167.216 181.591 167.216ZM201.248 160.065C201.248 160.561 201.216 161.009 201.152 161.409H191.049C191.129 162.465 191.521 163.313 192.225 163.953C192.929 164.592 193.793 164.912 194.817 164.912C196.288 164.912 197.328 164.296 197.936 163.065H200.888C200.488 164.28 199.76 165.28 198.704 166.064C197.664 166.832 196.368 167.216 194.817 167.216C193.553 167.216 192.417 166.936 191.409 166.376C190.417 165.8 189.634 165 189.058 163.977C188.498 162.937 188.218 161.737 188.218 160.377C188.218 159.017 188.49 157.826 189.034 156.802C189.594 155.762 190.37 154.962 191.361 154.402C192.369 153.842 193.521 153.562 194.817 153.562C196.064 153.562 197.176 153.834 198.152 154.378C199.128 154.922 199.888 155.69 200.432 156.682C200.976 157.658 201.248 158.785 201.248 160.065ZM198.392 159.201C198.376 158.194 198.016 157.386 197.312 156.778C196.608 156.17 195.737 155.866 194.697 155.866C193.753 155.866 192.945 156.17 192.273 156.778C191.601 157.37 191.201 158.178 191.073 159.201H198.392ZM208.085 160.281C208.085 158.905 208.341 157.698 208.853 156.658C209.381 155.618 210.093 154.818 210.989 154.258C211.884 153.698 212.884 153.418 213.988 153.418C214.932 153.418 215.756 153.61 216.46 153.994C217.18 154.378 217.731 154.882 218.115 155.506V153.61H222.219V167H218.115V165.104C217.715 165.728 217.156 166.232 216.436 166.616C215.732 167 214.908 167.192 213.964 167.192C212.876 167.192 211.884 166.912 210.989 166.352C210.093 165.776 209.381 164.968 208.853 163.929C208.341 162.873 208.085 161.657 208.085 160.281ZM218.115 160.305C218.115 159.281 217.827 158.474 217.252 157.882C216.692 157.29 216.004 156.994 215.188 156.994C214.372 156.994 213.676 157.29 213.1 157.882C212.54 158.458 212.26 159.257 212.26 160.281C212.26 161.305 212.54 162.121 213.1 162.729C213.676 163.321 214.372 163.617 215.188 163.617C216.004 163.617 216.692 163.321 217.252 162.729C217.827 162.137 218.115 161.329 218.115 160.305ZM232.866 153.466C234.433 153.466 235.681 153.978 236.609 155.002C237.553 156.01 238.025 157.402 238.025 159.177V167H233.946V159.729C233.946 158.833 233.714 158.138 233.25 157.642C232.786 157.146 232.162 156.898 231.378 156.898C230.594 156.898 229.97 157.146 229.506 157.642C229.042 158.138 228.811 158.833 228.811 159.729V167H224.707V153.61H228.811V155.386C229.226 154.794 229.786 154.33 230.49 153.994C231.194 153.642 231.986 153.466 232.866 153.466ZM254.074 153.61L245.675 173.359H241.26L244.332 166.544L238.885 153.61H243.468L246.563 161.985L249.635 153.61H254.074ZM265.778 167.192C264.466 167.192 263.282 166.912 262.226 166.352C261.187 165.792 260.363 164.992 259.755 163.953C259.163 162.913 258.867 161.697 258.867 160.305C258.867 158.929 259.171 157.722 259.779 156.682C260.387 155.626 261.219 154.818 262.274 154.258C263.33 153.698 264.514 153.418 265.826 153.418C267.137 153.418 268.321 153.698 269.377 154.258C270.433 154.818 271.265 155.626 271.873 156.682C272.481 157.722 272.784 158.929 272.784 160.305C272.784 161.681 272.473 162.897 271.849 163.953C271.241 164.992 270.401 165.792 269.329 166.352C268.273 166.912 267.089 167.192 265.778 167.192ZM265.778 163.641C266.562 163.641 267.225 163.353 267.769 162.777C268.329 162.201 268.609 161.377 268.609 160.305C268.609 159.233 268.337 158.41 267.793 157.834C267.265 157.258 266.61 156.97 265.826 156.97C265.026 156.97 264.362 157.258 263.834 157.834C263.306 158.394 263.042 159.217 263.042 160.305C263.042 161.377 263.298 162.201 263.81 162.777C264.338 163.353 264.994 163.641 265.778 163.641ZM282.64 153.466C284.208 153.466 285.455 153.978 286.383 155.002C287.327 156.01 287.799 157.402 287.799 159.177V167H283.72V159.729C283.72 158.833 283.488 158.138 283.024 157.642C282.56 157.146 281.936 156.898 281.152 156.898C280.368 156.898 279.744 157.146 279.281 157.642C278.817 158.138 278.585 158.833 278.585 159.729V167H274.481V153.61H278.585V155.386C279.001 154.794 279.56 154.33 280.264 153.994C280.968 153.642 281.76 153.466 282.64 153.466ZM302.792 160.089C302.792 160.473 302.768 160.873 302.72 161.289H293.434C293.498 162.121 293.762 162.761 294.226 163.209C294.706 163.641 295.29 163.857 295.977 163.857C297.001 163.857 297.713 163.425 298.113 162.561H302.48C302.256 163.441 301.848 164.232 301.256 164.936C300.681 165.64 299.953 166.192 299.073 166.592C298.193 166.992 297.209 167.192 296.121 167.192C294.81 167.192 293.642 166.912 292.618 166.352C291.594 165.792 290.794 164.992 290.218 163.953C289.643 162.913 289.355 161.697 289.355 160.305C289.355 158.913 289.635 157.698 290.194 156.658C290.77 155.618 291.57 154.818 292.594 154.258C293.618 153.698 294.794 153.418 296.121 153.418C297.417 153.418 298.569 153.69 299.577 154.234C300.585 154.778 301.368 155.554 301.928 156.562C302.504 157.57 302.792 158.745 302.792 160.089ZM298.593 159.009C298.593 158.306 298.353 157.746 297.873 157.33C297.393 156.914 296.793 156.706 296.073 156.706C295.386 156.706 294.802 156.906 294.322 157.306C293.858 157.706 293.57 158.274 293.458 159.009H298.593ZM94.6664 182.746C95.1303 182.106 95.7622 181.586 96.562 181.186C97.3779 180.77 98.2817 180.562 99.2735 180.562C100.441 180.562 101.497 180.842 102.441 181.402C103.385 181.962 104.129 182.762 104.673 183.802C105.216 184.826 105.488 186.001 105.488 187.329C105.488 188.657 105.216 189.849 104.673 190.905C104.129 191.944 103.377 192.76 102.417 193.352C101.473 193.928 100.425 194.216 99.2735 194.216C98.2497 194.216 97.3379 194.016 96.538 193.616C95.7542 193.216 95.1303 192.704 94.6664 192.08V194H91.9308V176.243H94.6664V182.746ZM102.705 187.329C102.705 186.417 102.513 185.634 102.129 184.978C101.761 184.306 101.265 183.802 100.641 183.466C100.033 183.114 99.3775 182.938 98.6736 182.938C97.9858 182.938 97.3299 183.114 96.706 183.466C96.0981 183.818 95.6022 184.33 95.2183 185.002C94.8503 185.674 94.6664 186.465 94.6664 187.377C94.6664 188.289 94.8503 189.089 95.2183 189.777C95.6022 190.449 96.0981 190.961 96.706 191.312C97.3299 191.664 97.9858 191.84 98.6736 191.84C99.3775 191.84 100.033 191.664 100.641 191.312C101.265 190.945 101.761 190.417 102.129 189.729C102.513 189.041 102.705 188.241 102.705 187.329ZM113.449 194.216C112.201 194.216 111.073 193.936 110.065 193.376C109.057 192.8 108.266 192 107.69 190.977C107.114 189.937 106.826 188.737 106.826 187.377C106.826 186.033 107.122 184.842 107.714 183.802C108.306 182.762 109.113 181.962 110.137 181.402C111.161 180.842 112.305 180.562 113.569 180.562C114.832 180.562 115.976 180.842 117 181.402C118.024 181.962 118.832 182.762 119.424 183.802C120.015 184.842 120.311 186.033 120.311 187.377C120.311 188.721 120.007 189.913 119.4 190.953C118.792 191.992 117.96 192.8 116.904 193.376C115.864 193.936 114.712 194.216 113.449 194.216ZM113.449 191.84C114.152 191.84 114.808 191.672 115.416 191.336C116.04 191.001 116.544 190.497 116.928 189.825C117.312 189.153 117.504 188.337 117.504 187.377C117.504 186.417 117.32 185.61 116.952 184.954C116.584 184.282 116.096 183.778 115.488 183.442C114.88 183.106 114.224 182.938 113.521 182.938C112.817 182.938 112.161 183.106 111.553 183.442C110.961 183.778 110.489 184.282 110.137 184.954C109.785 185.61 109.609 186.417 109.609 187.377C109.609 188.801 109.969 189.905 110.689 190.689C111.425 191.456 112.345 191.84 113.449 191.84ZM128.271 194.216C127.023 194.216 125.895 193.936 124.887 193.376C123.879 192.8 123.088 192 122.512 190.977C121.936 189.937 121.648 188.737 121.648 187.377C121.648 186.033 121.944 184.842 122.536 183.802C123.128 182.762 123.935 181.962 124.959 181.402C125.983 180.842 127.127 180.562 128.391 180.562C129.654 180.562 130.798 180.842 131.822 181.402C132.846 181.962 133.654 182.762 134.246 183.802C134.837 184.842 135.133 186.033 135.133 187.377C135.133 188.721 134.829 189.913 134.222 190.953C133.614 191.992 132.782 192.8 131.726 193.376C130.686 193.936 129.534 194.216 128.271 194.216ZM128.271 191.84C128.974 191.84 129.63 191.672 130.238 191.336C130.862 191.001 131.366 190.497 131.75 189.825C132.134 189.153 132.326 188.337 132.326 187.377C132.326 186.417 132.142 185.61 131.774 184.954C131.406 184.282 130.918 183.778 130.31 183.442C129.702 183.106 129.046 182.938 128.343 182.938C127.639 182.938 126.983 183.106 126.375 183.442C125.783 183.778 125.311 184.282 124.959 184.954C124.607 185.61 124.431 186.417 124.431 187.377C124.431 188.801 124.791 189.905 125.511 190.689C126.247 191.456 127.167 191.84 128.271 191.84ZM140.549 183.01V190.329C140.549 190.825 140.661 191.185 140.885 191.408C141.125 191.616 141.525 191.72 142.085 191.72H143.765V194H141.605C140.373 194 139.429 193.712 138.773 193.136C138.118 192.56 137.79 191.624 137.79 190.329V183.01H136.23V180.778H137.79V177.491H140.549V180.778H143.765V183.01H140.549ZM144.894 187.377C144.894 186.017 145.166 184.826 145.71 183.802C146.27 182.762 147.038 181.962 148.013 181.402C148.989 180.842 150.109 180.562 151.373 180.562C152.973 180.562 154.292 180.946 155.332 181.714C156.388 182.466 157.1 183.546 157.468 184.954H154.516C154.276 184.298 153.892 183.786 153.364 183.418C152.837 183.05 152.173 182.866 151.373 182.866C150.253 182.866 149.357 183.266 148.685 184.066C148.029 184.85 147.701 185.953 147.701 187.377C147.701 188.801 148.029 189.913 148.685 190.713C149.357 191.512 150.253 191.912 151.373 191.912C152.957 191.912 154.004 191.217 154.516 189.825H157.468C157.084 191.169 156.364 192.24 155.308 193.04C154.252 193.824 152.941 194.216 151.373 194.216C150.109 194.216 148.989 193.936 148.013 193.376C147.038 192.8 146.27 192 145.71 190.977C145.166 189.937 144.894 188.737 144.894 187.377ZM158.802 187.329C158.802 186.001 159.074 184.826 159.618 183.802C160.178 182.778 160.93 181.986 161.874 181.426C162.833 180.85 163.889 180.562 165.041 180.562C166.081 180.562 166.985 180.77 167.752 181.186C168.536 181.586 169.16 182.09 169.624 182.698V180.778H172.384V194H169.624V192.032C169.16 192.656 168.528 193.176 167.728 193.592C166.929 194.008 166.017 194.216 164.993 194.216C163.857 194.216 162.817 193.928 161.874 193.352C160.93 192.76 160.178 191.944 159.618 190.905C159.074 189.849 158.802 188.657 158.802 187.329ZM169.624 187.377C169.624 186.465 169.432 185.674 169.048 185.002C168.68 184.33 168.192 183.818 167.585 183.466C166.977 183.114 166.321 182.938 165.617 182.938C164.913 182.938 164.257 183.114 163.649 183.466C163.041 183.802 162.545 184.306 162.161 184.978C161.794 185.634 161.61 186.417 161.61 187.329C161.61 188.241 161.794 189.041 162.161 189.729C162.545 190.417 163.041 190.945 163.649 191.312C164.273 191.664 164.929 191.84 165.617 191.84C166.321 191.84 166.977 191.664 167.585 191.312C168.192 190.961 168.68 190.449 169.048 189.777C169.432 189.089 169.624 188.289 169.624 187.377ZM191.502 180.562C192.542 180.562 193.469 180.778 194.285 181.21C195.117 181.642 195.765 182.282 196.229 183.13C196.709 183.978 196.949 185.002 196.949 186.201V194H194.237V186.609C194.237 185.426 193.941 184.522 193.35 183.898C192.758 183.258 191.95 182.938 190.926 182.938C189.902 182.938 189.086 183.258 188.478 183.898C187.886 184.522 187.591 185.426 187.591 186.609V194H184.879V186.609C184.879 185.426 184.583 184.522 183.991 183.898C183.399 183.258 182.591 182.938 181.568 182.938C180.544 182.938 179.728 183.258 179.12 183.898C178.528 184.522 178.232 185.426 178.232 186.609V194H175.497V180.778H178.232V182.29C178.68 181.746 179.248 181.322 179.936 181.018C180.624 180.714 181.36 180.562 182.144 180.562C183.199 180.562 184.143 180.786 184.975 181.234C185.807 181.682 186.447 182.33 186.895 183.178C187.295 182.378 187.918 181.746 188.766 181.282C189.614 180.802 190.526 180.562 191.502 180.562ZM202.685 182.722C203.149 182.114 203.781 181.602 204.581 181.186C205.381 180.77 206.285 180.562 207.292 180.562C208.444 180.562 209.492 180.85 210.436 181.426C211.396 181.986 212.148 182.778 212.692 183.802C213.235 184.826 213.507 186.001 213.507 187.329C213.507 188.657 213.235 189.849 212.692 190.905C212.148 191.944 211.396 192.76 210.436 193.352C209.492 193.928 208.444 194.216 207.292 194.216C206.285 194.216 205.389 194.016 204.605 193.616C203.821 193.2 203.181 192.688 202.685 192.08V200.287H199.95V180.778H202.685V182.722ZM210.724 187.329C210.724 186.417 210.532 185.634 210.148 184.978C209.78 184.306 209.284 183.802 208.66 183.466C208.052 183.114 207.396 182.938 206.693 182.938C206.005 182.938 205.349 183.114 204.725 183.466C204.117 183.818 203.621 184.33 203.237 185.002C202.869 185.674 202.685 186.465 202.685 187.377C202.685 188.289 202.869 189.089 203.237 189.777C203.621 190.449 204.117 190.961 204.725 191.312C205.349 191.664 206.005 191.84 206.693 191.84C207.396 191.84 208.052 191.664 208.66 191.312C209.284 190.945 209.78 190.417 210.148 189.729C210.532 189.041 210.724 188.241 210.724 187.329ZM226.597 191.552L230.34 180.778H233.244L228.205 194H224.941L219.926 180.778H222.854L226.597 191.552ZM246.949 187.065C246.949 187.561 246.917 188.009 246.853 188.409H236.751C236.831 189.465 237.223 190.313 237.927 190.953C238.631 191.592 239.495 191.912 240.519 191.912C241.99 191.912 243.03 191.296 243.638 190.065H246.59C246.19 191.28 245.462 192.28 244.406 193.064C243.366 193.832 242.07 194.216 240.519 194.216C239.255 194.216 238.119 193.936 237.111 193.376C236.119 192.8 235.336 192 234.76 190.977C234.2 189.937 233.92 188.737 233.92 187.377C233.92 186.017 234.192 184.826 234.736 183.802C235.296 182.762 236.071 181.962 237.063 181.402C238.071 180.842 239.223 180.562 240.519 180.562C241.766 180.562 242.878 180.834 243.854 181.378C244.83 181.922 245.59 182.69 246.134 183.682C246.678 184.658 246.949 185.785 246.949 187.065ZM244.094 186.201C244.078 185.194 243.718 184.386 243.014 183.778C242.31 183.17 241.438 182.866 240.399 182.866C239.455 182.866 238.647 183.17 237.975 183.778C237.303 184.37 236.903 185.178 236.775 186.201H244.094ZM251.897 182.698C252.297 182.026 252.825 181.506 253.481 181.138C254.153 180.754 254.945 180.562 255.856 180.562V183.394H255.16C254.089 183.394 253.273 183.666 252.713 184.21C252.169 184.754 251.897 185.697 251.897 187.041V194H249.162V180.778H251.897V182.698ZM261.082 183.01V190.329C261.082 190.825 261.194 191.185 261.418 191.408C261.658 191.616 262.058 191.72 262.618 191.72H264.298V194H262.138C260.906 194 259.963 193.712 259.307 193.136C258.651 192.56 258.323 191.624 258.323 190.329V183.01H256.763V180.778H258.323V177.491H261.082V180.778H264.298V183.01H261.082ZM267.731 179.027C267.235 179.027 266.819 178.859 266.483 178.523C266.147 178.187 265.979 177.771 265.979 177.275C265.979 176.779 266.147 176.363 266.483 176.027C266.819 175.691 267.235 175.523 267.731 175.523C268.211 175.523 268.619 175.691 268.955 176.027C269.291 176.363 269.459 176.779 269.459 177.275C269.459 177.771 269.291 178.187 268.955 178.523C268.619 178.859 268.211 179.027 267.731 179.027ZM269.075 180.778V194H266.339V180.778H269.075ZM271.274 187.377C271.274 186.017 271.546 184.826 272.09 183.802C272.65 182.762 273.418 181.962 274.394 181.402C275.37 180.842 276.489 180.562 277.753 180.562C279.353 180.562 280.673 180.946 281.712 181.714C282.768 182.466 283.48 183.546 283.848 184.954H280.897C280.657 184.298 280.273 183.786 279.745 183.418C279.217 183.05 278.553 182.866 277.753 182.866C276.633 182.866 275.738 183.266 275.066 184.066C274.41 184.85 274.082 185.953 274.082 187.377C274.082 188.801 274.41 189.913 275.066 190.713C275.738 191.512 276.633 191.912 277.753 191.912C279.337 191.912 280.385 191.217 280.897 189.825H283.848C283.464 191.169 282.744 192.24 281.688 193.04C280.633 193.824 279.321 194.216 277.753 194.216C276.489 194.216 275.37 193.936 274.394 193.376C273.418 192.8 272.65 192 272.09 190.977C271.546 189.937 271.274 188.737 271.274 187.377ZM285.182 187.329C285.182 186.001 285.454 184.826 285.998 183.802C286.558 182.778 287.31 181.986 288.254 181.426C289.214 180.85 290.27 180.562 291.421 180.562C292.461 180.562 293.365 180.77 294.133 181.186C294.917 181.586 295.541 182.09 296.005 182.698V180.778H298.764V194H296.005V192.032C295.541 192.656 294.909 193.176 294.109 193.592C293.309 194.008 292.397 194.216 291.373 194.216C290.238 194.216 289.198 193.928 288.254 193.352C287.31 192.76 286.558 191.944 285.998 190.905C285.454 189.849 285.182 188.657 285.182 187.329ZM296.005 187.377C296.005 186.465 295.813 185.674 295.429 185.002C295.061 184.33 294.573 183.818 293.965 183.466C293.357 183.114 292.701 182.938 291.997 182.938C291.293 182.938 290.637 183.114 290.03 183.466C289.422 183.802 288.926 184.306 288.542 184.978C288.174 185.634 287.99 186.417 287.99 187.329C287.99 188.241 288.174 189.041 288.542 189.729C288.926 190.417 289.422 190.945 290.03 191.312C290.653 191.664 291.309 191.84 291.997 191.84C292.701 191.84 293.357 191.664 293.965 191.312C294.573 190.961 295.061 190.449 295.429 189.777C295.813 189.089 296.005 188.289 296.005 187.377ZM304.613 176.243V194H301.877V176.243H304.613ZM316.669 183.01V190.329C316.669 190.825 316.781 191.185 317.005 191.408C317.245 191.616 317.645 191.72 318.205 191.72H319.884V194H317.725C316.493 194 315.549 193.712 314.893 193.136C314.237 192.56 313.909 191.624 313.909 190.329V183.01H312.35V180.778H313.909V177.491H316.669V180.778H319.884V183.01H316.669ZM327.661 194.216C326.413 194.216 325.285 193.936 324.277 193.376C323.269 192.8 322.478 192 321.902 190.977C321.326 189.937 321.038 188.737 321.038 187.377C321.038 186.033 321.334 184.842 321.926 183.802C322.518 182.762 323.325 181.962 324.349 181.402C325.373 180.842 326.517 180.562 327.781 180.562C329.044 180.562 330.188 180.842 331.212 181.402C332.236 181.962 333.044 182.762 333.636 183.802C334.227 184.842 334.523 186.033 334.523 187.377C334.523 188.721 334.219 189.913 333.612 190.953C333.004 191.992 332.172 192.8 331.116 193.376C330.076 193.936 328.924 194.216 327.661 194.216ZM327.661 191.84C328.364 191.84 329.02 191.672 329.628 191.336C330.252 191.001 330.756 190.497 331.14 189.825C331.524 189.153 331.716 188.337 331.716 187.377C331.716 186.417 331.532 185.61 331.164 184.954C330.796 184.282 330.308 183.778 329.7 183.442C329.092 183.106 328.436 182.938 327.733 182.938C327.029 182.938 326.373 183.106 325.765 183.442C325.173 183.778 324.701 184.282 324.349 184.954C323.997 185.61 323.821 186.417 323.821 187.377C323.821 188.801 324.181 189.905 324.901 190.689C325.637 191.456 326.557 191.84 327.661 191.84ZM83.7601 207.562C84.768 207.562 85.6638 207.778 86.4476 208.21C87.2475 208.642 87.8714 209.282 88.3193 210.13C88.7832 210.978 89.0152 212.002 89.0152 213.201V221H86.3037V213.609C86.3037 212.426 86.0077 211.522 85.4158 210.898C84.8239 210.258 84.0161 209.938 82.9923 209.938C81.9685 209.938 81.1526 210.258 80.5447 210.898C79.9528 211.522 79.6569 212.426 79.6569 213.609V221H76.9214V203.243H79.6569V209.314C80.1208 208.754 80.7047 208.322 81.4086 208.018C82.1284 207.714 82.9123 207.562 83.7601 207.562ZM97.7595 221.216C96.5118 221.216 95.384 220.936 94.3762 220.376C93.3683 219.8 92.5765 219 92.0006 217.977C91.4247 216.937 91.1367 215.737 91.1367 214.377C91.1367 213.033 91.4327 211.842 92.0246 210.802C92.6165 209.762 93.4243 208.962 94.4481 208.402C95.472 207.842 96.6158 207.562 97.8795 207.562C99.1433 207.562 100.287 207.842 101.311 208.402C102.335 208.962 103.143 209.762 103.734 210.802C104.326 211.842 104.622 213.033 104.622 214.377C104.622 215.721 104.318 216.913 103.71 217.953C103.103 218.992 102.271 219.8 101.215 220.376C100.175 220.936 99.0233 221.216 97.7595 221.216ZM97.7595 218.84C98.4634 218.84 99.1193 218.672 99.7272 218.336C100.351 218.001 100.855 217.497 101.239 216.825C101.623 216.153 101.815 215.337 101.815 214.377C101.815 213.417 101.631 212.61 101.263 211.954C100.895 211.282 100.407 210.778 99.7992 210.442C99.1913 210.106 98.5354 209.938 97.8315 209.938C97.1277 209.938 96.4718 210.106 95.8639 210.442C95.272 210.778 94.8001 211.282 94.4481 211.954C94.0962 212.61 93.9202 213.417 93.9202 214.377C93.9202 215.801 94.2802 216.905 95 217.689C95.7359 218.456 96.6557 218.84 97.7595 218.84ZM113.517 207.562C114.557 207.562 115.485 207.778 116.301 208.21C117.133 208.642 117.781 209.282 118.245 210.13C118.708 210.978 118.94 212.002 118.94 213.201V221H116.229V213.609C116.229 212.426 115.933 211.522 115.341 210.898C114.749 210.258 113.941 209.938 112.918 209.938C111.894 209.938 111.078 210.258 110.47 210.898C109.878 211.522 109.582 212.426 109.582 213.609V221H106.847V207.778H109.582V209.29C110.03 208.746 110.598 208.322 111.286 208.018C111.99 207.714 112.734 207.562 113.517 207.562ZM134.068 214.065C134.068 214.561 134.036 215.009 133.972 215.409H123.869C123.949 216.465 124.341 217.313 125.045 217.953C125.749 218.592 126.613 218.912 127.637 218.912C129.109 218.912 130.148 218.296 130.756 217.065H133.708C133.308 218.28 132.58 219.28 131.524 220.064C130.484 220.832 129.189 221.216 127.637 221.216C126.373 221.216 125.237 220.936 124.229 220.376C123.238 219.8 122.454 219 121.878 217.977C121.318 216.937 121.038 215.737 121.038 214.377C121.038 213.017 121.31 211.826 121.854 210.802C122.414 209.762 123.19 208.962 124.181 208.402C125.189 207.842 126.341 207.562 127.637 207.562C128.885 207.562 129.996 207.834 130.972 208.378C131.948 208.922 132.708 209.69 133.252 210.682C133.796 211.658 134.068 212.785 134.068 214.065ZM131.212 213.201C131.196 212.194 130.836 211.386 130.132 210.778C129.428 210.17 128.557 209.866 127.517 209.866C126.573 209.866 125.765 210.17 125.093 210.778C124.421 211.37 124.021 212.178 123.893 213.201H131.212ZM153.935 207.778L145.824 227.215H142.993L145.68 220.784L140.473 207.778H143.521L147.24 217.857L151.103 207.778H153.935ZM161.254 221.216C160.007 221.216 158.879 220.936 157.871 220.376C156.863 219.8 156.071 219 155.495 217.977C154.919 216.937 154.632 215.737 154.632 214.377C154.632 213.033 154.927 211.842 155.519 210.802C156.111 209.762 156.919 208.962 157.943 208.402C158.967 207.842 160.111 207.562 161.374 207.562C162.638 207.562 163.782 207.842 164.806 208.402C165.83 208.962 166.637 209.762 167.229 210.802C167.821 211.842 168.117 213.033 168.117 214.377C168.117 215.721 167.813 216.913 167.205 217.953C166.597 218.992 165.766 219.8 164.71 220.376C163.67 220.936 162.518 221.216 161.254 221.216ZM161.254 218.84C161.958 218.84 162.614 218.672 163.222 218.336C163.846 218.001 164.35 217.497 164.734 216.825C165.118 216.153 165.31 215.337 165.31 214.377C165.31 213.417 165.126 212.61 164.758 211.954C164.39 211.282 163.902 210.778 163.294 210.442C162.686 210.106 162.03 209.938 161.326 209.938C160.622 209.938 159.967 210.106 159.359 210.442C158.767 210.778 158.295 211.282 157.943 211.954C157.591 212.61 157.415 213.417 157.415 214.377C157.415 215.801 157.775 216.905 158.495 217.689C159.231 218.456 160.151 218.84 161.254 218.84ZM182.315 207.778V221H179.58V219.44C179.148 219.984 178.58 220.416 177.876 220.736C177.188 221.04 176.452 221.192 175.668 221.192C174.629 221.192 173.693 220.976 172.861 220.544C172.045 220.112 171.397 219.472 170.917 218.624C170.453 217.777 170.221 216.753 170.221 215.553V207.778H172.933V215.145C172.933 216.329 173.229 217.241 173.821 217.881C174.413 218.504 175.221 218.816 176.244 218.816C177.268 218.816 178.076 218.504 178.668 217.881C179.276 217.241 179.58 216.329 179.58 215.145V207.778H182.315ZM188.18 209.698C188.58 209.026 189.108 208.506 189.764 208.138C190.436 207.754 191.228 207.562 192.139 207.562V210.394H191.444C190.372 210.394 189.556 210.666 188.996 211.21C188.452 211.754 188.18 212.697 188.18 214.041V221H185.445V207.778H188.18V209.698ZM205.47 210.01H203.023V221H200.263V210.01H198.704V207.778H200.263V206.843C200.263 205.323 200.663 204.219 201.463 203.531C202.279 202.827 203.551 202.475 205.278 202.475V204.755C204.447 204.755 203.863 204.915 203.527 205.235C203.191 205.539 203.023 206.075 203.023 206.843V207.778H205.47V210.01ZM213.15 221.216C211.902 221.216 210.774 220.936 209.766 220.376C208.758 219.8 207.967 219 207.391 217.977C206.815 216.937 206.527 215.737 206.527 214.377C206.527 213.033 206.823 211.842 207.415 210.802C208.007 209.762 208.814 208.962 209.838 208.402C210.862 207.842 212.006 207.562 213.27 207.562C214.533 207.562 215.677 207.842 216.701 208.402C217.725 208.962 218.533 209.762 219.125 210.802C219.716 211.842 220.012 213.033 220.012 214.377C220.012 215.721 219.708 216.913 219.101 217.953C218.493 218.992 217.661 219.8 216.605 220.376C215.565 220.936 214.413 221.216 213.15 221.216ZM213.15 218.84C213.854 218.84 214.509 218.672 215.117 218.336C215.741 218.001 216.245 217.497 216.629 216.825C217.013 216.153 217.205 215.337 217.205 214.377C217.205 213.417 217.021 212.61 216.653 211.954C216.285 211.282 215.797 210.778 215.189 210.442C214.581 210.106 213.926 209.938 213.222 209.938C212.518 209.938 211.862 210.106 211.254 210.442C210.662 210.778 210.19 211.282 209.838 211.954C209.486 212.61 209.31 213.417 209.31 214.377C209.31 215.801 209.67 216.905 210.39 217.689C211.126 218.456 212.046 218.84 213.15 218.84ZM234.211 207.778V221H231.475V219.44C231.043 219.984 230.475 220.416 229.771 220.736C229.083 221.04 228.348 221.192 227.564 221.192C226.524 221.192 225.588 220.976 224.756 220.544C223.94 220.112 223.293 219.472 222.813 218.624C222.349 217.777 222.117 216.753 222.117 215.553V207.778H224.828V215.145C224.828 216.329 225.124 217.241 225.716 217.881C226.308 218.504 227.116 218.816 228.14 218.816C229.163 218.816 229.971 218.504 230.563 217.881C231.171 217.241 231.475 216.329 231.475 215.145V207.778H234.211ZM244.011 207.562C245.051 207.562 245.978 207.778 246.794 208.21C247.626 208.642 248.274 209.282 248.738 210.13C249.202 210.978 249.434 212.002 249.434 213.201V221H246.722V213.609C246.722 212.426 246.426 211.522 245.834 210.898C245.243 210.258 244.435 209.938 243.411 209.938C242.387 209.938 241.571 210.258 240.963 210.898C240.371 211.522 240.075 212.426 240.075 213.609V221H237.34V207.778H240.075V209.29C240.523 208.746 241.091 208.322 241.779 208.018C242.483 207.714 243.227 207.562 244.011 207.562ZM251.531 214.329C251.531 213.001 251.803 211.826 252.347 210.802C252.907 209.778 253.659 208.986 254.603 208.426C255.563 207.85 256.626 207.562 257.794 207.562C258.658 207.562 259.506 207.754 260.338 208.138C261.186 208.506 261.857 209.002 262.353 209.626V203.243H265.113V221H262.353V219.008C261.905 219.648 261.282 220.176 260.482 220.592C259.698 221.008 258.794 221.216 257.77 221.216C256.618 221.216 255.563 220.928 254.603 220.352C253.659 219.76 252.907 218.944 252.347 217.905C251.803 216.849 251.531 215.657 251.531 214.329ZM262.353 214.377C262.353 213.465 262.161 212.674 261.777 212.002C261.41 211.33 260.922 210.818 260.314 210.466C259.706 210.114 259.05 209.938 258.346 209.938C257.642 209.938 256.986 210.114 256.378 210.466C255.771 210.802 255.275 211.306 254.891 211.978C254.523 212.634 254.339 213.417 254.339 214.329C254.339 215.241 254.523 216.041 254.891 216.729C255.275 217.417 255.771 217.945 256.378 218.312C257.002 218.664 257.658 218.84 258.346 218.84C259.05 218.84 259.706 218.664 260.314 218.312C260.922 217.961 261.41 217.449 261.777 216.777C262.161 216.089 262.353 215.289 262.353 214.377ZM267.314 214.329C267.314 213.001 267.586 211.826 268.13 210.802C268.69 209.778 269.442 208.986 270.386 208.426C271.345 207.85 272.401 207.562 273.553 207.562C274.593 207.562 275.497 207.77 276.264 208.186C277.048 208.586 277.672 209.09 278.136 209.698V207.778H280.896V221H278.136V219.032C277.672 219.656 277.04 220.176 276.24 220.592C275.441 221.008 274.529 221.216 273.505 221.216C272.369 221.216 271.329 220.928 270.386 220.352C269.442 219.76 268.69 218.944 268.13 217.905C267.586 216.849 267.314 215.657 267.314 214.329ZM278.136 214.377C278.136 213.465 277.944 212.674 277.56 212.002C277.192 211.33 276.704 210.818 276.097 210.466C275.489 210.114 274.833 209.938 274.129 209.938C273.425 209.938 272.769 210.114 272.161 210.466C271.553 210.802 271.057 211.306 270.673 211.978C270.306 212.634 270.122 213.417 270.122 214.329C270.122 215.241 270.306 216.041 270.673 216.729C271.057 217.417 271.553 217.945 272.161 218.312C272.785 218.664 273.441 218.84 274.129 218.84C274.833 218.84 275.489 218.664 276.097 218.312C276.704 217.961 277.192 217.449 277.56 216.777C277.944 216.089 278.136 215.289 278.136 214.377ZM287.2 210.01V217.329C287.2 217.825 287.312 218.185 287.536 218.408C287.776 218.616 288.176 218.72 288.736 218.72H290.416V221H288.256C287.024 221 286.08 220.712 285.424 220.136C284.769 219.56 284.441 218.624 284.441 217.329V210.01H282.881V207.778H284.441V204.491H287.2V207.778H290.416V210.01H287.2ZM293.849 206.027C293.353 206.027 292.937 205.859 292.601 205.523C292.265 205.187 292.097 204.771 292.097 204.275C292.097 203.779 292.265 203.363 292.601 203.027C292.937 202.691 293.353 202.523 293.849 202.523C294.329 202.523 294.736 202.691 295.072 203.027C295.408 203.363 295.576 203.779 295.576 204.275C295.576 204.771 295.408 205.187 295.072 205.523C294.736 205.859 294.329 206.027 293.849 206.027ZM295.192 207.778V221H292.457V207.778H295.192ZM304.039 221.216C302.791 221.216 301.663 220.936 300.656 220.376C299.648 219.8 298.856 219 298.28 217.977C297.704 216.937 297.416 215.737 297.416 214.377C297.416 213.033 297.712 211.842 298.304 210.802C298.896 209.762 299.704 208.962 300.728 208.402C301.751 207.842 302.895 207.562 304.159 207.562C305.423 207.562 306.566 207.842 307.59 208.402C308.614 208.962 309.422 209.762 310.014 210.802C310.606 211.842 310.902 213.033 310.902 214.377C310.902 215.721 310.598 216.913 309.99 217.953C309.382 218.992 308.55 219.8 307.494 220.376C306.454 220.936 305.303 221.216 304.039 221.216ZM304.039 218.84C304.743 218.84 305.399 218.672 306.007 218.336C306.63 218.001 307.134 217.497 307.518 216.825C307.902 216.153 308.094 215.337 308.094 214.377C308.094 213.417 307.91 212.61 307.542 211.954C307.174 211.282 306.686 210.778 306.079 210.442C305.471 210.106 304.815 209.938 304.111 209.938C303.407 209.938 302.751 210.106 302.143 210.442C301.551 210.778 301.079 211.282 300.728 211.954C300.376 212.61 300.2 213.417 300.2 214.377C300.2 215.801 300.56 216.905 301.279 217.689C302.015 218.456 302.935 218.84 304.039 218.84ZM319.797 207.562C320.837 207.562 321.764 207.778 322.58 208.21C323.412 208.642 324.06 209.282 324.524 210.13C324.988 210.978 325.22 212.002 325.22 213.201V221H322.508V213.609C322.508 212.426 322.212 211.522 321.62 210.898C321.029 210.258 320.221 209.938 319.197 209.938C318.173 209.938 317.357 210.258 316.749 210.898C316.157 211.522 315.861 212.426 315.861 213.609V221H313.126V207.778H315.861V209.29C316.309 208.746 316.877 208.322 317.565 208.018C318.269 207.714 319.013 207.562 319.797 207.562ZM346.868 221L344.805 218.936C344.005 219.736 343.133 220.336 342.189 220.736C341.245 221.12 340.189 221.312 339.022 221.312C337.838 221.312 336.79 221.104 335.878 220.688C334.966 220.272 334.262 219.68 333.767 218.912C333.271 218.129 333.023 217.225 333.023 216.201C333.023 215.049 333.351 214.025 334.007 213.129C334.662 212.218 335.638 211.498 336.934 210.97C336.47 210.41 336.142 209.89 335.95 209.41C335.758 208.914 335.662 208.37 335.662 207.778C335.662 207.043 335.846 206.387 336.214 205.811C336.598 205.235 337.142 204.779 337.846 204.443C338.55 204.107 339.366 203.939 340.293 203.939C341.237 203.939 342.037 204.123 342.693 204.491C343.365 204.843 343.861 205.331 344.181 205.955C344.517 206.579 344.653 207.274 344.589 208.042H341.853C341.869 207.45 341.725 206.995 341.421 206.675C341.117 206.339 340.701 206.171 340.173 206.171C339.646 206.171 339.214 206.331 338.878 206.651C338.558 206.955 338.398 207.33 338.398 207.778C338.398 208.21 338.518 208.642 338.758 209.074C339.014 209.49 339.454 210.034 340.077 210.706L344.493 215.097L346.196 212.29H349.148L346.988 215.985L346.388 216.969L350.444 221H346.868ZM339.022 218.984C340.525 218.984 341.853 218.368 343.005 217.137L338.59 212.697C336.702 213.449 335.758 214.585 335.758 216.105C335.758 216.921 336.062 217.609 336.67 218.169C337.278 218.712 338.062 218.984 339.022 218.984ZM78.5633 241.329C78.5633 240.001 78.8352 238.826 79.3791 237.802C79.939 236.778 80.6909 235.986 81.6347 235.426C82.5946 234.85 83.6504 234.562 84.8022 234.562C85.842 234.562 86.7458 234.77 87.5137 235.186C88.2975 235.586 88.9214 236.09 89.3853 236.698V234.778H92.1448V248H89.3853V246.032C88.9214 246.656 88.2895 247.176 87.4897 247.592C86.6898 248.008 85.778 248.216 84.7542 248.216C83.6184 248.216 82.5786 247.928 81.6347 247.352C80.6909 246.76 79.939 245.944 79.3791 244.905C78.8352 243.849 78.5633 242.657 78.5633 241.329ZM89.3853 241.377C89.3853 240.465 89.1934 239.674 88.8094 239.002C88.4415 238.33 87.9536 237.818 87.3457 237.466C86.7378 237.114 86.0819 236.938 85.3781 236.938C84.6742 236.938 84.0183 237.114 83.4104 237.466C82.8025 237.802 82.3066 238.306 81.9227 238.978C81.5547 239.634 81.3708 240.417 81.3708 241.329C81.3708 242.241 81.5547 243.041 81.9227 243.729C82.3066 244.417 82.8025 244.945 83.4104 245.312C84.0343 245.664 84.6902 245.84 85.3781 245.84C86.0819 245.84 86.7378 245.664 87.3457 245.312C87.9536 244.961 88.4415 244.449 88.8094 243.777C89.1934 243.089 89.3853 242.289 89.3853 241.377ZM94.3461 241.377C94.3461 240.017 94.618 238.826 95.1619 237.802C95.7218 236.762 96.4897 235.962 97.4655 235.402C98.4413 234.842 99.5611 234.562 100.825 234.562C102.425 234.562 103.744 234.946 104.784 235.714C105.84 236.466 106.552 237.546 106.92 238.954H103.968C103.728 238.298 103.344 237.786 102.817 237.418C102.289 237.05 101.625 236.866 100.825 236.866C99.7051 236.866 98.8093 237.266 98.1374 238.066C97.4815 238.85 97.1536 239.953 97.1536 241.377C97.1536 242.801 97.4815 243.913 98.1374 244.713C98.8093 245.512 99.7051 245.912 100.825 245.912C102.409 245.912 103.456 245.217 103.968 243.825H106.92C106.536 245.169 105.816 246.24 104.76 247.04C103.704 247.824 102.393 248.216 100.825 248.216C99.5611 248.216 98.4413 247.936 97.4655 247.376C96.4897 246.8 95.7218 246 95.1619 244.977C94.618 243.937 94.3461 242.737 94.3461 241.377ZM108.254 241.329C108.254 240.001 108.526 238.826 109.07 237.802C109.63 236.778 110.382 235.986 111.326 235.426C112.285 234.85 113.349 234.562 114.517 234.562C115.541 234.562 116.445 234.77 117.229 235.186C118.028 235.602 118.644 236.106 119.076 236.698V234.778H121.836V254.287H119.076V246.08C118.644 246.672 118.02 247.176 117.205 247.592C116.389 248.008 115.461 248.216 114.421 248.216C113.285 248.216 112.245 247.928 111.302 247.352C110.374 246.76 109.63 245.944 109.07 244.905C108.526 243.849 108.254 242.657 108.254 241.329ZM119.076 241.377C119.076 240.465 118.884 239.674 118.5 239.002C118.132 238.33 117.644 237.818 117.037 237.466C116.429 237.114 115.773 236.938 115.069 236.938C114.365 236.938 113.709 237.114 113.101 237.466C112.493 237.802 111.998 238.306 111.614 238.978C111.246 239.634 111.062 240.417 111.062 241.329C111.062 242.241 111.246 243.041 111.614 243.729C111.998 244.417 112.493 244.945 113.101 245.312C113.725 245.664 114.381 245.84 115.069 245.84C115.773 245.84 116.429 245.664 117.037 245.312C117.644 244.961 118.132 244.449 118.5 243.777C118.884 243.089 119.076 242.289 119.076 241.377ZM136.923 234.778V248H134.187V246.44C133.755 246.984 133.187 247.416 132.483 247.736C131.796 248.04 131.06 248.192 130.276 248.192C129.236 248.192 128.3 247.976 127.468 247.544C126.652 247.112 126.005 246.472 125.525 245.624C125.061 244.777 124.829 243.753 124.829 242.553V234.778H127.54V242.145C127.54 243.329 127.836 244.241 128.428 244.881C129.02 245.504 129.828 245.816 130.852 245.816C131.876 245.816 132.683 245.504 133.275 244.881C133.883 244.241 134.187 243.329 134.187 242.145V234.778H136.923ZM141.444 233.027C140.948 233.027 140.532 232.859 140.196 232.523C139.86 232.187 139.692 231.771 139.692 231.275C139.692 230.779 139.86 230.363 140.196 230.027C140.532 229.691 140.948 229.523 141.444 229.523C141.924 229.523 142.332 229.691 142.668 230.027C143.003 230.363 143.171 230.779 143.171 231.275C143.171 231.771 143.003 232.187 142.668 232.523C142.332 232.859 141.924 233.027 141.444 233.027ZM142.788 234.778V248H140.052V234.778H142.788ZM148.635 236.698C149.035 236.026 149.562 235.506 150.218 235.138C150.89 234.754 151.682 234.562 152.594 234.562V237.394H151.898C150.826 237.394 150.01 237.666 149.45 238.21C148.907 238.754 148.635 239.697 148.635 241.041V248H145.899V234.778H148.635V236.698ZM166.746 241.065C166.746 241.561 166.714 242.009 166.65 242.409H156.548C156.628 243.465 157.02 244.313 157.724 244.953C158.428 245.592 159.292 245.912 160.315 245.912C161.787 245.912 162.827 245.296 163.435 244.065H166.386C165.986 245.28 165.259 246.28 164.203 247.064C163.163 247.832 161.867 248.216 160.315 248.216C159.052 248.216 157.916 247.936 156.908 247.376C155.916 246.8 155.132 246 154.556 244.977C153.997 243.937 153.717 242.737 153.717 241.377C153.717 240.017 153.989 238.826 154.532 237.802C155.092 236.762 155.868 235.962 156.86 235.402C157.868 234.842 159.02 234.562 160.315 234.562C161.563 234.562 162.675 234.834 163.651 235.378C164.627 235.922 165.387 236.69 165.93 237.682C166.474 238.658 166.746 239.785 166.746 241.065ZM163.891 240.201C163.875 239.194 163.515 238.386 162.811 237.778C162.107 237.17 161.235 236.866 160.195 236.866C159.252 236.866 158.444 237.17 157.772 237.778C157.1 238.37 156.7 239.178 156.572 240.201H163.891ZM177.903 237.01V244.329C177.903 244.825 178.015 245.185 178.239 245.408C178.479 245.616 178.879 245.72 179.439 245.72H181.119V248H178.959C177.727 248 176.783 247.712 176.127 247.136C175.472 246.56 175.144 245.624 175.144 244.329V237.01H173.584V234.778H175.144V231.491H177.903V234.778H181.119V237.01H177.903ZM184.552 233.027C184.056 233.027 183.64 232.859 183.304 232.523C182.968 232.187 182.8 231.771 182.8 231.275C182.8 230.779 182.968 230.363 183.304 230.027C183.64 229.691 184.056 229.523 184.552 229.523C185.032 229.523 185.439 229.691 185.775 230.027C186.111 230.363 186.279 230.779 186.279 231.275C186.279 231.771 186.111 232.187 185.775 232.523C185.439 232.859 185.032 233.027 184.552 233.027ZM185.895 234.778V248H183.16V234.778H185.895ZM191.742 236.722C192.206 236.114 192.838 235.602 193.638 235.186C194.438 234.77 195.342 234.562 196.35 234.562C197.501 234.562 198.549 234.85 199.493 235.426C200.453 235.986 201.205 236.778 201.749 237.802C202.293 238.826 202.564 240.001 202.564 241.329C202.564 242.657 202.293 243.849 201.749 244.905C201.205 245.944 200.453 246.76 199.493 247.352C198.549 247.928 197.501 248.216 196.35 248.216C195.342 248.216 194.446 248.016 193.662 247.616C192.878 247.2 192.238 246.688 191.742 246.08V254.287H189.007V234.778H191.742V236.722ZM199.781 241.329C199.781 240.417 199.589 239.634 199.205 238.978C198.837 238.306 198.341 237.802 197.717 237.466C197.109 237.114 196.454 236.938 195.75 236.938C195.062 236.938 194.406 237.114 193.782 237.466C193.174 237.818 192.678 238.33 192.294 239.002C191.926 239.674 191.742 240.465 191.742 241.377C191.742 242.289 191.926 243.089 192.294 243.777C192.678 244.449 193.174 244.961 193.782 245.312C194.406 245.664 195.062 245.84 195.75 245.84C196.454 245.84 197.109 245.664 197.717 245.312C198.341 244.945 198.837 244.417 199.205 243.729C199.589 243.041 199.781 242.241 199.781 241.329ZM209.589 248.216C208.549 248.216 207.613 248.032 206.781 247.664C205.966 247.28 205.318 246.768 204.838 246.128C204.358 245.472 204.102 244.745 204.07 243.945H206.901C206.949 244.505 207.213 244.977 207.693 245.36C208.189 245.728 208.805 245.912 209.541 245.912C210.309 245.912 210.901 245.768 211.317 245.48C211.748 245.177 211.964 244.793 211.964 244.329C211.964 243.833 211.724 243.465 211.245 243.225C210.781 242.985 210.037 242.721 209.013 242.433C208.021 242.161 207.213 241.897 206.589 241.641C205.966 241.385 205.422 240.993 204.958 240.465C204.51 239.937 204.286 239.242 204.286 238.378C204.286 237.674 204.494 237.034 204.91 236.458C205.326 235.866 205.918 235.402 206.685 235.066C207.469 234.73 208.365 234.562 209.373 234.562C210.877 234.562 212.084 234.946 212.996 235.714C213.924 236.466 214.42 237.498 214.484 238.81H211.748C211.7 238.218 211.461 237.746 211.029 237.394C210.597 237.042 210.013 236.866 209.277 236.866C208.557 236.866 208.005 237.002 207.621 237.274C207.237 237.546 207.045 237.906 207.045 238.354C207.045 238.706 207.173 239.002 207.429 239.242C207.685 239.482 207.997 239.674 208.365 239.817C208.733 239.945 209.277 240.113 209.997 240.321C210.957 240.577 211.74 240.841 212.348 241.113C212.972 241.369 213.508 241.753 213.956 242.265C214.404 242.777 214.636 243.457 214.652 244.305C214.652 245.057 214.444 245.728 214.028 246.32C213.612 246.912 213.02 247.376 212.252 247.712C211.501 248.048 210.613 248.216 209.589 248.216ZM226.073 237.01V244.329C226.073 244.825 226.185 245.185 226.409 245.408C226.648 245.616 227.048 245.72 227.608 245.72H229.288V248H227.128C225.897 248 224.953 247.712 224.297 247.136C223.641 246.56 223.313 245.624 223.313 244.329V237.01H221.753V234.778H223.313V231.491H226.073V234.778H229.288V237.01H226.073ZM237.064 248.216C235.816 248.216 234.689 247.936 233.681 247.376C232.673 246.8 231.881 246 231.305 244.977C230.729 243.937 230.441 242.737 230.441 241.377C230.441 240.033 230.737 238.842 231.329 237.802C231.921 236.762 232.729 235.962 233.753 235.402C234.777 234.842 235.92 234.562 237.184 234.562C238.448 234.562 239.592 234.842 240.616 235.402C241.639 235.962 242.447 236.762 243.039 237.802C243.631 238.842 243.927 240.033 243.927 241.377C243.927 242.721 243.623 243.913 243.015 244.953C242.407 245.992 241.575 246.8 240.52 247.376C239.48 247.936 238.328 248.216 237.064 248.216ZM237.064 245.84C237.768 245.84 238.424 245.672 239.032 245.336C239.656 245.001 240.16 244.497 240.544 243.825C240.928 243.153 241.12 242.337 241.12 241.377C241.12 240.417 240.936 239.61 240.568 238.954C240.2 238.282 239.712 237.778 239.104 237.442C238.496 237.106 237.84 236.938 237.136 236.938C236.432 236.938 235.777 237.106 235.169 237.442C234.577 237.778 234.105 238.282 233.753 238.954C233.401 239.61 233.225 240.417 233.225 241.377C233.225 242.801 233.585 243.905 234.305 244.689C235.041 245.456 235.96 245.84 237.064 245.84ZM250.993 241.377C250.993 240.017 251.265 238.826 251.809 237.802C252.369 236.762 253.136 235.962 254.112 235.402C255.088 234.842 256.208 234.562 257.472 234.562C259.071 234.562 260.391 234.946 261.431 235.714C262.487 236.466 263.199 237.546 263.567 238.954H260.615C260.375 238.298 259.991 237.786 259.463 237.418C258.935 237.05 258.272 236.866 257.472 236.866C256.352 236.866 255.456 237.266 254.784 238.066C254.128 238.85 253.8 239.953 253.8 241.377C253.8 242.801 254.128 243.913 254.784 244.713C255.456 245.512 256.352 245.912 257.472 245.912C259.055 245.912 260.103 245.217 260.615 243.825H263.567C263.183 245.169 262.463 246.24 261.407 247.04C260.351 247.824 259.039 248.216 257.472 248.216C256.208 248.216 255.088 247.936 254.112 247.376C253.136 246.8 252.369 246 251.809 244.977C251.265 243.937 250.993 242.737 250.993 241.377ZM271.548 248.216C270.3 248.216 269.172 247.936 268.164 247.376C267.157 246.8 266.365 246 265.789 244.977C265.213 243.937 264.925 242.737 264.925 241.377C264.925 240.033 265.221 238.842 265.813 237.802C266.405 236.762 267.213 235.962 268.236 235.402C269.26 234.842 270.404 234.562 271.668 234.562C272.932 234.562 274.075 234.842 275.099 235.402C276.123 235.962 276.931 236.762 277.523 237.802C278.115 238.842 278.411 240.033 278.411 241.377C278.411 242.721 278.107 243.913 277.499 244.953C276.891 245.992 276.059 246.8 275.003 247.376C273.963 247.936 272.812 248.216 271.548 248.216ZM271.548 245.84C272.252 245.84 272.908 245.672 273.515 245.336C274.139 245.001 274.643 244.497 275.027 243.825C275.411 243.153 275.603 242.337 275.603 241.377C275.603 240.417 275.419 239.61 275.051 238.954C274.683 238.282 274.195 237.778 273.587 237.442C272.979 237.106 272.324 236.938 271.62 236.938C270.916 236.938 270.26 237.106 269.652 237.442C269.06 237.778 268.588 238.282 268.236 238.954C267.884 239.61 267.708 240.417 267.708 241.377C267.708 242.801 268.068 243.905 268.788 244.689C269.524 245.456 270.444 245.84 271.548 245.84ZM287.306 234.562C288.345 234.562 289.273 234.778 290.089 235.21C290.921 235.642 291.569 236.282 292.033 237.13C292.497 237.978 292.729 239.002 292.729 240.201V248H290.017V240.609C290.017 239.426 289.721 238.522 289.129 237.898C288.537 237.258 287.73 236.938 286.706 236.938C285.682 236.938 284.866 237.258 284.258 237.898C283.666 238.522 283.37 239.426 283.37 240.609V248H280.635V234.778H283.37V236.29C283.818 235.746 284.386 235.322 285.074 235.018C285.778 234.714 286.522 234.562 287.306 234.562ZM294.826 241.329C294.826 240.001 295.098 238.826 295.642 237.802C296.202 236.778 296.954 235.986 297.898 235.426C298.857 234.85 299.921 234.562 301.089 234.562C302.113 234.562 303.017 234.77 303.801 235.186C304.6 235.602 305.216 236.106 305.648 236.698V234.778H308.408V254.287H305.648V246.08C305.216 246.672 304.592 247.176 303.777 247.592C302.961 248.008 302.033 248.216 300.993 248.216C299.857 248.216 298.817 247.928 297.874 247.352C296.946 246.76 296.202 245.944 295.642 244.905C295.098 243.849 294.826 242.657 294.826 241.329ZM305.648 241.377C305.648 240.465 305.456 239.674 305.072 239.002C304.704 238.33 304.216 237.818 303.609 237.466C303.001 237.114 302.345 236.938 301.641 236.938C300.937 236.938 300.281 237.114 299.673 237.466C299.065 237.802 298.569 238.306 298.186 238.978C297.818 239.634 297.634 240.417 297.634 241.329C297.634 242.241 297.818 243.041 298.186 243.729C298.569 244.417 299.065 244.945 299.673 245.312C300.297 245.664 300.953 245.84 301.641 245.84C302.345 245.84 303.001 245.664 303.609 245.312C304.216 244.961 304.704 244.449 305.072 243.777C305.456 243.089 305.648 242.289 305.648 241.377ZM323.495 234.778V248H320.759V246.44C320.327 246.984 319.759 247.416 319.055 247.736C318.368 248.04 317.632 248.192 316.848 248.192C315.808 248.192 314.872 247.976 314.04 247.544C313.224 247.112 312.577 246.472 312.097 245.624C311.633 244.777 311.401 243.753 311.401 242.553V234.778H314.112V242.145C314.112 243.329 314.408 244.241 315 244.881C315.592 245.504 316.4 245.816 317.424 245.816C318.448 245.816 319.255 245.504 319.847 244.881C320.455 244.241 320.759 243.329 320.759 242.145V234.778H323.495ZM338.742 241.065C338.742 241.561 338.71 242.009 338.646 242.409H328.544C328.624 243.465 329.016 244.313 329.719 244.953C330.423 245.592 331.287 245.912 332.311 245.912C333.783 245.912 334.823 245.296 335.43 244.065H338.382C337.982 245.28 337.254 246.28 336.198 247.064C335.158 247.832 333.863 248.216 332.311 248.216C331.047 248.216 329.911 247.936 328.904 247.376C327.912 246.8 327.128 246 326.552 244.977C325.992 243.937 325.712 242.737 325.712 241.377C325.712 240.017 325.984 238.826 326.528 237.802C327.088 236.762 327.864 235.962 328.856 235.402C329.863 234.842 331.015 234.562 332.311 234.562C333.559 234.562 334.671 234.834 335.646 235.378C336.622 235.922 337.382 236.69 337.926 237.682C338.47 238.658 338.742 239.785 338.742 241.065ZM335.886 240.201C335.87 239.194 335.51 238.386 334.807 237.778C334.103 237.17 333.231 236.866 332.191 236.866C331.247 236.866 330.439 237.17 329.767 237.778C329.096 238.37 328.696 239.178 328.568 240.201H335.886ZM343.689 236.698C344.089 236.026 344.617 235.506 345.273 235.138C345.945 234.754 346.737 234.562 347.649 234.562V237.394H346.953C345.881 237.394 345.065 237.666 344.505 238.21C343.961 238.754 343.689 239.697 343.689 241.041V248H340.954V234.778H343.689V236.698ZM129.629 264.01V271.329C129.629 271.825 129.741 272.185 129.965 272.408C130.205 272.616 130.605 272.72 131.165 272.72H132.845V275H130.685C129.453 275 128.509 274.712 127.853 274.136C127.198 273.56 126.87 272.624 126.87 271.329V264.01H125.31V261.778H126.87V258.491H129.629V261.778H132.845V264.01H129.629ZM141.725 261.562C142.733 261.562 143.628 261.778 144.412 262.21C145.212 262.642 145.836 263.282 146.284 264.13C146.748 264.978 146.98 266.002 146.98 267.201V275H144.268V267.609C144.268 266.426 143.972 265.522 143.38 264.898C142.788 264.258 141.981 263.938 140.957 263.938C139.933 263.938 139.117 264.258 138.509 264.898C137.917 265.522 137.621 266.426 137.621 267.609V275H134.886V257.243H137.621V263.314C138.085 262.754 138.669 262.322 139.373 262.018C140.093 261.714 140.877 261.562 141.725 261.562ZM162.107 268.065C162.107 268.561 162.075 269.009 162.011 269.409H151.909C151.989 270.465 152.381 271.313 153.085 271.953C153.788 272.592 154.652 272.912 155.676 272.912C157.148 272.912 158.188 272.296 158.796 271.065H161.747C161.347 272.28 160.619 273.28 159.563 274.064C158.524 274.832 157.228 275.216 155.676 275.216C154.412 275.216 153.277 274.936 152.269 274.376C151.277 273.8 150.493 273 149.917 271.977C149.357 270.937 149.077 269.737 149.077 268.377C149.077 267.017 149.349 265.826 149.893 264.802C150.453 263.762 151.229 262.962 152.221 262.402C153.229 261.842 154.38 261.562 155.676 261.562C156.924 261.562 158.036 261.834 159.012 262.378C159.987 262.922 160.747 263.69 161.291 264.682C161.835 265.658 162.107 266.785 162.107 268.065ZM159.251 267.201C159.235 266.194 158.876 265.386 158.172 264.778C157.468 264.17 156.596 263.866 155.556 263.866C154.612 263.866 153.804 264.17 153.133 264.778C152.461 265.37 152.061 266.178 151.933 267.201H159.251ZM176.911 261.562C177.919 261.562 178.815 261.778 179.599 262.21C180.399 262.642 181.022 263.282 181.47 264.13C181.934 264.978 182.166 266.002 182.166 267.201V275H179.455V267.609C179.455 266.426 179.159 265.522 178.567 264.898C177.975 264.258 177.167 263.938 176.143 263.938C175.119 263.938 174.304 264.258 173.696 264.898C173.104 265.522 172.808 266.426 172.808 267.609V275H170.072V257.243H172.808V263.314C173.272 262.754 173.856 262.322 174.56 262.018C175.279 261.714 176.063 261.562 176.911 261.562ZM184.264 268.329C184.264 267.001 184.536 265.826 185.08 264.802C185.64 263.778 186.391 262.986 187.335 262.426C188.295 261.85 189.351 261.562 190.503 261.562C191.542 261.562 192.446 261.77 193.214 262.186C193.998 262.586 194.622 263.09 195.086 263.698V261.778H197.845V275H195.086V273.032C194.622 273.656 193.99 274.176 193.19 274.592C192.39 275.008 191.478 275.216 190.455 275.216C189.319 275.216 188.279 274.928 187.335 274.352C186.391 273.76 185.64 272.944 185.08 271.905C184.536 270.849 184.264 269.657 184.264 268.329ZM195.086 268.377C195.086 267.465 194.894 266.674 194.51 266.002C194.142 265.33 193.654 264.818 193.046 264.466C192.438 264.114 191.782 263.938 191.079 263.938C190.375 263.938 189.719 264.114 189.111 264.466C188.503 264.802 188.007 265.306 187.623 265.978C187.255 266.634 187.071 267.417 187.071 268.329C187.071 269.241 187.255 270.041 187.623 270.729C188.007 271.417 188.503 271.945 189.111 272.312C189.735 272.664 190.391 272.84 191.079 272.84C191.782 272.84 192.438 272.664 193.046 272.312C193.654 271.961 194.142 271.449 194.51 270.777C194.894 270.089 195.086 269.289 195.086 268.377ZM200.047 268.377C200.047 267.017 200.318 265.826 200.862 264.802C201.422 263.762 202.19 262.962 203.166 262.402C204.142 261.842 205.262 261.562 206.525 261.562C208.125 261.562 209.445 261.946 210.485 262.714C211.54 263.466 212.252 264.546 212.62 265.954H209.669C209.429 265.298 209.045 264.786 208.517 264.418C207.989 264.05 207.325 263.866 206.525 263.866C205.406 263.866 204.51 264.266 203.838 265.066C203.182 265.85 202.854 266.953 202.854 268.377C202.854 269.801 203.182 270.913 203.838 271.713C204.51 272.512 205.406 272.912 206.525 272.912C208.109 272.912 209.157 272.217 209.669 270.825H212.62C212.236 272.169 211.516 273.24 210.461 274.04C209.405 274.824 208.093 275.216 206.525 275.216C205.262 275.216 204.142 274.936 203.166 274.376C202.19 273.8 201.422 273 200.862 271.977C200.318 270.937 200.047 269.737 200.047 268.377ZM220.098 268.401L226.192 275H222.497L217.602 269.313V275H214.866V257.243H217.602V267.561L222.401 261.778H226.192L220.098 268.401ZM226.761 268.329C226.761 267.001 227.033 265.826 227.577 264.802C228.137 263.778 228.889 262.986 229.833 262.426C230.793 261.85 231.848 261.562 233 261.562C234.04 261.562 234.944 261.77 235.712 262.186C236.496 262.586 237.12 263.09 237.583 263.698V261.778H240.343V275H237.583V273.032C237.12 273.656 236.488 274.176 235.688 274.592C234.888 275.008 233.976 275.216 232.952 275.216C231.816 275.216 230.777 274.928 229.833 274.352C228.889 273.76 228.137 272.944 227.577 271.905C227.033 270.849 226.761 269.657 226.761 268.329ZM237.583 268.377C237.583 267.465 237.391 266.674 237.008 266.002C236.64 265.33 236.152 264.818 235.544 264.466C234.936 264.114 234.28 263.938 233.576 263.938C232.872 263.938 232.216 264.114 231.609 264.466C231.001 264.802 230.505 265.306 230.121 265.978C229.753 266.634 229.569 267.417 229.569 268.329C229.569 269.241 229.753 270.041 230.121 270.729C230.505 271.417 231.001 271.945 231.609 272.312C232.232 272.664 232.888 272.84 233.576 272.84C234.28 272.84 234.936 272.664 235.544 272.312C236.152 271.961 236.64 271.449 237.008 270.777C237.391 270.089 237.583 269.289 237.583 268.377ZM246.647 264.01V271.329C246.647 271.825 246.759 272.185 246.983 272.408C247.223 272.616 247.623 272.72 248.183 272.72H249.863V275H247.703C246.471 275 245.528 274.712 244.872 274.136C244.216 273.56 243.888 272.624 243.888 271.329V264.01H242.328V261.778H243.888V258.491H246.647V261.778H249.863V264.01H246.647ZM258.743 261.562C259.751 261.562 260.647 261.778 261.43 262.21C262.23 262.642 262.854 263.282 263.302 264.13C263.766 264.978 263.998 266.002 263.998 267.201V275H261.287V267.609C261.287 266.426 260.991 265.522 260.399 264.898C259.807 264.258 258.999 263.938 257.975 263.938C256.951 263.938 256.135 264.258 255.528 264.898C254.936 265.522 254.64 266.426 254.64 267.609V275H251.904V257.243H254.64V263.314C255.104 262.754 255.688 262.322 256.391 262.018C257.111 261.714 257.895 261.562 258.743 261.562ZM272.742 275.216C271.495 275.216 270.367 274.936 269.359 274.376C268.351 273.8 267.559 273 266.983 271.977C266.408 270.937 266.12 269.737 266.12 268.377C266.12 267.033 266.416 265.842 267.007 264.802C267.599 263.762 268.407 262.962 269.431 262.402C270.455 261.842 271.599 261.562 272.862 261.562C274.126 261.562 275.27 261.842 276.294 262.402C277.318 262.962 278.125 263.762 278.717 264.802C279.309 265.842 279.605 267.033 279.605 268.377C279.605 269.721 279.301 270.913 278.693 271.953C278.085 272.992 277.254 273.8 276.198 274.376C275.158 274.936 274.006 275.216 272.742 275.216ZM272.742 272.84C273.446 272.84 274.102 272.672 274.71 272.336C275.334 272.001 275.838 271.497 276.222 270.825C276.606 270.153 276.798 269.337 276.798 268.377C276.798 267.417 276.614 266.61 276.246 265.954C275.878 265.282 275.39 264.778 274.782 264.442C274.174 264.106 273.518 263.938 272.814 263.938C272.11 263.938 271.455 264.106 270.847 264.442C270.255 264.778 269.783 265.282 269.431 265.954C269.079 266.61 268.903 267.417 268.903 268.377C268.903 269.801 269.263 270.905 269.983 271.689C270.719 272.456 271.639 272.84 272.742 272.84ZM288.5 261.562C289.54 261.562 290.468 261.778 291.284 262.21C292.116 262.642 292.763 263.282 293.227 264.13C293.691 264.978 293.923 266.002 293.923 267.201V275H291.212V267.609C291.212 266.426 290.916 265.522 290.324 264.898C289.732 264.258 288.924 263.938 287.9 263.938C286.877 263.938 286.061 264.258 285.453 264.898C284.861 265.522 284.565 266.426 284.565 267.609V275H281.829V261.778H284.565V263.29C285.013 262.746 285.581 262.322 286.269 262.018C286.973 261.714 287.716 261.562 288.5 261.562ZM298.036 275.168C297.541 275.168 297.125 275 296.789 274.664C296.453 274.328 296.285 273.912 296.285 273.416C296.285 272.92 296.453 272.504 296.789 272.169C297.125 271.833 297.541 271.665 298.036 271.665C298.516 271.665 298.924 271.833 299.26 272.169C299.596 272.504 299.764 272.92 299.764 273.416C299.764 273.912 299.596 274.328 299.26 274.664C298.924 275 298.516 275.168 298.036 275.168Z" fill="#2E1D06"/>
</svg>
