<svg width="425" height="425" viewBox="0 0 425 425" fill="none" xmlns="http://www.w3.org/2000/svg">
<circle cx="212.5" cy="212.5" r="211.5" fill="#F4C33D" stroke="black" stroke-width="2"/>
<circle cx="211.929" cy="213.071" r="177.797" fill="#EB8D10" stroke="black" stroke-width="2"/>
<circle cx="212.5" cy="214.785" r="162.374" fill="#F4C33D" stroke="black" stroke-width="2"/>
<path d="M123.327 175.88C125.035 176.244 126.407 177.098 127.443 178.442C128.479 179.758 128.997 181.27 128.997 182.978C128.997 185.442 128.129 187.402 126.393 188.858C124.685 190.286 122.291 191 119.211 191H105.477V161.516H118.749C121.745 161.516 124.083 162.202 125.763 163.574C127.471 164.946 128.325 166.808 128.325 169.16C128.325 170.896 127.863 172.338 126.939 173.486C126.043 174.634 124.839 175.432 123.327 175.88ZM112.659 173.444H117.363C118.539 173.444 119.435 173.192 120.051 172.688C120.695 172.156 121.017 171.386 121.017 170.378C121.017 169.37 120.695 168.6 120.051 168.068C119.435 167.536 118.539 167.27 117.363 167.27H112.659V173.444ZM117.951 185.204C119.155 185.204 120.079 184.938 120.723 184.406C121.395 183.846 121.731 183.048 121.731 182.012C121.731 180.976 121.381 180.164 120.681 179.576C120.009 178.988 119.071 178.694 117.867 178.694H112.659V185.204H117.951ZM142.99 191.336C140.694 191.336 138.622 190.846 136.774 189.866C134.954 188.886 133.512 187.486 132.448 185.666C131.412 183.846 130.894 181.718 130.894 179.282C130.894 176.874 131.426 174.76 132.49 172.94C133.554 171.092 135.01 169.678 136.858 168.698C138.706 167.718 140.778 167.228 143.074 167.228C145.37 167.228 147.442 167.718 149.29 168.698C151.138 169.678 152.594 171.092 153.658 172.94C154.722 174.76 155.254 176.874 155.254 179.282C155.254 181.69 154.708 183.818 153.616 185.666C152.552 187.486 151.082 188.886 149.206 189.866C147.358 190.846 145.286 191.336 142.99 191.336ZM142.99 185.12C144.362 185.12 145.524 184.616 146.476 183.608C147.456 182.6 147.946 181.158 147.946 179.282C147.946 177.406 147.47 175.964 146.518 174.956C145.594 173.948 144.446 173.444 143.074 173.444C141.674 173.444 140.512 173.948 139.588 174.956C138.664 175.936 138.202 177.378 138.202 179.282C138.202 181.158 138.65 182.6 139.546 183.608C140.47 184.616 141.618 185.12 142.99 185.12ZM168.892 191.336C166.596 191.336 164.524 190.846 162.676 189.866C160.856 188.886 159.414 187.486 158.35 185.666C157.314 183.846 156.796 181.718 156.796 179.282C156.796 176.874 157.328 174.76 158.392 172.94C159.456 171.092 160.912 169.678 162.76 168.698C164.608 167.718 166.68 167.228 168.976 167.228C171.272 167.228 173.344 167.718 175.192 168.698C177.04 169.678 178.496 171.092 179.56 172.94C180.624 174.76 181.156 176.874 181.156 179.282C181.156 181.69 180.61 183.818 179.518 185.666C178.454 187.486 176.984 188.886 175.108 189.866C173.26 190.846 171.188 191.336 168.892 191.336ZM168.892 185.12C170.264 185.12 171.426 184.616 172.378 183.608C173.358 182.6 173.848 181.158 173.848 179.282C173.848 177.406 173.372 175.964 172.42 174.956C171.496 173.948 170.348 173.444 168.976 173.444C167.576 173.444 166.414 173.948 165.49 174.956C164.566 175.936 164.104 177.378 164.104 179.282C164.104 181.158 164.552 182.6 165.448 183.608C166.372 184.616 167.52 185.12 168.892 185.12ZM197.189 184.91V191H193.535C190.931 191 188.901 190.37 187.445 189.11C185.989 187.822 185.261 185.736 185.261 182.852V173.528H182.405V167.564H185.261V161.852H192.443V167.564H197.147V173.528H192.443V182.936C192.443 183.636 192.611 184.14 192.947 184.448C193.283 184.756 193.843 184.91 194.627 184.91H197.189ZM198.921 179.282C198.921 176.846 199.411 174.718 200.391 172.898C201.399 171.078 202.785 169.678 204.549 168.698C206.341 167.718 208.385 167.228 210.681 167.228C213.621 167.228 216.071 167.998 218.031 169.538C220.019 171.078 221.321 173.248 221.937 176.048H214.293C213.649 174.256 212.403 173.36 210.555 173.36C209.239 173.36 208.189 173.878 207.405 174.914C206.621 175.922 206.229 177.378 206.229 179.282C206.229 181.186 206.621 182.656 207.405 183.692C208.189 184.7 209.239 185.204 210.555 185.204C212.403 185.204 213.649 184.308 214.293 182.516H221.937C221.321 185.26 220.019 187.416 218.031 188.984C216.043 190.552 213.593 191.336 210.681 191.336C208.385 191.336 206.341 190.846 204.549 189.866C202.785 188.886 201.399 187.486 200.391 185.666C199.411 183.846 198.921 181.718 198.921 179.282ZM223.511 179.24C223.511 176.832 223.959 174.718 224.855 172.898C225.779 171.078 227.025 169.678 228.593 168.698C230.161 167.718 231.911 167.228 233.843 167.228C235.495 167.228 236.937 167.564 238.169 168.236C239.429 168.908 240.395 169.79 241.067 170.882V167.564H248.249V191H241.067V187.682C240.367 188.774 239.387 189.656 238.127 190.328C236.895 191 235.453 191.336 233.801 191.336C231.897 191.336 230.161 190.846 228.593 189.866C227.025 188.858 225.779 187.444 224.855 185.624C223.959 183.776 223.511 181.648 223.511 179.24ZM241.067 179.282C241.067 177.49 240.563 176.076 239.555 175.04C238.575 174.004 237.371 173.486 235.943 173.486C234.515 173.486 233.297 174.004 232.289 175.04C231.309 176.048 230.819 177.448 230.819 179.24C230.819 181.032 231.309 182.46 232.289 183.524C233.297 184.56 234.515 185.078 235.943 185.078C237.371 185.078 238.575 184.56 239.555 183.524C240.563 182.488 241.067 181.074 241.067 179.282ZM282.509 167.312C285.421 167.312 287.731 168.194 289.439 169.958C291.175 171.722 292.043 174.172 292.043 177.308V191H284.903V178.274C284.903 176.762 284.497 175.6 283.685 174.788C282.901 173.948 281.809 173.528 280.409 173.528C279.009 173.528 277.903 173.948 277.091 174.788C276.307 175.6 275.915 176.762 275.915 178.274V191H268.775V178.274C268.775 176.762 268.369 175.6 267.557 174.788C266.773 173.948 265.681 173.528 264.281 173.528C262.881 173.528 261.775 173.948 260.963 174.788C260.179 175.6 259.787 176.762 259.787 178.274V191H252.605V167.564H259.787V170.504C260.515 169.524 261.467 168.754 262.643 168.194C263.819 167.606 265.149 167.312 266.633 167.312C268.397 167.312 269.965 167.69 271.337 168.446C272.737 169.202 273.829 170.28 274.613 171.68C275.425 170.392 276.531 169.342 277.931 168.53C279.331 167.718 280.857 167.312 282.509 167.312ZM303.408 170.882C304.108 169.79 305.074 168.908 306.306 168.236C307.538 167.564 308.98 167.228 310.632 167.228C312.564 167.228 314.314 167.718 315.882 168.698C317.45 169.678 318.682 171.078 319.578 172.898C320.502 174.718 320.964 176.832 320.964 179.24C320.964 181.648 320.502 183.776 319.578 185.624C318.682 187.444 317.45 188.858 315.882 189.866C314.314 190.846 312.564 191.336 310.632 191.336C309.008 191.336 307.566 191 306.306 190.328C305.074 189.656 304.108 188.788 303.408 187.724V202.172H296.226V167.564H303.408V170.882ZM313.656 179.24C313.656 177.448 313.152 176.048 312.144 175.04C311.164 174.004 309.946 173.486 308.49 173.486C307.062 173.486 305.844 174.004 304.836 175.04C303.856 176.076 303.366 177.49 303.366 179.282C303.366 181.074 303.856 182.488 304.836 183.524C305.844 184.56 307.062 185.078 308.49 185.078C309.918 185.078 311.136 184.56 312.144 183.524C313.152 182.46 313.656 181.032 313.656 179.24ZM223.211 215.534H215.903V223.01H209.099V215.534H201.791V209.108H209.099V201.59H215.903V209.108H223.211V215.534ZM124.234 233.516V263H117.052V250.862H105.88V263H98.6984V233.516H105.88V245.066H117.052V233.516H124.234ZM127.151 251.24C127.151 248.832 127.599 246.718 128.495 244.898C129.419 243.078 130.665 241.678 132.233 240.698C133.801 239.718 135.551 239.228 137.483 239.228C139.135 239.228 140.577 239.564 141.809 240.236C143.069 240.908 144.035 241.79 144.707 242.882V239.564H151.889V263H144.707V259.682C144.007 260.774 143.027 261.656 141.767 262.328C140.535 263 139.093 263.336 137.441 263.336C135.537 263.336 133.801 262.846 132.233 261.866C130.665 260.858 129.419 259.444 128.495 257.624C127.599 255.776 127.151 253.648 127.151 251.24ZM144.707 251.282C144.707 249.49 144.203 248.076 143.195 247.04C142.215 246.004 141.011 245.486 139.583 245.486C138.155 245.486 136.937 246.004 135.929 247.04C134.949 248.048 134.459 249.448 134.459 251.24C134.459 253.032 134.949 254.46 135.929 255.524C136.937 256.56 138.155 257.078 139.583 257.078C141.011 257.078 142.215 256.56 143.195 255.524C144.203 254.488 144.707 253.074 144.707 251.282ZM154.817 251.282C154.817 248.846 155.307 246.718 156.287 244.898C157.295 243.078 158.681 241.678 160.445 240.698C162.237 239.718 164.281 239.228 166.577 239.228C169.517 239.228 171.967 239.998 173.927 241.538C175.915 243.078 177.217 245.248 177.833 248.048H170.189C169.545 246.256 168.299 245.36 166.451 245.36C165.135 245.36 164.085 245.878 163.301 246.914C162.517 247.922 162.125 249.378 162.125 251.282C162.125 253.186 162.517 254.656 163.301 255.692C164.085 256.7 165.135 257.204 166.451 257.204C168.299 257.204 169.545 256.308 170.189 254.516H177.833C177.217 257.26 175.915 259.416 173.927 260.984C171.939 262.552 169.489 263.336 166.577 263.336C164.281 263.336 162.237 262.846 160.445 261.866C158.681 260.886 157.295 259.486 156.287 257.666C155.307 255.846 154.817 253.718 154.817 251.282ZM195.157 263L188.017 253.172V263H180.835V231.92H188.017V249.098L195.115 239.564H203.977L194.233 251.324L204.061 263H195.157ZM204.53 251.24C204.53 248.832 204.978 246.718 205.874 244.898C206.798 243.078 208.044 241.678 209.612 240.698C211.18 239.718 212.93 239.228 214.862 239.228C216.514 239.228 217.956 239.564 219.188 240.236C220.448 240.908 221.414 241.79 222.086 242.882V239.564H229.268V263H222.086V259.682C221.386 260.774 220.406 261.656 219.146 262.328C217.914 263 216.472 263.336 214.82 263.336C212.916 263.336 211.18 262.846 209.612 261.866C208.044 260.858 206.798 259.444 205.874 257.624C204.978 255.776 204.53 253.648 204.53 251.24ZM222.086 251.282C222.086 249.49 221.582 248.076 220.574 247.04C219.594 246.004 218.39 245.486 216.962 245.486C215.534 245.486 214.316 246.004 213.308 247.04C212.328 248.048 211.838 249.448 211.838 251.24C211.838 253.032 212.328 254.46 213.308 255.524C214.316 256.56 215.534 257.078 216.962 257.078C218.39 257.078 219.594 256.56 220.574 255.524C221.582 254.488 222.086 253.074 222.086 251.282ZM246.685 256.91V263H243.031C240.427 263 238.397 262.37 236.941 261.11C235.485 259.822 234.757 257.736 234.757 254.852V245.528H231.901V239.564H234.757V233.852H241.939V239.564H246.643V245.528H241.939V254.936C241.939 255.636 242.107 256.14 242.443 256.448C242.779 256.756 243.339 256.91 244.123 256.91H246.685ZM264.252 239.312C266.94 239.312 269.096 240.208 270.72 242C272.344 243.764 273.156 246.2 273.156 249.308V263H266.016V250.274C266.016 248.706 265.61 247.488 264.798 246.62C263.986 245.752 262.894 245.318 261.522 245.318C260.15 245.318 259.058 245.752 258.246 246.62C257.434 247.488 257.028 248.706 257.028 250.274V263H249.846V231.92H257.028V242.714C257.756 241.678 258.75 240.852 260.01 240.236C261.27 239.62 262.684 239.312 264.252 239.312ZM287.975 263.336C285.679 263.336 283.607 262.846 281.759 261.866C279.939 260.886 278.497 259.486 277.433 257.666C276.397 255.846 275.879 253.718 275.879 251.282C275.879 248.874 276.411 246.76 277.475 244.94C278.539 243.092 279.995 241.678 281.843 240.698C283.691 239.718 285.763 239.228 288.059 239.228C290.355 239.228 292.427 239.718 294.275 240.698C296.123 241.678 297.579 243.092 298.643 244.94C299.707 246.76 300.239 248.874 300.239 251.282C300.239 253.69 299.693 255.818 298.601 257.666C297.537 259.486 296.067 260.886 294.191 261.866C292.343 262.846 290.271 263.336 287.975 263.336ZM287.975 257.12C289.347 257.12 290.509 256.616 291.461 255.608C292.441 254.6 292.931 253.158 292.931 251.282C292.931 249.406 292.455 247.964 291.503 246.956C290.579 245.948 289.431 245.444 288.059 245.444C286.659 245.444 285.497 245.948 284.573 246.956C283.649 247.936 283.187 249.378 283.187 251.282C283.187 253.158 283.635 254.6 284.531 255.608C285.455 256.616 286.603 257.12 287.975 257.12ZM317.489 239.312C320.233 239.312 322.417 240.208 324.041 242C325.693 243.764 326.519 246.2 326.519 249.308V263H319.379V250.274C319.379 248.706 318.973 247.488 318.161 246.62C317.349 245.752 316.257 245.318 314.885 245.318C313.513 245.318 312.421 245.752 311.609 246.62C310.797 247.488 310.391 248.706 310.391 250.274V263H303.209V239.564H310.391V242.672C311.119 241.636 312.099 240.824 313.331 240.236C314.563 239.62 315.949 239.312 317.489 239.312Z" fill="#2E1D06"/>
</svg>
