<svg preserveAspectRatio="none" width="1779" height="768" viewBox="0 0 1779 668" fill="none" xmlns="http://www.w3.org/2000/svg">
<g opacity="0.9">
<g filter="url(#filter0_d_0_1)">
<path d="M242.503 446.542L220.983 436.612L219.851 453.512L242.503 446.542Z" fill="#EFD650"/>
<path d="M241.149 466.766L219.629 456.836L218.496 473.736L241.149 466.766Z" fill="#EFD650"/>
<path fill-rule="evenodd" clip-rule="evenodd" d="M203.163 458.637C208.238 462.609 218.884 465.809 231.357 466.645C249.09 467.833 263.802 463.793 264.215 457.62C264.629 451.448 250.588 445.481 232.854 444.292C220.16 443.442 209.014 445.271 203.553 448.643L191.142 436.508L188.955 469.149L203.163 458.637Z" fill="#F4BF36"/>
<ellipse cx="2.66698" cy="2.13358" rx="2.66698" ry="2.13358" transform="matrix(-0.997763 -0.066858 -0.066858 0.997763 259.569 452.497)" fill="white"/>
<ellipse cx="1.39925" cy="1.17356" rx="1.39925" ry="1.17356" transform="matrix(-0.997837 -0.0657298 -0.0657298 0.997837 259.086 453.827)" fill="black"/>
<ellipse cx="0.732409" cy="0.614278" rx="0.732409" ry="0.614278" transform="matrix(-0.997837 -0.0657298 -0.0657298 0.997837 258.834 454.259)" fill="white"/>
<path fill-rule="evenodd" clip-rule="evenodd" d="M263.693 459.372C263.836 459.109 263.951 458.841 264.037 458.568C262.725 459.763 260.998 460.55 259.403 460.776C257.689 461.019 256.196 460.61 255.488 459.463L255.148 459.672C255.979 461.019 257.679 461.423 259.459 461.171C260.893 460.968 262.421 460.336 263.693 459.372Z" fill="black"/>
<path fill-rule="evenodd" clip-rule="evenodd" d="M243.449 466.587C243.309 463.749 243.222 459.761 243.494 455.697C243.779 451.443 244.391 448.097 244.877 445.97C243.683 445.712 242.449 445.477 241.182 445.267C240.479 447.343 239.542 450.845 239.236 455.411C238.949 459.701 239.286 463.919 239.636 466.79C240.94 466.752 242.213 466.684 243.449 466.587Z" fill="white"/>
<path fill-rule="evenodd" clip-rule="evenodd" d="M233.707 466.727C234.221 463.888 234.923 459.686 235.262 456.215C235.658 452.147 235.339 447.166 235.108 444.517C233.906 444.388 232.682 444.282 231.44 444.198C231.541 447.257 231.701 453.506 231.465 457.03C231.274 459.877 230.632 463.828 230.142 466.564C231.346 466.642 232.535 466.696 233.707 466.727Z" fill="white"/>
<path fill-rule="evenodd" clip-rule="evenodd" d="M224.724 465.985C225.153 460.605 225.923 450.529 225.851 448.456C225.799 446.977 225.916 445.318 226.04 444.062C224.805 444.067 223.593 444.098 222.41 444.154C221.561 446.832 220.555 452.147 221.196 461.509C221.301 463.057 221.389 464.369 221.462 465.475C222.525 465.663 223.613 465.833 224.724 465.985Z" fill="white"/>
<path fill-rule="evenodd" clip-rule="evenodd" d="M216.046 464.312C216.871 460.417 217.821 454.788 217.44 450.921C217.175 448.233 217.025 446.139 216.94 444.611C215.539 444.783 214.199 444.994 212.928 445.241C212.665 448.712 212.37 453.839 212.494 458.253C212.55 460.245 212.502 461.903 212.402 463.265C213.558 463.638 214.775 463.988 216.046 464.312Z" fill="white"/>
<path d="M201.629 450.219L193.991 444.539" stroke="black" stroke-width="0.39902"/>
<path d="M201.434 453.1L192.311 450.387" stroke="black" stroke-width="0.39902"/>
<path d="M201.372 455.682L191.854 455.609" stroke="black" stroke-width="0.39902"/>
<path d="M201.133 457.606L192.375 461.333" stroke="black" stroke-opacity="0.86" stroke-width="0.39902"/>
</g>
<g filter="url(#filter1_d_0_1)">
<path d="M311.534 537.452L290.013 527.522L288.881 544.422L311.534 537.452Z" fill="#EFD650"/>
<path d="M310.177 557.676L288.657 547.746L287.525 564.645L310.177 557.676Z" fill="#EFD650"/>
<path fill-rule="evenodd" clip-rule="evenodd" d="M272.19 549.545C277.265 553.518 287.91 556.718 300.383 557.553C318.117 558.742 332.828 554.701 333.241 548.529C333.655 542.356 319.614 536.389 301.881 535.201C289.186 534.35 278.04 536.179 272.579 539.551L260.168 527.416L257.981 560.058L272.19 549.545Z" fill="#F4BF36"/>
<ellipse cx="2.66698" cy="2.13358" rx="2.66698" ry="2.13358" transform="matrix(-0.997763 -0.066858 -0.066858 0.997763 328.598 543.407)" fill="white"/>
<ellipse cx="1.39925" cy="1.17356" rx="1.39925" ry="1.17356" transform="matrix(-0.997837 -0.0657298 -0.0657298 0.997837 328.115 544.737)" fill="black"/>
<ellipse cx="0.732409" cy="0.614278" rx="0.732409" ry="0.614278" transform="matrix(-0.997837 -0.0657298 -0.0657298 0.997837 327.862 545.168)" fill="white"/>
<path fill-rule="evenodd" clip-rule="evenodd" d="M332.717 550.286C332.86 550.023 332.976 549.755 333.062 549.482C331.751 550.675 330.026 551.46 328.433 551.686C326.719 551.929 325.225 551.52 324.517 550.373L324.178 550.582C325.008 551.929 326.708 552.333 328.489 552.081C329.92 551.878 331.447 551.247 332.717 550.286Z" fill="black"/>
<path fill-rule="evenodd" clip-rule="evenodd" d="M312.478 557.497C312.337 554.659 312.25 550.671 312.522 546.607C312.808 542.353 313.42 539.007 313.905 536.88C312.711 536.622 311.478 536.388 310.21 536.177C309.507 538.253 308.57 541.755 308.265 546.321C307.977 550.611 308.314 554.829 308.664 557.7C309.968 557.662 311.241 557.594 312.478 557.497Z" fill="white"/>
<path fill-rule="evenodd" clip-rule="evenodd" d="M302.733 557.635C303.248 554.796 303.949 550.595 304.288 547.123C304.685 543.055 304.365 538.075 304.134 535.425C302.932 535.297 301.708 535.19 300.467 535.107C300.568 538.166 300.727 544.415 300.491 547.938C300.3 550.786 299.658 554.736 299.168 557.472C300.372 557.55 301.562 557.604 302.733 557.635Z" fill="white"/>
<path fill-rule="evenodd" clip-rule="evenodd" d="M293.751 556.894C294.18 551.513 294.95 541.437 294.878 539.365C294.827 537.886 294.943 536.227 295.067 534.971C293.832 534.975 292.621 535.006 291.438 535.062C290.588 537.74 289.583 543.055 290.223 552.417C290.329 553.966 290.417 555.277 290.489 556.383C291.552 556.571 292.641 556.742 293.751 556.894Z" fill="white"/>
<path fill-rule="evenodd" clip-rule="evenodd" d="M285.075 555.223C285.899 551.327 286.85 545.698 286.469 541.832C286.204 539.144 286.053 537.05 285.968 535.521C284.568 535.694 283.227 535.904 281.956 536.151C281.693 539.622 281.399 544.749 281.522 549.163C281.578 551.155 281.531 552.814 281.431 554.175C282.586 554.548 283.804 554.899 285.075 555.223Z" fill="white"/>
<path d="M270.656 541.128L263.018 535.449" stroke="black" stroke-width="0.39902"/>
<path d="M270.465 544.009L261.341 541.297" stroke="black" stroke-width="0.39902"/>
<path d="M270.4 546.592L260.882 546.518" stroke="black" stroke-width="0.39902"/>
<path d="M270.162 548.514L261.403 552.241" stroke="black" stroke-opacity="0.86" stroke-width="0.39902"/>
</g>
<g filter="url(#filter2_d_0_1)">
<path d="M272.953 497.785L251.432 487.855L250.3 504.755L272.953 497.785Z" fill="#EF5350"/>
<path d="M271.596 518.008L250.076 508.079L248.944 524.978L271.596 518.008Z" fill="#EF5350"/>
<path fill-rule="evenodd" clip-rule="evenodd" d="M233.612 509.879C238.687 513.852 249.332 517.051 261.805 517.887C279.539 519.075 294.25 515.035 294.663 508.862C295.077 502.69 281.036 496.723 263.303 495.535C250.608 494.684 239.462 496.513 234.001 499.885L221.59 487.75L219.403 520.392L233.612 509.879Z" fill="#F44336"/>
<ellipse cx="2.66698" cy="2.13358" rx="2.66698" ry="2.13358" transform="matrix(-0.997763 -0.066858 -0.066858 0.997763 290.017 503.74)" fill="white"/>
<ellipse cx="1.39925" cy="1.17356" rx="1.39925" ry="1.17356" transform="matrix(-0.997837 -0.0657298 -0.0657298 0.997837 289.534 505.07)" fill="black"/>
<ellipse cx="0.732409" cy="0.614278" rx="0.732409" ry="0.614278" transform="matrix(-0.997837 -0.0657298 -0.0657298 0.997837 289.284 505.501)" fill="white"/>
<path fill-rule="evenodd" clip-rule="evenodd" d="M294.138 510.615C294.281 510.352 294.396 510.084 294.482 509.811C293.171 511.006 291.443 511.792 289.849 512.018C288.135 512.261 286.641 511.853 285.933 510.705L285.594 510.915C286.424 512.261 288.125 512.666 289.905 512.414C291.338 512.21 292.867 511.579 294.138 510.615Z" fill="black"/>
<path fill-rule="evenodd" clip-rule="evenodd" d="M273.9 517.829C273.759 514.991 273.672 511.003 273.944 506.939C274.229 502.685 274.841 499.34 275.327 497.212C274.133 496.955 272.9 496.72 271.632 496.509C270.929 498.586 269.992 502.088 269.686 506.654C269.399 510.943 269.736 515.161 270.086 518.032C271.39 517.994 272.663 517.926 273.9 517.829Z" fill="white"/>
<path fill-rule="evenodd" clip-rule="evenodd" d="M264.156 517.968C264.67 515.129 265.372 510.928 265.711 507.456C266.108 503.388 265.788 498.408 265.557 495.758C264.355 495.63 263.131 495.523 261.89 495.44C261.991 498.498 262.15 504.748 261.914 508.271C261.723 511.119 261.081 515.069 260.591 517.805C261.795 517.883 262.984 517.937 264.156 517.968Z" fill="white"/>
<path fill-rule="evenodd" clip-rule="evenodd" d="M255.171 517.228C255.6 511.847 256.37 501.771 256.298 499.699C256.247 498.22 256.363 496.561 256.487 495.305C255.252 495.31 254.041 495.341 252.858 495.396C252.008 498.075 251.003 503.389 251.643 512.751C251.749 514.3 251.837 515.611 251.909 516.717C252.972 516.905 254.061 517.076 255.171 517.228Z" fill="white"/>
<path fill-rule="evenodd" clip-rule="evenodd" d="M246.495 515.556C247.319 511.661 248.27 506.031 247.889 502.165C247.624 499.477 247.473 497.383 247.388 495.855C245.988 496.027 244.647 496.238 243.376 496.485C243.113 499.956 242.819 505.082 242.942 509.496C242.998 511.489 242.951 513.147 242.851 514.508C244.006 514.882 245.223 515.232 246.495 515.556Z" fill="white"/>
<path d="M232.076 501.461L224.438 495.782" stroke="black" stroke-width="0.39902"/>
<path d="M231.884 504.342L222.76 501.629" stroke="black" stroke-width="0.39902"/>
<path d="M231.819 506.925L222.301 506.852" stroke="black" stroke-width="0.39902"/>
<path d="M231.581 508.848L222.822 512.575" stroke="black" stroke-opacity="0.86" stroke-width="0.39902"/>
</g>
<g filter="url(#filter3_d_0_1)">
<path d="M236.867 547.21L215.346 537.28L214.214 554.179L236.867 547.21Z" fill="#EF5350"/>
<path d="M235.513 567.434L213.993 557.504L212.861 574.404L235.513 567.434Z" fill="#EF5350"/>
<path fill-rule="evenodd" clip-rule="evenodd" d="M197.529 559.304C202.603 563.276 213.249 566.476 225.722 567.312C243.455 568.5 258.167 564.46 258.58 558.287C258.994 552.115 244.953 546.148 227.22 544.959C214.525 544.109 203.379 545.938 197.918 549.31L185.507 537.175L183.32 569.816L197.529 559.304Z" fill="#F44336"/>
<ellipse cx="2.66698" cy="2.13358" rx="2.66698" ry="2.13358" transform="matrix(-0.997763 -0.066858 -0.066858 0.997763 253.932 553.165)" fill="white"/>
<ellipse cx="1.39925" cy="1.17356" rx="1.39925" ry="1.17356" transform="matrix(-0.997837 -0.0657298 -0.0657298 0.997837 253.449 554.494)" fill="black"/>
<ellipse cx="0.732409" cy="0.614278" rx="0.732409" ry="0.614278" transform="matrix(-0.997837 -0.0657298 -0.0657298 0.997837 253.198 554.926)" fill="white"/>
<path fill-rule="evenodd" clip-rule="evenodd" d="M258.057 560.04C258.2 559.777 258.315 559.509 258.401 559.236C257.09 560.431 255.363 561.217 253.769 561.443C252.055 561.686 250.561 561.277 249.854 560.13L249.514 560.339C250.344 561.686 252.045 562.09 253.825 561.838C255.258 561.635 256.786 561.003 258.057 560.04Z" fill="black"/>
<path fill-rule="evenodd" clip-rule="evenodd" d="M237.814 567.253C237.673 564.414 237.586 560.427 237.858 556.362C238.143 552.109 238.755 548.763 239.241 546.636C238.047 546.378 236.814 546.143 235.546 545.933C234.843 548.009 233.906 551.511 233.6 556.077C233.313 560.367 233.65 564.585 234 567.456C235.304 567.418 236.577 567.349 237.814 567.253Z" fill="white"/>
<path fill-rule="evenodd" clip-rule="evenodd" d="M228.072 567.394C228.586 564.555 229.288 560.353 229.627 556.882C230.023 552.814 229.704 547.834 229.473 545.184C228.271 545.055 227.047 544.949 225.805 544.865C225.906 547.924 226.066 554.173 225.83 557.697C225.639 560.544 224.997 564.495 224.507 567.231C225.711 567.309 226.9 567.363 228.072 567.394Z" fill="white"/>
<path fill-rule="evenodd" clip-rule="evenodd" d="M219.09 566.652C219.519 561.272 220.289 551.196 220.217 549.123C220.166 547.644 220.282 545.985 220.406 544.729C219.171 544.734 217.96 544.765 216.777 544.821C215.927 547.499 214.922 552.814 215.562 562.176C215.668 563.724 215.756 565.036 215.828 566.142C216.891 566.33 217.98 566.5 219.09 566.652Z" fill="white"/>
<path fill-rule="evenodd" clip-rule="evenodd" d="M210.411 564.981C211.236 561.086 212.187 555.456 211.805 551.59C211.541 548.901 211.39 546.807 211.305 545.279C209.905 545.451 208.564 545.662 207.293 545.909C207.03 549.38 206.735 554.507 206.859 558.921C206.915 560.914 206.868 562.572 206.768 563.933C207.923 564.307 209.14 564.657 210.411 564.981Z" fill="white"/>
<path d="M195.992 550.886L188.354 545.207" stroke="black" stroke-width="0.39902"/>
<path d="M195.801 553.767L186.677 551.055" stroke="black" stroke-width="0.39902"/>
<path d="M195.735 556.349L186.217 556.276" stroke="black" stroke-width="0.39902"/>
<path d="M195.5 558.272L186.741 561.999" stroke="black" stroke-opacity="0.86" stroke-width="0.39902"/>
</g>
<g filter="url(#filter4_d_0_1)">
<path d="M222.36 474.498L200.84 464.568L199.707 481.468L222.36 474.498Z" fill="#EF5350"/>
<path d="M221.003 494.722L199.483 484.792L198.351 501.691L221.003 494.722Z" fill="#EF5350"/>
<path fill-rule="evenodd" clip-rule="evenodd" d="M183.018 486.592C188.093 490.564 198.738 493.764 211.211 494.599C228.945 495.788 243.656 491.747 244.069 485.575C244.483 479.402 230.442 473.435 212.709 472.247C200.014 471.396 188.868 473.225 183.407 476.597L170.996 464.462L168.809 497.104L183.018 486.592Z" fill="#F44336"/>
<ellipse cx="2.66698" cy="2.13358" rx="2.66698" ry="2.13358" transform="matrix(-0.997763 -0.066858 -0.066858 0.997763 239.424 480.453)" fill="white"/>
<ellipse cx="1.39925" cy="1.17356" rx="1.39925" ry="1.17356" transform="matrix(-0.997837 -0.0657298 -0.0657298 0.997837 238.942 481.783)" fill="black"/>
<ellipse cx="0.732409" cy="0.614278" rx="0.732409" ry="0.614278" transform="matrix(-0.997837 -0.0657298 -0.0657298 0.997837 238.691 482.215)" fill="white"/>
<path fill-rule="evenodd" clip-rule="evenodd" d="M243.546 487.326C243.689 487.063 243.804 486.795 243.89 486.522C242.578 487.718 240.849 488.505 239.254 488.731C237.54 488.974 236.047 488.566 235.339 487.418L234.999 487.628C235.83 488.974 237.53 489.379 239.31 489.126C240.744 488.923 242.274 488.291 243.546 487.326Z" fill="black"/>
<path fill-rule="evenodd" clip-rule="evenodd" d="M223.307 494.541C223.166 491.703 223.079 487.715 223.352 483.651C223.637 479.397 224.249 476.052 224.734 473.924C223.54 473.667 222.307 473.432 221.039 473.221C220.336 475.298 219.4 478.8 219.094 483.366C218.806 487.655 219.143 491.873 219.493 494.744C220.798 494.706 222.071 494.638 223.307 494.541Z" fill="white"/>
<path fill-rule="evenodd" clip-rule="evenodd" d="M213.565 494.682C214.079 491.843 214.781 487.641 215.119 484.17C215.516 480.102 215.196 475.121 214.965 472.472C213.763 472.343 212.54 472.236 211.298 472.153C211.399 475.212 211.558 481.461 211.322 484.985C211.132 487.832 210.489 491.783 209.999 494.519C211.203 494.597 212.393 494.651 213.565 494.682Z" fill="white"/>
<path fill-rule="evenodd" clip-rule="evenodd" d="M204.58 493.94C205.009 488.559 205.779 478.483 205.707 476.411C205.656 474.932 205.772 473.273 205.897 472.017C204.661 472.022 203.45 472.053 202.267 472.109C201.417 474.787 200.412 480.102 201.052 489.464C201.158 491.012 201.246 492.323 201.318 493.43C202.381 493.618 203.47 493.788 204.58 493.94Z" fill="white"/>
<path fill-rule="evenodd" clip-rule="evenodd" d="M195.903 492.269C196.727 488.373 197.678 482.744 197.297 478.878C197.032 476.19 196.881 474.096 196.796 472.567C195.396 472.74 194.055 472.951 192.784 473.197C192.521 476.668 192.227 481.795 192.351 486.209C192.406 488.201 192.359 489.86 192.259 491.221C193.415 491.594 194.632 491.945 195.903 492.269Z" fill="white"/>
<path d="M181.485 478.175L173.847 472.495" stroke="black" stroke-width="0.39902"/>
<path d="M181.291 481.055L172.167 478.343" stroke="black" stroke-width="0.39902"/>
<path d="M181.229 483.637L171.71 483.564" stroke="black" stroke-width="0.39902"/>
<path d="M180.99 485.56L172.231 489.287" stroke="black" stroke-opacity="0.86" stroke-width="0.39902"/>
</g>
</g>
<path d="M1859.78 156.73C1850.67 132.114 1875.36 58.7225 1888.84 25.1038L1809.64 133.368C1745.86 148.869 1711.84 148.926 1655.79 133.368L1644.96 141.345C1662.74 181.915 1612.49 205.733 1585.13 212.571V251.318C1566.44 313.769 1523.78 289.495 1504.79 269.552L1534.99 333.371L1705.93 351.035C1722.69 276.315 1791.98 317.986 1786.28 345.907L1867.76 340.209C1823.31 317.986 1838.7 210.862 1844.4 197.186C1848.96 186.246 1836.42 176.673 1829.58 173.254C1843.45 178.003 1868.9 181.346 1859.78 156.73Z" fill="#5B6154"/>
<path d="M1685.99 371.548C1699.29 396.43 1746.05 448.7 1826.74 458.729" stroke="#393837" stroke-width="4.48554"/>
<path d="M1764.05 311.148C1775.64 349.895 1810.44 435.823 1856.93 469.555" stroke="#393837" stroke-width="4.48554"/>
<path d="M1255.79 692.351C1240.4 685.703 1220.8 669.103 1265.47 655.883C1321.31 639.359 1297.95 699.758 1255.79 692.351Z" fill="#425762"/>
<path d="M1733.86 690.072H1693.4C1675.74 676.396 1708.78 658.162 1733.86 667.279C1753.91 674.573 1742.21 685.513 1733.86 690.072Z" fill="#425762"/>
<path d="M1480.86 729.389V711.725L1546.96 674.687L1542.4 694.061L1480.86 729.389Z" fill="#AC732F"/>
<path d="M1483.71 736.227L1480.29 728.249L1542.4 693.491L1547.53 673.548L1551.52 686.083L1544.68 702.038L1483.71 736.227Z" fill="#6C4A25"/>
<path d="M1509.49 729.288L1517.41 713.503L1593.1 710.07L1580.34 725.337L1509.49 729.288Z" fill="#AC732F"/>
<path d="M1508.97 736.678L1509.49 728.014L1580.59 724.828L1594.13 709.308L1592.06 722.3L1578.79 733.489L1508.97 736.678Z" fill="#6C4A25"/>
<path d="M1448.01 647.787C1362.49 657.954 1365.28 626.356 1377.36 609.286L1448.01 550.974L1606.13 545.741V635.078C1589.06 635.078 1533.54 637.62 1448.01 647.787Z" fill="#3B2F21"/>
<path d="M1478.01 237.643C1464.33 239.01 1468.89 231.755 1472.88 227.956C1600.52 139.066 1897.39 -2.81693 1891.69 4.5906C1887.13 10.5166 1893.59 21.495 1897.39 26.2434C1768.61 48.466 1495.1 235.933 1478.01 237.643Z" fill="#774515"/>
<path d="M1329.86 490.068L1234.13 435.936C1563.48 490.068 1729.3 466.706 1803.94 466.706C1863.66 466.706 1886.56 500.895 1890.55 517.989L1329.86 490.068Z" fill="#3B2F21"/>
<path d="M1537.84 376.107C1523.71 373.827 1537.27 368.699 1545.82 366.42C1662.44 355.214 1891.8 335.308 1876.31 345.337C1860.81 355.366 1869.85 370.029 1876.31 376.107C1818.19 351.035 1555.5 378.956 1537.84 376.107Z" fill="#774515"/>
<path d="M1826.93 457.29C1573.44 480.995 1325.91 445.893 1233.83 425.379V438.485C1436.98 483.617 1705.49 478.184 1814.35 469.827L1880.69 506.866L1927.59 499.458L1826.93 457.29Z" fill="#483620"/>
<path d="M1717.9 2.88137L1601.66 507.733H1640.41C1666.24 364.521 1717.9 74.4494 1717.9 59.8623C1717.9 45.2752 1730.82 28.7127 1737.27 22.2549C1740.46 -4.18427 1725.69 -1.67711 1717.9 2.88137Z" fill="#774515"/>
<path d="M1387.98 698.049C1268.09 722.665 1199.37 511.151 1180 402.318H1213.62L1232.42 409.155L1238.12 439.925C1455.56 507.846 1787.61 510.391 1926.45 503.174L1864.34 619.415C1795.39 657.592 1569.75 693.49 1557.78 684.943C1548.21 678.105 1549.24 647.906 1550.95 633.66C1581.94 588.075 1571.08 573.64 1561.77 572.121C1554.18 573.26 1535.45 573.944 1521.32 567.562C1507.18 561.18 1473.26 564.903 1458.07 567.562L1497.95 575.54L1463.2 604.6C1444.96 606.423 1412.67 601.181 1398.81 598.332C1411.11 607.905 1408.87 625.873 1406.21 633.66C1407.16 632.141 1412.37 631.267 1425.59 639.928C1438.81 648.589 1415.14 659.872 1401.66 664.43L1387.98 698.049Z" fill="#AC732F"/>
<path d="M1387.98 698.049C1268.09 722.665 1199.37 511.151 1180 402.318H1213.62L1232.42 409.155L1238.12 439.925L1227.3 455.678C1236.59 528.239 1283.32 673.725 1395.86 675.18L1387.98 698.049Z" fill="#774515"/>
<path d="M1307.64 729.958C1266.8 723.69 1207.58 702.379 1297.38 667.279C1409.64 623.404 1354.08 744.203 1307.64 729.958Z" fill="#425762"/>
<path d="M1537.84 370.978C1494.53 345.907 1488.27 267.843 1490.54 231.945C1498.9 263.284 1526.44 321.861 1569.75 305.45C1613.05 289.04 1574.12 225.677 1549.24 196.047C1561.2 206.113 1594.48 222.942 1631.86 209.722C1669.24 196.502 1657.69 151.412 1647.24 130.519L1751.52 78.0961C1741.26 95.5703 1729.18 130.519 1762.91 130.519C1796.65 130.519 1822.93 70.1188 1831.86 39.9189L1891.69 26.8132C1848.96 74.1074 1851.81 113.994 1844.4 130.519C1838.47 143.738 1806.98 146.283 1791.98 145.903L1831.86 152.741C1820.47 166.872 1827.11 187.499 1831.86 196.047C1815 191.944 1798.24 203.454 1791.98 209.722H1826.73C1797.1 255.307 1848.2 317.606 1877.45 343.057L1801.09 348.186L1791.98 332.801C1836.65 298.156 1791.22 295.193 1762.91 298.043V271.831L1751.52 298.043C1692.71 309.895 1698.53 341.348 1708.78 355.593L1537.84 370.978Z" fill="#FFF9E4"/>
<path d="M1250.94 501.458C1278.74 511.968 1352.33 535.778 1424.36 546.935" stroke="#774515" stroke-opacity="0.75" stroke-width="6.06358" stroke-linecap="round"/>
<path d="M1623.85 573.615C1646.83 575.903 1701.18 579.106 1734.82 573.615" stroke="#774515" stroke-opacity="0.75" stroke-width="6.06358" stroke-linecap="round"/>
<path d="M1301.27 579.678C1312.75 583.317 1343.86 592.169 1376.46 598.476" stroke="#774515" stroke-opacity="0.75" stroke-width="6.06358" stroke-linecap="round"/>
<path d="M1590.5 622.73C1605.4 625.475 1652.93 629.319 1723.9 622.73" stroke="#774515" stroke-opacity="0.75" stroke-width="6.06358" stroke-linecap="round"/>
<path d="M3.35715 607.57C-0.435383 610.338 -5.64035 612.207 -10.2541 611.051C-12.5833 609.052 -11.8142 601.903 -10.2962 599.276C-8.75264 596.604 -8.49144 593.421 -6.90112 590.729C-5.625 588.569 -2.40706 584.89 -0.215025 583.494C2.59622 581.705 4.77017 579.217 7.43662 577.407C10.446 575.364 14.9723 572.014 16.089 568.437C16.9592 565.65 17.4325 562.734 18.223 559.923C18.9901 557.195 21.462 553.83 22.9365 551.393C25.2657 547.543 28.7902 545.257 29.9604 540.588L32.8496 529.061C33.726 525.564 35.0879 522.71 37.0477 519.81C39.1777 516.659 45.2505 516.363 48.5717 514.937C54.1171 512.556 61.9387 507.794 64.1129 501.951C65.3091 498.737 66.84 495.931 67.7133 492.447C68.4663 489.442 69.8977 486.698 70.56 483.588C72.0733 476.484 71.9723 468.448 75.2568 461.793C76.1668 459.95 76.2763 457.749 76.9308 455.809C77.7199 453.47 79.1731 451.508 80.5048 449.465C81.5625 447.842 83.1692 446.565 84.0286 444.849C84.8262 443.256 85.3198 441.685 86.8151 440.674C90.3762 438.268 92.9737 434.84 96.6461 432.557C100.677 430.051 106.239 426.018 111.16 425.475C112.893 425.283 114.502 423.83 116.124 423.168C118.536 422.185 121.276 422.525 123.724 421.453C128.117 419.529 133.359 420.038 137.891 418.53C140.102 417.795 143.421 417.005 145.811 417.069C146.949 417.1 147.769 415.959 149.259 415.95C150.79 415.94 151.956 415.969 153.427 415.567C161.249 413.429 168.575 414.665 176.313 416.604C182.407 418.132 188.403 420.418 194.635 421.823C197.481 422.465 201.646 422.411 204.494 421.649C207.753 420.777 210.647 416.987 213.644 416.389C218.736 415.374 213.851 429.313 213.447 430.924C213.027 432.598 212.648 436.404 210.938 437.186C209.919 437.652 209.886 439.268 208.758 439.633C207.626 440 206.475 440.348 205.556 441.163C204.106 442.447 201.681 442.123 200.453 443.33C199.136 444.624 197.812 444.977 196.218 445.784C191.942 447.947 188.418 450.72 183.768 451.991C179.736 453.093 176.279 455.212 172.449 456.742C168.271 458.41 164.351 459.799 160.989 462.745C156.122 467.011 153.576 472.327 151.989 478.658C150.336 485.254 152.967 492.254 151.355 498.687C150.184 503.356 150.982 510.548 146.334 513.718C143.761 515.473 140.726 517.005 138.29 518.872C136.671 520.113 135.589 521.922 133.76 522.783C132.527 523.364 131.147 524.152 130.074 524.992C126.499 527.79 121.918 528.303 118.058 530.438C114.489 532.413 109.512 534.169 105.559 535.172C103.682 535.648 102.197 537.285 100.579 537.683C98.117 538.289 96.5531 538.597 94.142 539.759C91.1555 541.198 87.0196 543.199 84.7791 545.592C82.6616 547.852 80.2621 548.762 78.4052 551.164C76.7029 553.367 75.9316 555.96 73.8975 557.9C72.0975 559.618 70.6549 563.973 68.6035 564.997C66.3419 566.126 63.8161 568.923 61.5506 569.529C59.6355 570.041 58.5444 571.016 56.8736 571.803C55.6668 572.371 54.406 571.848 53.2949 572.472C49.4192 574.646 44.9733 574.216 40.7651 574.97C33.636 576.247 25.245 575.156 20.1101 581.14C17.5605 584.111 15.7298 587.785 14.0937 591.397C12.8491 594.143 12.2943 598.993 10.0919 601.114C7.77119 603.349 6.07162 605.589 3.35715 607.57Z" fill="#4E911E"/>
<path d="M201.136 426.902C198.244 428.882 195.179 431.259 192.023 432.812C190.057 433.779 187.788 434.358 185.732 435.131C181.024 436.9 175.698 436.084 170.959 437.665C168.63 438.442 166.02 438.731 163.551 438.475C160.806 438.191 158.241 436.992 155.466 436.794C150.728 436.458 146.767 438.522 142.426 440.166C137.015 442.215 131.033 445.371 126.8 449.356C125.685 450.406 124.236 450.972 123.095 452.054C121.918 453.17 120.707 454.133 119.431 455.127C117.378 456.725 115.613 458.378 113.909 460.345C110.322 464.484 106.364 468.664 103.528 473.248C102.381 475.103 101.837 477.737 100.346 479.282C98.9858 480.692 98.7755 482.623 97.8736 484.343C95.9633 487.985 93.2506 491.505 91.7164 495.349C90.886 497.43 89.5145 499.078 88.8211 501.167C88.1631 503.151 87.1556 505.113 86.1678 506.95C85.2622 508.634 84.7429 510.483 83.9013 512.197C82.8262 514.386 80.6964 516.122 79.3399 518.154C77.9409 520.249 75.6876 521.781 73.5618 523.076C72.111 523.96 70.719 524.909 69.2397 525.754C68.2058 526.345 67.1318 526.407 66.1838 527.099C64.1493 528.584 61.5445 529.257 59.453 530.632C56.9836 532.255 54.7923 534.289 52.306 535.902C49.8763 537.479 46.827 539.343 45.1328 541.665C43.5117 543.888 42.0632 546.223 40.4591 548.458C39.3112 550.057 37.1535 551.886 35.4789 552.909C33.3633 554.201 32.0741 556.303 30.011 557.679C27.7893 559.161 26.0227 561.306 24.3439 563.244" stroke="#43841C" stroke-width="4.61137" stroke-linecap="round"/>
<path d="M101.918 388.315C100.069 382.875 94.3234 372.93 97.0309 367.83C98.6998 364.686 106.016 352.276 106.131 349.357C106.184 348.027 106.459 347.174 106.718 345.288C106.951 343.585 107.039 342.847 107.007 341.755C106.933 339.219 107.569 336.206 107.915 333.68C108.299 330.87 108.126 329.21 107.24 326.604C106.831 325.402 102.766 319.455 102.152 322.835C101.62 325.769 101.978 328.523 101.248 331.486C100.48 334.604 101.323 341.855 97.8531 343.328C91.5234 346.016 83.0477 345.471 78.0738 350.744C73.343 355.759 71.0211 363.059 69.2865 369.571C68.5731 372.249 69.7041 379.197 67.4411 380.656C62.7004 383.712 58.349 387.282 54.2761 391.129C49.8781 395.283 50.0398 402.646 51.7844 407.778C52.9715 411.271 54.4095 414.768 55.3348 418.336C56.3087 422.092 53.5365 423.536 50.4858 425.125L50.4251 425.157C43.9004 428.556 38.1471 428.465 33.4476 435.273C32.2202 437.05 29.582 439.389 30.1247 441.785C30.9604 445.474 30.0741 450.626 29.7156 454.381C29.4226 457.45 31.4308 461.667 32.3314 464.565C33.0121 466.755 34.3801 472.454 32.4919 474.199C31.7315 474.902 32.0827 475.722 31.018 476.084C29.7015 476.532 28.5229 476.875 27.5755 477.946C26.5455 479.111 24.2728 481.57 24.0253 482.998C22.6658 490.838 21.7327 498.542 19.7994 506.196C18.1096 512.886 17.1173 519.562 14.0443 525.8C10.8444 532.295 7.81803 538.724 5.73466 545.58C3.0896 554.284 2.69264 564.682 5.62219 573.301C7.26745 578.141 8.24595 583.055 9.89881 587.918C10.4595 589.568 11.8006 596.986 13.4231 597.947C14.5522 598.615 20.4132 598.032 21.8243 597.552C26.2354 596.053 30.6085 594.331 35.3065 594.007C41.8979 593.552 53.3994 590.569 57.2854 584.806C62.4163 577.197 68.3161 572.24 67.5839 562.62C67.3082 558.998 64.8007 556.016 63.6805 552.72C62.3764 548.883 60.472 545.317 59.1941 541.557C57.7715 537.372 56.6342 533.822 56.4171 529.429C56.306 527.18 56.4995 524.873 56.8836 522.657C57.1753 520.975 55.901 519.099 56.5656 517.536C57.9925 514.182 59.9342 511.143 61.9135 508.044L61.9884 507.927C64.3076 504.296 68.0749 503.016 70.7114 499.656C78.1542 490.169 87.5089 476.229 83.2539 463.711C82.2347 460.713 81.7145 457.527 80.8049 454.47C80.1131 452.146 81.5647 448.597 81.2384 446.018C80.6919 441.7 80.6191 434.694 82.6892 430.492C83.1715 429.513 83.2043 428.571 83.4084 427.518C83.6106 426.475 84.8844 425.777 85.2456 424.779C86.0457 422.567 89.1929 421.277 90.7397 419.451C92.9859 416.799 96.8092 415.441 97.8318 411.811C98.5515 409.257 100.367 407.998 100.913 405.266C102.188 398.879 104.182 394.978 101.918 388.315Z" fill="#30640E"/>
<path d="M30.6409 593.473C29.0221 587.366 28.7841 581.294 26.8368 575.196C25.2923 570.359 27.5266 565.866 27.6747 560.968C27.7652 557.974 30.5283 556.798 30.8256 553.866C31.2937 549.249 37.3146 544.626 37.1695 539.912C37.0983 537.601 38.3286 535.07 39.0067 532.703C39.8264 529.84 39.2571 526.726 39.3919 523.774C39.6336 518.48 39.1596 511.969 37.5425 506.905C35.9795 502.01 35.0674 496.561 37.0455 491.56C37.7104 489.879 38.5143 489.057 39.6686 487.637C40.9382 486.076 44.2224 485.756 45.1058 484.396C47.0971 481.33 44.7664 474.377 43.7212 471.103C42.8535 468.386 42.5044 463.77 42.6597 460.944C42.7263 459.732 42.4945 458.891 42.1564 457.718C41.7853 456.43 42.6077 455.692 42.4575 454.536C42.1263 451.988 42.6332 448.181 43.352 445.671C44.2354 442.587 49.5221 441.142 52.1719 440.296C56.0341 439.063 57.6617 436.22 60.8696 433.831C64.1169 431.412 63.9407 428.99 66.0693 426.075C68.8459 422.272 64.1233 415.573 65.326 411.373C66.4041 407.609 71.7084 404.661 73.6177 401.162C75.9802 396.834 80.3604 392.722 81.271 387.656C82.1024 383.029 80.8764 379.585 79.4244 375.038C78.2291 371.294 79.7067 368.388 82.6992 366.203" stroke="#2B5D0A" stroke-width="4.61137" stroke-linecap="round"/>
<path d="M6.91227 640.673C6.17254 643.471 6.15289 646.747 5.84803 649.624C4.93005 653.753 5.12568 653.357 5.01157 654.582C4.7312 657.594 4.13221 660.49 5.74833 663.483C9.5567 670.535 17.0728 673.857 24.4942 675.937C32.3205 678.131 42.2242 682.174 50.0434 677.951C53.0756 676.314 55.6473 675.092 57.1665 671.775C58.1309 669.669 58.5645 667.094 59.2317 664.86C59.842 662.817 59.6667 660.743 60.1901 658.742C61.6738 653.067 62.3808 643.536 70.4259 643.598C72.2531 643.612 74.5104 644.962 76.2814 645.491C78.2867 646.09 80.2349 647.027 82.1242 647.912C84.3848 648.971 86.9361 649.51 89.3197 650.222C91.2169 650.789 93.9331 652.294 95.8552 651.402C99.4117 649.751 99.6255 647.259 99.894 643.644C100.173 639.889 100.108 636.625 99.6519 632.87C99.1345 628.609 99.6012 624.541 100.762 620.424C101.845 616.583 101.97 614.122 106.598 613.976C111.242 613.83 116.443 616.267 120.721 617.824C123.067 618.678 125.519 619.127 127.872 619.96C129.901 620.678 132.353 621.408 134.383 620.359C137.457 618.772 138.899 614.041 140.138 611.006C141.719 607.131 142.229 602.262 143.108 598.15C143.968 594.133 144.131 590.25 145.389 586.311C146.576 582.594 147.768 580.836 151.756 580.295C159.078 579.302 166.298 581.115 171.242 586.823C173.783 589.757 174.188 594.082 177.621 596.34C180.205 598.039 183.121 602.913 186.763 602.53C189.334 602.261 192.185 599.67 193.767 597.831C195.044 596.347 195.515 594.313 196.682 592.812C197.578 591.661 199.572 590.878 200.866 590.28C203.094 589.25 204.956 589.748 207.292 589.833C209.427 589.911 211.18 589.578 213.295 590.21C215.753 590.944 218.857 593.181 220.617 595.004C223.367 597.85 224.982 600.107 226.477 603.835C226.605 604.154 226.712 605.628 226.687 606.233C226.631 606.348 226.592 606.434 226.609 606.465C226.654 606.548 226.678 606.443 226.687 606.233C226.796 606.008 226.971 605.672 226.918 605.431C226.878 605.251 227.985 604.173 228.096 603.803C228.656 601.926 229.357 599.777 229.37 597.811C229.39 594.968 229.247 592.674 228.575 589.913C227.028 583.553 219.779 580.694 216.791 575.161C215.397 572.58 214.095 570.103 214 567.102C213.894 563.715 213.762 560.465 212.114 557.414C209.164 551.95 206.347 544.712 200.233 542.021C198.597 541.301 195.671 541.96 194.101 542.507C189.354 544.161 185.181 543.678 180.33 542.707C176.787 541.998 172.99 539.377 170.655 536.631C168.564 534.173 166.421 531.799 164.298 529.358C159.949 524.359 153.512 523.363 147.389 524.115C145.654 524.328 144.239 524.775 142.567 525.281C141.02 525.75 139.727 525.171 138.14 525.987C135.216 527.49 132.278 529.049 129.429 530.691C126.555 532.348 124.801 535.867 121.741 537.52C119.446 538.759 116.591 540.507 114.025 540.993C111.719 541.429 109.704 542.665 107.367 543.027C105.542 543.31 103.789 543.584 101.989 543.899C98.1562 544.571 93.5679 543.699 89.7778 543.133C85.5053 542.494 81.0401 542.693 76.6958 542.589C72.2947 542.484 68.0661 541.572 63.6841 541.487C60.3668 541.423 57.152 544.742 54.4368 546.208C50.7613 548.193 49.0158 550.459 47.7225 554.518C46.2042 559.284 44.5823 564.009 43.1482 568.811C41.878 573.063 40.8793 578.046 38.367 581.802C36.2189 585.013 34.5934 588.445 32.3147 591.613C30.5444 594.075 27.2648 595.707 25.035 597.775C22.5703 600.061 19.2461 602.349 17.6241 605.346C15.4707 609.325 14.1795 614.437 13.0712 618.825L13.0033 619.093C11.8495 623.659 10.1342 628.099 9.1002 632.701C8.50093 635.368 7.61298 638.023 6.91227 640.673Z" fill="#447D1C"/>
<path d="M22.9783 660.672C23.8911 658.45 25.9134 656.099 27.3938 654.213C28.7438 652.493 28.9276 650.703 29.8854 648.794C31.7925 644.991 35.7659 644.065 37.6682 640.272C42.0754 631.485 52.4749 624.211 60.5607 619.069C64.4072 616.622 68.3309 613.779 71.1519 610.09C73.1108 607.528 75.2782 605.139 77.2511 602.6C78.9409 600.425 79.4015 597.618 80.8547 595.317C86.9996 585.586 89.2824 572.907 96.8835 563.969C101.006 559.121 107.984 553.631 114.574 553.274C118.555 553.059 123.15 553.707 126.985 553.172C132.714 552.373 138.911 555.626 144.822 555.272C149.697 554.98 155.652 556.065 160.527 556.894C164.661 557.597 169.144 556.031 173.065 557.782C175.729 558.971 177.29 558.954 179.413 561.238C180.671 562.591 181.947 565.347 183.409 566.373C186.34 568.431 190.391 568.742 192.253 572.189" stroke="#397211" stroke-width="4.61137" stroke-linecap="round"/>
<path d="M5.6743 682.863C7.29992 680.154 8.31578 675.16 8.99705 671.981C9.93511 671.512 10.5585 669.118 11.5904 668.305C12.9654 667.221 13.4894 666.406 14.6646 665.23C15.9532 663.942 17.9914 663.726 19.276 662.156C20.1683 661.065 22.5121 658.515 23.1188 657.545C28.0437 649.665 35.6219 643.804 34.7559 633.845C34.5972 632.021 33.8697 629.369 32.8964 627.84C32.1098 626.604 30.7264 626.052 29.7261 624.975C27.6661 622.756 28.1522 618.367 27.7751 615.586C27.4414 613.125 27.6532 610.536 27.6532 608.056C27.6532 602.601 27.4804 596.944 28.7506 591.625C29.2173 589.671 28.8426 586.981 29.8785 585.254C31.2 583.052 31.9841 580.704 33.1402 578.456C33.8376 577.1 34.9477 576.436 35.8838 575.286C36.9517 573.974 37.4189 572.415 38.3225 571.018C40.0629 568.328 39.7247 565.999 39.7247 562.818C39.7247 557.774 39.0933 552.828 35.3351 549.07C31.0546 544.789 26.9687 539.972 23.5378 535.017C20.0097 529.92 19.4225 524.13 19.4225 518.159C19.4225 515.739 20.2981 513.847 21.9222 512.032C23.4058 510.374 24.0622 508.666 25.4583 506.941C29.1345 502.4 28.8719 496.853 28.7506 491.272C28.6199 485.263 21.4155 480.77 18.8433 475.787C17.8612 473.884 16.1905 471.827 14.9109 470.056C13.7866 468.499 12.5861 466.22 10.9785 465.148C9.66094 464.269 9.29486 461.244 8.17398 459.874C6.98018 458.415 6.2535 457.012 6.2535 455.119C6.2535 450.42 7.97205 447.562 10.9175 443.962C12.1966 442.398 14.0505 441.806 15.3377 440.151C16.76 438.322 18.9089 436.949 20.5199 435.243C24.0655 431.489 27.5373 428.198 31.4941 424.94C35.3901 421.731 36.8218 416.362 38.0617 411.712L38.0786 411.649C39.3031 407.057 38.0786 402.703 38.0786 398.175C38.0786 390.225 30.9359 384.075 28.6286 376.897C28.0039 374.954 27.4473 369.079 28.5067 367.112C30.4539 363.495 33.1173 360.896 35.3351 357.692C39.3072 351.955 41.0423 344.173 43.8096 337.847C45.2455 334.565 45.3159 331.478 45.2118 327.94C45.1622 326.254 43.6374 326.093 42.3768 325.41C39.3115 323.75 36.7819 321.256 33.6889 319.709C30.0275 317.879 26.2522 315.721 22.9586 313.369C20.8173 311.839 19.5024 310.263 18.2032 308.065C16.498 305.179 13.6162 303.576 11.7711 300.992C8.4664 296.366 7.10361 293.23 6.13157 287.762C5.59394 284.738 3.76528 276.529 0.461575 281.635C-2.29712 285.899 -1.56428 292.078 -1.42842 296.969C-1.34293 300.046 0.885773 302.999 2.1077 305.687C3.49171 308.732 4.96398 311.843 6.80221 314.649C8.21737 316.809 9.94592 318.227 10.7651 320.685C11.4453 322.725 10.8628 324.214 10.6737 326.294C10.234 331.13 6.12016 335.266 1.86383 337.512C-1.70079 339.393 -4.4304 342.3 -7.46423 344.828C-9.76406 346.745 -11.4805 347.166 -12.4026 350.163C-13.8507 354.869 -13.5 359.645 -13.5 364.521C-13.5 371.842 -17.6152 377.08 -20.7552 383.36C-24.0459 389.941 -29.9826 394.376 -33.8023 400.583C-34.8843 402.341 -36.8425 403.122 -37.6737 405.034C-39.2574 408.676 -43.6113 411.303 -46.1787 414.209C-48.3736 416.694 -50.8122 419.973 -50.8122 423.354V429.451C-50.8122 436.565 -48.5645 441.907 -46.1482 448.412C-43.998 454.201 -43.5073 459.064 -46.1482 464.873C-48.604 470.276 -51.4223 475.625 -53.9826 481.03C-56.3987 486.131 -55.892 495.47 -53.8606 500.661C-49.2086 512.55 -35.9094 522.201 -38.3139 536.328C-39.4503 543.004 -41.5808 549.173 -42.5816 555.929C-43.5775 562.651 -44.1576 568.963 -42.8864 575.682C-41.6989 581.959 -39.299 590.151 -35.0216 595.039C-33.7375 596.507 -33.6048 598.69 -32.1561 599.978C-31.0047 601.001 -29.8934 601.819 -28.9248 603.057C-27.7538 604.553 -25.7054 605.622 -24.901 607.355C-23.4464 610.488 -19.711 614.009 -17.341 616.561C-14.9734 619.111 -13.2507 622.882 -12.9818 626.377C-12.6762 630.349 -12.3285 636.061 -13.7744 639.82C-15.5417 644.415 -16.2743 649.349 -17.7678 653.995C-19.6599 659.882 -20.6332 665.979 -20.6332 672.255C-20.6332 678.06 -23.5033 682.987 -23.3768 688.808C-23.3176 691.53 -20.0246 701.412 -16.2436 701.611C-14.7061 701.692 -12.778 701.863 -11.4271 701.062C-10.5833 700.562 -8.98475 699.106 -8.25681 698.898C-6.33207 698.348 -5.48811 695.853 -3.89762 694.752C-1.2283 692.904 1.12669 689.395 2.2906 686.369C2.95509 684.641 4.76695 684.376 5.6743 682.863Z" fill="#66AB37"/>
<path d="M17.7438 330.612C19.5055 333.783 19.8252 337.033 21.5793 340.29C23.3748 343.625 24.3626 351.955 21.7944 354.951C19.0771 358.122 18.9445 363.664 16.4892 367.211C14.6892 369.811 13.5243 371.681 11.3274 373.878C9.10613 376.099 5.25205 379.285 3.94306 382.23C2.42733 385.641 1.00932 389.16 -0.501857 392.518C-1.93229 395.697 -0.645241 402.053 -0.645241 405.638C-0.645241 414.492 0.0323375 421.503 -4.83923 429.081C-6.93236 432.337 -6.96557 436.461 -9.67846 439.333C-10.7575 440.476 -11.0644 442.959 -12.2594 443.706C-13.5172 444.492 -14.4783 445.95 -15.4855 447.076C-16.6063 448.328 -17.2257 449.973 -17.4571 451.592C-17.6989 453.285 -19.3569 454.444 -19.3569 456.109C-19.3569 459.767 -18.2564 465.643 -19.7154 468.978C-22.5836 475.534 -21.2926 483.68 -21.2926 490.808C-21.2926 500.53 -19.3588 508.184 -14.8761 516.402C-12.8094 520.191 -10.7352 524.488 -8.24462 528.016C-6.55956 530.403 -6.06571 533.478 -4.51662 535.974C-3.38892 537.791 -1.95591 539.437 -1.14709 541.423C0.464371 545.378 3.22614 547.977 3.22614 552.607C3.22614 557.099 3.22614 561.592 3.22614 566.085C3.22614 575.285 3.22614 584.486 3.22614 593.686C3.22614 596.376 3.87137 598.978 3.87137 601.608C3.87137 603.742 3.22614 605.672 3.22614 607.774C3.22614 612.174 3.30315 616.42 3.83552 620.678C4.58068 626.64 9.26024 631.508 12.2594 636.272C14.0152 639.06 15.4827 645.205 13.4064 648.029C12.3712 649.437 9.82954 650.932 9.35582 652.259C8.58326 654.422 6.89342 654.537 5.80706 656.166C3.02264 660.343 0.434738 663.941 -1.64893 668.676C-4.37586 674.874 -6.45231 679.54 -6.45231 686.313C-6.45231 688.673 -6.36493 691.051 -6.45231 693.41C-6.48772 694.366 -7.09754 695.188 -7.09754 696.135C-7.09754 697.77 -5.82344 691.705 -5.80708 691.618" stroke="#4E8F29" stroke-width="4.61137" stroke-linecap="round"/>
<path d="M1762.73 626.641C1767.24 629.934 1773.43 632.156 1778.92 630.781C1781.69 628.403 1780.77 619.9 1778.97 616.775C1777.13 613.596 1776.82 609.81 1774.93 606.608C1773.41 604.039 1769.58 599.663 1766.98 598.003C1763.63 595.874 1761.05 592.915 1757.87 590.762C1754.3 588.332 1748.91 584.347 1747.58 580.093C1746.55 576.778 1745.98 573.309 1745.04 569.965C1744.13 566.72 1741.19 562.718 1739.44 559.819C1736.67 555.239 1732.47 552.521 1731.08 546.967L1727.65 533.255C1726.6 529.096 1724.98 525.701 1722.65 522.252C1720.12 518.503 1712.9 518.151 1708.94 516.455C1702.35 513.623 1693.05 507.959 1690.46 501.008C1689.04 497.185 1687.22 493.848 1686.18 489.703C1685.28 486.129 1683.58 482.865 1682.79 479.166C1680.99 470.716 1681.11 461.156 1677.2 453.241C1676.12 451.048 1675.99 448.43 1675.21 446.123C1674.27 443.341 1672.55 441.007 1670.96 438.577C1669.7 436.646 1667.79 435.127 1666.77 433.086C1665.82 431.191 1665.23 429.322 1663.45 428.12C1659.22 425.258 1656.13 421.181 1651.76 418.465C1646.97 415.484 1640.35 410.687 1634.5 410.04C1632.44 409.813 1630.52 408.084 1628.59 407.297C1625.72 406.127 1622.46 406.532 1619.55 405.257C1614.33 402.968 1608.09 403.574 1602.7 401.78C1600.07 400.906 1596.12 399.966 1593.28 400.043C1591.93 400.079 1590.95 398.721 1589.18 398.711C1587.36 398.699 1585.97 398.734 1584.22 398.256C1574.92 395.713 1566.2 397.183 1557 399.489C1549.75 401.306 1542.62 404.026 1535.2 405.697C1531.82 406.46 1526.87 406.397 1523.48 405.49C1519.6 404.452 1516.16 399.944 1512.59 399.234C1506.54 398.026 1512.35 414.607 1512.83 416.522C1513.33 418.514 1513.78 423.04 1515.81 423.971C1517.02 424.526 1517.06 426.448 1518.41 426.882C1519.75 427.318 1521.12 427.732 1522.21 428.701C1523.94 430.229 1526.82 429.843 1528.28 431.279C1529.85 432.818 1531.42 433.238 1533.32 434.198C1538.41 436.772 1542.6 440.07 1548.13 441.582C1552.93 442.892 1557.04 445.413 1561.6 447.233C1566.56 449.217 1571.23 450.868 1575.23 454.374C1581.02 459.448 1584.04 465.771 1585.93 473.302C1587.9 481.147 1584.77 489.473 1586.69 497.126C1588.08 502.679 1587.13 511.234 1592.66 515.005C1595.72 517.092 1599.33 518.914 1602.23 521.135C1604.15 522.612 1605.44 524.763 1607.61 525.788C1609.08 526.479 1610.72 527.416 1612 528.415C1616.25 531.743 1621.7 532.353 1626.29 534.893C1630.54 537.242 1636.46 539.332 1641.16 540.524C1643.39 541.09 1645.16 543.037 1647.08 543.511C1650.01 544.232 1651.87 544.598 1654.74 545.98C1658.29 547.692 1663.21 550.073 1665.88 552.918C1668.4 555.607 1671.25 556.689 1673.46 559.547C1675.48 562.166 1676.4 565.251 1678.82 567.559C1680.96 569.602 1682.68 574.782 1685.12 576C1687.81 577.343 1690.81 580.67 1693.51 581.391C1695.78 582.001 1697.08 583.16 1699.07 584.096C1700.51 584.772 1702.01 584.15 1703.33 584.892C1707.94 587.478 1713.23 586.967 1718.23 587.863C1726.71 589.383 1736.69 588.085 1742.8 595.202C1745.83 598.736 1748.01 603.107 1749.96 607.403C1751.44 610.67 1752.1 616.438 1754.72 618.961C1757.48 621.62 1759.5 624.285 1762.73 626.641Z" fill="#4E911E"/>
<path d="M1527.47 411.738C1530.91 414.094 1534.56 416.921 1538.31 418.768C1540.65 419.918 1543.35 420.607 1545.79 421.526C1551.4 423.632 1557.73 422.66 1563.37 424.541C1566.14 425.465 1569.24 425.809 1572.18 425.505C1575.44 425.167 1578.5 423.74 1581.8 423.505C1587.43 423.105 1592.14 425.56 1597.31 427.515C1603.74 429.953 1610.86 433.707 1615.89 438.447C1617.22 439.696 1618.94 440.369 1620.3 441.657C1621.7 442.984 1623.14 444.13 1624.66 445.312C1627.1 447.213 1629.2 449.179 1631.23 451.518C1635.49 456.442 1640.2 461.414 1643.57 466.867C1644.94 469.073 1645.59 472.206 1647.36 474.044C1648.98 475.721 1649.23 478.018 1650.3 480.063C1652.57 484.396 1655.8 488.583 1657.62 493.156C1658.61 495.631 1660.24 497.591 1661.07 500.076C1661.85 502.435 1663.05 504.77 1664.22 506.955C1665.3 508.958 1665.92 511.157 1666.92 513.195C1668.2 515.799 1670.73 517.864 1672.35 520.281C1674.01 522.774 1676.69 524.596 1679.22 526.137C1680.95 527.188 1682.6 528.316 1684.36 529.322C1685.59 530.025 1686.87 530.099 1688 530.922C1690.42 532.688 1693.51 533.489 1696 535.124C1698.94 537.055 1701.55 539.474 1704.5 541.393C1707.39 543.268 1711.02 545.485 1713.04 548.248C1714.96 550.891 1716.69 553.67 1718.59 556.327C1719.96 558.229 1722.53 560.405 1724.52 561.622C1727.04 563.159 1728.57 565.659 1731.02 567.296C1733.67 569.059 1735.77 571.611 1737.76 573.915" stroke="#43841C" stroke-width="5.48517" stroke-linecap="round"/>
<path d="M1645.49 365.839C1647.69 359.368 1654.52 347.539 1651.3 341.472C1649.32 337.733 1640.62 322.971 1640.48 319.5C1640.42 317.917 1640.09 316.903 1639.78 314.659C1639.5 312.633 1639.4 311.755 1639.44 310.456C1639.52 307.44 1638.77 303.856 1638.36 300.851C1637.9 297.509 1638.11 295.534 1639.16 292.434C1639.64 291.005 1644.48 283.931 1645.21 287.952C1645.84 291.442 1645.42 294.717 1646.29 298.241C1647.2 301.95 1646.2 310.575 1650.32 312.328C1657.85 315.525 1667.94 314.876 1673.85 321.148C1679.48 327.114 1682.24 335.798 1684.3 343.543C1685.15 346.729 1683.81 354.993 1686.5 356.729C1692.14 360.364 1697.31 364.611 1702.16 369.186C1707.39 374.127 1707.2 382.885 1705.12 388.99C1703.71 393.144 1702 397.305 1700.9 401.549C1699.74 406.016 1703.04 407.734 1706.67 409.625L1706.74 409.662C1714.5 413.706 1721.34 413.597 1726.93 421.694C1728.39 423.809 1731.53 426.591 1730.89 429.441C1729.89 433.829 1730.95 439.957 1731.37 444.424C1731.72 448.074 1729.33 453.091 1728.26 456.537C1727.45 459.143 1725.82 465.922 1728.07 467.997C1728.98 468.833 1728.56 469.809 1729.82 470.239C1731.39 470.772 1732.79 471.18 1733.92 472.455C1735.14 473.84 1737.85 476.765 1738.14 478.463C1739.76 487.789 1740.87 496.953 1743.17 506.057C1745.18 514.015 1746.36 521.956 1750.01 529.375C1753.82 537.102 1757.42 544.749 1759.9 552.904C1763.04 563.257 1763.52 575.625 1760.03 585.877C1758.07 591.635 1756.91 597.48 1754.94 603.264C1754.28 605.227 1752.68 614.051 1750.75 615.194C1749.41 615.989 1742.44 615.294 1740.76 614.724C1735.51 612.94 1730.31 610.893 1724.72 610.508C1716.88 609.967 1703.2 606.418 1698.58 599.563C1692.48 590.512 1685.46 584.615 1686.33 573.173C1686.66 568.865 1689.64 565.317 1690.97 561.397C1692.52 556.833 1694.79 552.591 1696.31 548.119C1698 543.141 1699.35 538.918 1699.61 533.692C1699.74 531.017 1699.51 528.273 1699.06 525.637C1698.71 523.637 1700.23 521.405 1699.44 519.546C1697.74 515.557 1695.43 511.941 1693.07 508.255L1692.98 508.116C1690.23 503.797 1685.75 502.275 1682.61 498.278C1673.76 486.993 1662.63 470.412 1667.69 455.522C1668.9 451.956 1669.52 448.166 1670.6 444.53C1671.43 441.765 1669.7 437.543 1670.09 434.476C1670.74 429.34 1670.82 421.007 1668.36 416.008C1667.79 414.844 1667.75 413.723 1667.51 412.47C1667.27 411.229 1665.75 410.4 1665.32 409.212C1664.37 406.581 1660.63 405.047 1658.79 402.875C1656.11 399.72 1651.57 398.105 1650.35 393.788C1649.49 390.749 1647.33 389.252 1646.68 386.002C1645.17 378.404 1642.8 373.764 1645.49 365.839Z" fill="#30640E"/>
<path d="M1730.27 609.872C1732.2 602.608 1732.48 595.386 1734.8 588.132C1736.63 582.378 1733.98 577.034 1733.8 571.208C1733.69 567.647 1730.41 566.247 1730.05 562.76C1729.5 557.268 1722.33 551.769 1722.51 546.162C1722.59 543.413 1721.13 540.403 1720.32 537.586C1719.35 534.182 1720.02 530.478 1719.86 526.966C1719.58 520.669 1720.14 512.924 1722.06 506.9C1723.92 501.078 1725.01 494.597 1722.65 488.648C1721.86 486.649 1720.91 485.67 1719.53 483.982C1718.02 482.124 1714.12 481.744 1713.07 480.126C1710.7 476.479 1713.47 468.209 1714.71 464.315C1715.75 461.083 1716.16 455.592 1715.98 452.23C1715.9 450.788 1716.17 449.789 1716.57 448.393C1717.02 446.861 1716.04 445.984 1716.22 444.608C1716.61 441.577 1716.01 437.049 1715.15 434.063C1714.1 430.394 1707.81 428.676 1704.66 427.67C1700.07 426.203 1698.13 422.822 1694.32 419.98C1690.45 417.103 1690.66 414.222 1688.13 410.754C1684.83 406.23 1690.45 398.262 1689.01 393.267C1687.73 388.789 1681.42 385.282 1679.15 381.121C1676.34 375.972 1671.13 371.081 1670.05 365.055C1669.06 359.552 1670.52 355.455 1672.25 350.046C1673.67 345.593 1671.91 342.136 1668.35 339.537" stroke="#2B5D0A" stroke-width="5.48517" stroke-linecap="round"/>
<path d="M1758.5 666.016C1759.38 669.344 1759.4 673.241 1759.76 676.664C1760.86 681.574 1760.62 681.103 1760.76 682.561C1761.09 686.143 1761.8 689.588 1759.88 693.148C1755.35 701.536 1746.41 705.488 1737.58 707.962C1728.27 710.571 1716.49 715.381 1707.19 710.358C1703.59 708.41 1700.53 706.956 1698.72 703.011C1697.57 700.507 1697.06 697.443 1696.26 694.786C1695.54 692.356 1695.75 689.889 1695.12 687.508C1693.36 680.759 1692.52 669.421 1682.95 669.495C1680.78 669.511 1678.09 671.118 1675.98 671.747C1673.6 672.46 1671.28 673.574 1669.03 674.627C1666.35 675.886 1663.31 676.528 1660.48 677.375C1658.22 678.049 1654.99 679.839 1652.7 678.778C1648.47 676.814 1648.22 673.849 1647.9 669.55C1647.57 665.084 1647.64 661.201 1648.19 656.735C1648.8 651.666 1648.25 646.827 1646.86 641.93C1645.58 637.361 1645.43 634.434 1639.92 634.26C1634.4 634.086 1628.21 636.985 1623.12 638.837C1620.33 639.853 1617.42 640.387 1614.62 641.378C1612.2 642.232 1609.29 643.1 1606.87 641.853C1603.22 639.965 1601.5 634.337 1600.03 630.727C1598.15 626.118 1597.54 620.326 1596.49 615.435C1595.47 610.657 1595.28 606.039 1593.78 601.353C1592.37 596.931 1590.95 594.84 1586.21 594.197C1577.5 593.016 1568.91 595.172 1563.03 601.962C1560.01 605.452 1559.53 610.597 1555.44 613.282C1552.37 615.304 1548.9 621.1 1544.57 620.646C1541.51 620.325 1538.12 617.243 1536.24 615.056C1534.72 613.29 1534.16 610.871 1532.77 609.086C1531.7 607.716 1529.33 606.785 1527.79 606.074C1525.14 604.849 1522.93 605.441 1520.15 605.542C1517.61 605.635 1515.52 605.239 1513.01 605.99C1510.08 606.864 1506.39 609.525 1504.3 611.693C1501.03 615.078 1499.11 617.763 1497.33 622.197C1497.18 622.577 1497.05 624.331 1497.08 625.05C1497.15 625.187 1497.19 625.289 1497.17 625.326C1497.12 625.425 1497.09 625.299 1497.08 625.05C1496.95 624.782 1496.74 624.383 1496.8 624.096C1496.85 623.882 1495.53 622.599 1495.4 622.16C1494.74 619.927 1493.9 617.371 1493.89 615.032C1493.86 611.65 1494.03 608.922 1494.83 605.638C1496.67 598.072 1505.3 594.671 1508.85 588.09C1510.51 585.02 1512.06 582.073 1512.17 578.504C1512.3 574.475 1512.45 570.609 1514.41 566.98C1517.92 560.481 1521.27 551.871 1528.55 548.671C1530.49 547.815 1533.97 548.598 1535.84 549.249C1541.49 551.216 1546.45 550.641 1552.22 549.487C1556.43 548.644 1560.95 545.525 1563.73 542.259C1566.22 539.335 1568.76 536.511 1571.29 533.608C1576.46 527.662 1584.12 526.477 1591.4 527.371C1593.47 527.624 1595.15 528.156 1597.14 528.759C1598.98 529.316 1600.52 528.628 1602.4 529.598C1605.88 531.386 1609.38 533.24 1612.77 535.194C1616.18 537.164 1618.27 541.351 1621.91 543.316C1624.64 544.79 1628.04 546.869 1631.09 547.447C1633.83 547.967 1636.23 549.437 1639.01 549.867C1641.18 550.203 1643.26 550.529 1645.41 550.905C1649.96 551.703 1655.42 550.667 1659.93 549.993C1665.01 549.234 1670.32 549.47 1675.49 549.346C1680.73 549.221 1685.76 548.136 1690.97 548.035C1694.91 547.959 1698.74 551.907 1701.97 553.651C1706.34 556.012 1708.42 558.707 1709.95 563.536C1711.76 569.205 1713.69 574.825 1715.4 580.536C1716.91 585.595 1718.09 591.522 1721.08 595.989C1723.64 599.809 1725.57 603.891 1728.28 607.66C1730.39 610.588 1734.29 612.53 1736.94 614.989C1739.87 617.708 1743.83 620.43 1745.76 623.995C1748.32 628.728 1749.85 634.808 1751.17 640.027L1751.25 640.347C1752.62 645.778 1754.67 651.06 1755.9 656.533C1756.61 659.705 1757.66 662.864 1758.5 666.016Z" fill="#447D1C"/>
<path d="M1739.39 689.804C1738.3 687.162 1735.9 684.365 1734.14 682.121C1732.53 680.076 1732.31 677.946 1731.17 675.675C1728.9 671.152 1724.18 670.05 1721.91 665.539C1716.67 655.087 1704.3 646.435 1694.68 640.318C1690.11 637.408 1685.44 634.026 1682.09 629.638C1679.76 626.59 1677.18 623.749 1674.83 620.728C1672.82 618.141 1672.27 614.803 1670.54 612.065C1663.23 600.49 1660.52 585.409 1651.48 574.777C1646.57 569.011 1638.27 562.48 1630.44 562.056C1625.7 561.8 1620.23 562.57 1615.67 561.934C1608.86 560.984 1601.49 564.853 1594.46 564.432C1588.66 564.085 1581.57 565.376 1575.77 566.362C1570.86 567.197 1565.53 565.335 1560.86 567.418C1557.69 568.832 1555.84 568.812 1553.31 571.529C1551.81 573.138 1550.3 576.417 1548.56 577.637C1545.07 580.085 1540.25 580.455 1538.04 584.555" stroke="#397211" stroke-width="5.48517" stroke-linecap="round"/>
<path d="M1759.97 716.201C1758.04 712.978 1756.83 707.038 1756.02 703.256C1754.9 702.698 1754.16 699.851 1752.93 698.884C1751.3 697.595 1750.67 696.625 1749.28 695.227C1747.74 693.694 1745.32 693.438 1743.79 691.57C1742.73 690.273 1739.94 687.24 1739.22 686.085C1733.36 676.712 1724.35 669.741 1725.38 657.895C1725.57 655.724 1726.43 652.571 1727.59 650.752C1728.53 649.281 1730.17 648.625 1731.36 647.343C1733.81 644.704 1733.23 639.483 1733.68 636.175C1734.08 633.248 1733.83 630.168 1733.83 627.219C1733.83 620.73 1734.03 614.001 1732.52 607.674C1731.97 605.35 1732.41 602.15 1731.18 600.096C1729.61 597.476 1728.67 594.684 1727.3 592.01C1726.47 590.397 1725.15 589.607 1724.04 588.239C1722.77 586.679 1722.21 584.824 1721.14 583.163C1719.07 579.963 1719.47 577.193 1719.47 573.409C1719.47 567.409 1720.22 561.526 1724.69 557.055C1729.78 551.964 1734.64 546.234 1738.72 540.339C1742.92 534.277 1743.62 527.389 1743.62 520.288C1743.62 517.409 1742.58 515.158 1740.64 512.999C1738.88 511.027 1738.1 508.995 1736.44 506.944C1732.06 501.542 1732.38 494.944 1732.52 488.306C1732.68 481.158 1741.25 475.814 1744.31 469.886C1745.47 467.622 1747.46 465.177 1748.98 463.069C1750.32 461.217 1751.75 458.506 1753.66 457.231C1755.23 456.186 1755.66 452.588 1757 450.958C1758.42 449.223 1759.28 447.554 1759.28 445.302C1759.28 439.713 1757.24 436.313 1753.73 432.03C1752.21 430.171 1750.01 429.466 1748.48 427.498C1746.78 425.323 1744.23 423.689 1742.31 421.66C1738.09 417.195 1733.96 413.28 1729.26 409.404C1724.62 405.588 1722.92 399.201 1721.45 393.67L1721.43 393.595C1719.97 388.133 1721.43 382.953 1721.43 377.568C1721.43 368.112 1729.92 360.796 1732.67 352.258C1733.41 349.946 1734.07 342.959 1732.81 340.619C1730.5 336.317 1727.33 333.225 1724.69 329.414C1719.96 322.589 1717.9 313.333 1714.61 305.809C1712.9 301.905 1712.82 298.233 1712.94 294.024C1713 292.018 1714.81 291.827 1716.31 291.015C1719.96 289.04 1722.97 286.074 1726.65 284.234C1731 282.056 1735.49 279.49 1739.41 276.692C1741.96 274.873 1743.52 272.998 1745.07 270.383C1747.1 266.95 1750.52 265.043 1752.72 261.97C1756.65 256.467 1758.27 252.737 1759.43 246.233C1760.07 242.636 1762.24 232.872 1766.17 238.945C1769.45 244.016 1768.58 251.366 1768.42 257.184C1768.32 260.845 1765.67 264.357 1764.21 267.554C1762.57 271.176 1760.82 274.878 1758.63 278.215C1756.95 280.784 1754.89 282.471 1753.91 285.394C1753.11 287.822 1753.8 289.592 1754.02 292.066C1754.55 297.818 1759.44 302.738 1764.5 305.41C1768.74 307.648 1771.99 311.105 1775.6 314.112C1778.33 316.392 1780.38 316.893 1781.47 320.458C1783.19 326.056 1782.78 331.737 1782.78 337.536C1782.78 346.245 1787.67 352.475 1791.41 359.945C1795.32 367.774 1802.38 373.049 1806.93 380.432C1808.21 382.524 1810.54 383.452 1811.53 385.726C1813.42 390.059 1818.59 393.183 1821.65 396.641C1824.26 399.596 1827.16 403.496 1827.16 407.519V414.771C1827.16 423.232 1824.49 429.586 1821.61 437.324C1819.05 444.21 1818.47 449.994 1821.61 456.905C1824.53 463.331 1827.89 469.694 1830.93 476.123C1833.81 482.19 1833.2 493.299 1830.79 499.474C1825.25 513.616 1809.43 525.096 1812.29 541.899C1813.65 549.841 1816.18 557.179 1817.37 565.214C1818.55 573.21 1819.24 580.718 1817.73 588.71C1816.32 596.177 1813.47 605.921 1808.38 611.736C1806.85 613.481 1806.69 616.078 1804.97 617.61C1803.6 618.827 1802.28 619.8 1801.13 621.272C1799.73 623.052 1797.3 624.324 1796.34 626.385C1794.61 630.111 1790.17 634.299 1787.35 637.335C1784.53 640.368 1782.48 644.854 1782.16 649.011C1781.8 653.736 1781.38 660.53 1783.1 665.002C1785.21 670.468 1786.08 676.336 1787.85 681.863C1790.1 688.865 1791.26 696.118 1791.26 703.583C1791.26 710.488 1794.68 716.348 1794.53 723.272C1794.46 726.51 1790.54 738.264 1786.04 738.501C1784.21 738.597 1781.92 738.801 1780.31 737.848C1779.31 737.254 1777.41 735.521 1776.54 735.274C1774.25 734.62 1773.25 731.652 1771.36 730.343C1768.18 728.144 1765.38 723.971 1764 720.371C1763.2 718.316 1761.05 718 1759.97 716.201Z" fill="#66AB37"/>
<path d="M1745.61 297.202C1743.52 300.974 1743.14 304.84 1741.05 308.715C1738.92 312.681 1737.74 322.59 1740.8 326.154C1744.03 329.925 1744.19 336.518 1747.11 340.736C1749.25 343.829 1750.63 346.054 1753.25 348.667C1755.89 351.309 1760.47 355.098 1762.03 358.602C1763.83 362.658 1765.52 366.844 1767.32 370.839C1769.02 374.62 1767.49 382.18 1767.49 386.445C1767.49 396.977 1766.68 405.316 1772.48 414.33C1774.97 418.203 1775.01 423.108 1778.23 426.525C1779.52 427.884 1779.88 430.838 1781.3 431.727C1782.8 432.662 1783.94 434.396 1785.14 435.735C1786.47 437.225 1787.21 439.181 1787.49 441.107C1787.77 443.121 1789.74 444.5 1789.74 446.48C1789.74 450.831 1788.44 457.82 1790.17 461.787C1793.58 469.585 1792.05 479.275 1792.05 487.754C1792.05 499.317 1789.75 508.422 1784.42 518.198C1781.96 522.705 1779.49 527.816 1776.53 532.012C1774.52 534.852 1773.94 538.509 1772.09 541.478C1770.75 543.639 1769.05 545.598 1768.08 547.959C1766.17 552.664 1762.88 555.755 1762.88 561.262C1762.88 566.606 1762.88 571.95 1762.88 577.294C1762.88 588.238 1762.88 599.182 1762.88 610.126C1762.88 613.325 1762.12 616.421 1762.12 619.549C1762.12 622.087 1762.88 624.382 1762.88 626.883C1762.88 632.117 1762.79 637.167 1762.16 642.233C1761.27 649.324 1755.71 655.115 1752.14 660.781C1750.05 664.098 1748.3 671.407 1750.77 674.766C1752 676.441 1755.03 678.22 1755.59 679.797C1756.51 682.371 1758.52 682.507 1759.81 684.445C1763.12 689.413 1766.2 693.693 1768.68 699.326C1771.93 706.698 1774.4 712.248 1774.4 720.304C1774.4 723.112 1774.29 725.94 1774.4 728.746C1774.44 729.884 1775.16 730.861 1775.16 731.987C1775.16 733.932 1773.65 726.718 1773.63 726.615" stroke="#4E8F29" stroke-width="5.48517" stroke-linecap="round"/>
<defs>
<filter id="filter0_d_0_1" x="185.789" y="436.508" width="81.6001" height="43.5597" filterUnits="userSpaceOnUse" color-interpolation-filters="sRGB">
<feFlood flood-opacity="0" result="BackgroundImageFix"/>
<feColorMatrix in="SourceAlpha" type="matrix" values="0 0 0 0 0 0 0 0 0 0 0 0 0 0 0 0 0 0 127 0" result="hardAlpha"/>
<feOffset dy="3.16575"/>
<feGaussianBlur stdDeviation="1.58288"/>
<feComposite in2="hardAlpha" operator="out"/>
<feColorMatrix type="matrix" values="0 0 0 0 0 0 0 0 0 0 0 0 0 0 0 0 0 0 0.25 0"/>
<feBlend mode="normal" in2="BackgroundImageFix" result="effect1_dropShadow_0_1"/>
<feBlend mode="normal" in="SourceGraphic" in2="effect1_dropShadow_0_1" result="shape"/>
</filter>
<filter id="filter1_d_0_1" x="254.816" y="527.416" width="81.6001" height="43.5608" filterUnits="userSpaceOnUse" color-interpolation-filters="sRGB">
<feFlood flood-opacity="0" result="BackgroundImageFix"/>
<feColorMatrix in="SourceAlpha" type="matrix" values="0 0 0 0 0 0 0 0 0 0 0 0 0 0 0 0 0 0 127 0" result="hardAlpha"/>
<feOffset dy="3.16575"/>
<feGaussianBlur stdDeviation="1.58288"/>
<feComposite in2="hardAlpha" operator="out"/>
<feColorMatrix type="matrix" values="0 0 0 0 0 0 0 0 0 0 0 0 0 0 0 0 0 0 0.25 0"/>
<feBlend mode="normal" in2="BackgroundImageFix" result="effect1_dropShadow_0_1"/>
<feBlend mode="normal" in="SourceGraphic" in2="effect1_dropShadow_0_1" result="shape"/>
</filter>
<filter id="filter2_d_0_1" x="216.238" y="487.75" width="81.6001" height="43.5601" filterUnits="userSpaceOnUse" color-interpolation-filters="sRGB">
<feFlood flood-opacity="0" result="BackgroundImageFix"/>
<feColorMatrix in="SourceAlpha" type="matrix" values="0 0 0 0 0 0 0 0 0 0 0 0 0 0 0 0 0 0 127 0" result="hardAlpha"/>
<feOffset dy="3.16575"/>
<feGaussianBlur stdDeviation="1.58288"/>
<feComposite in2="hardAlpha" operator="out"/>
<feColorMatrix type="matrix" values="0 0 0 0 0 0 0 0 0 0 0 0 0 0 0 0 0 0 0.25 0"/>
<feBlend mode="normal" in2="BackgroundImageFix" result="effect1_dropShadow_0_1"/>
<feBlend mode="normal" in="SourceGraphic" in2="effect1_dropShadow_0_1" result="shape"/>
</filter>
<filter id="filter3_d_0_1" x="180.155" y="537.175" width="81.6001" height="43.5604" filterUnits="userSpaceOnUse" color-interpolation-filters="sRGB">
<feFlood flood-opacity="0" result="BackgroundImageFix"/>
<feColorMatrix in="SourceAlpha" type="matrix" values="0 0 0 0 0 0 0 0 0 0 0 0 0 0 0 0 0 0 127 0" result="hardAlpha"/>
<feOffset dy="3.16575"/>
<feGaussianBlur stdDeviation="1.58288"/>
<feComposite in2="hardAlpha" operator="out"/>
<feColorMatrix type="matrix" values="0 0 0 0 0 0 0 0 0 0 0 0 0 0 0 0 0 0 0.25 0"/>
<feBlend mode="normal" in2="BackgroundImageFix" result="effect1_dropShadow_0_1"/>
<feBlend mode="normal" in="SourceGraphic" in2="effect1_dropShadow_0_1" result="shape"/>
</filter>
<filter id="filter4_d_0_1" x="165.644" y="464.462" width="81.6001" height="43.5607" filterUnits="userSpaceOnUse" color-interpolation-filters="sRGB">
<feFlood flood-opacity="0" result="BackgroundImageFix"/>
<feColorMatrix in="SourceAlpha" type="matrix" values="0 0 0 0 0 0 0 0 0 0 0 0 0 0 0 0 0 0 127 0" result="hardAlpha"/>
<feOffset dy="3.16575"/>
<feGaussianBlur stdDeviation="1.58288"/>
<feComposite in2="hardAlpha" operator="out"/>
<feColorMatrix type="matrix" values="0 0 0 0 0 0 0 0 0 0 0 0 0 0 0 0 0 0 0.25 0"/>
<feBlend mode="normal" in2="BackgroundImageFix" result="effect1_dropShadow_0_1"/>
<feBlend mode="normal" in="SourceGraphic" in2="effect1_dropShadow_0_1" result="shape"/>
</filter>
</defs>
</svg>
