<svg width="533" height="991" viewBox="0 0 533 991" fill="none" xmlns="http://www.w3.org/2000/svg">
<path d="M426.998 535.328C416.696 576.768 422.706 856.373 426.998 990.995H505.252C491.78 949.555 495.676 637.173 499.308 486.162C578.553 474.924 618.175 415.339 628.08 386.951H583.505C561.317 431.903 522.091 446.653 505.252 448.409C510.006 425.231 503.271 300.617 499.308 241.208C587.269 248.934 636.995 180.628 650.863 145.509L612.231 137.607C578.949 206.44 523.082 208.43 499.308 200.821C489.007 186.774 495.016 60.9314 499.308 -0.233887H456.715C455.13 15.9208 448.79 67.9551 445.818 91.953C379.253 54.7271 359.97 14.9843 358.65 -0.233887H300.207C307.339 65.7895 400.253 115.073 445.818 131.462C437.102 195.378 429.639 403.925 426.998 500.209C403.225 497.4 371.527 476.211 358.65 465.968C296.839 374.659 325.631 284.521 347.754 250.866H308.131C276.434 320.401 302.188 404.51 319.028 437.873C276.236 421.016 240.444 306.178 227.897 250.866H154.596C258.406 475.626 379.451 534.157 426.998 535.328Z" fill="#453300"/>
<path d="M18.1529 228.975C-36.8003 301.271 89.3002 311.536 159.22 307.631C219.151 300.478 436.172 325.007 497.234 295.115C546.084 271.202 488.633 249.382 453.801 241.462C482.446 226.191 444.446 193.125 421.866 178.501C249.337 76.3393 174.988 147.183 131.153 189.265C87.3177 231.348 86.8444 138.605 18.1529 228.975Z" fill="#F99B02"/>
<path d="M378.429 429.593C381.585 469.038 555.935 473.64 642.715 471.01C660.465 470.6 779.79 451.288 785.707 417.759C790.44 390.936 750.205 390.147 729.496 393.105C730.285 363.916 707.473 346.099 695.968 340.84C643.899 303.761 601.955 338.539 587.491 360.563C398.152 303.366 374.485 380.285 378.429 429.593Z" fill="#F99B02"/>
</svg>
