<svg width="380" height="297" viewBox="0 0 380 297" fill="none" xmlns="http://www.w3.org/2000/svg">
<rect x="69.2031" y="0.897705" width="241.355" height="197.287" rx="22.2192" fill="#333333"/>
<rect width="208.813" height="163.389" rx="14.0721" transform="matrix(1 0 0 -1 85.4746 181.236)" fill="#FFF8F8"/>
<rect x="174.287" y="192.761" width="31.1863" height="24.4067" fill="#333333"/>
<rect x="145.812" y="204.964" width="88.8131" height="18.305" fill="#333333"/>
<path d="M310.557 127.115C319.483 126.098 332.59 131.861 348.184 106.776C343.325 105.872 335.234 100.132 341.743 84.4035C343.325 82.8216 346.828 81.0137 348.184 86.4374C349.878 93.217 341.404 96.9458 349.878 99.6577C358.353 102.37 360.482 88.4713 353.946 86.4374C348.718 84.8103 349.056 80.3357 349.878 78.3018C352.251 76.4939 358.556 76.6069 364.794 91.5221C366.263 90.8441 369.607 88.878 371.234 86.4374C373.268 83.3865 374.624 78.9798 377.336 84.4035C379.223 88.1768 374.41 93.4198 370.745 96.432C373.583 94.3764 377.679 92.0928 379.031 93.895C380.658 96.0645 379.031 98.6407 378.014 99.6577C376.319 101.353 371.37 104.946 365.133 105.759C359.205 106.532 357.911 106.142 357.991 105.811C352.895 117.012 341.695 138.635 310.557 134.912V127.115Z" fill="#333333"/>
<path d="M69.8926 127.115C60.9661 126.098 47.8588 131.861 32.2656 106.776C37.1244 105.872 45.2147 100.132 38.7063 84.4035C37.1244 82.8216 33.6216 81.0137 32.2656 86.4374C30.5707 93.217 39.0453 96.9458 30.5707 99.6577C22.0962 102.37 19.9671 88.4713 26.503 86.4374C31.7316 84.8103 31.3934 80.3357 30.5707 78.3018C28.1979 76.4939 21.8928 76.6069 15.6556 91.5221C14.1866 90.8441 10.842 88.878 9.21491 86.4374C7.18102 83.3865 5.8251 78.9798 3.11324 84.4035C1.2266 88.1768 6.03939 93.4198 9.70432 96.432C6.86631 94.3764 2.76998 92.0928 1.41833 93.895C-0.208771 96.0645 1.41833 98.6407 2.43528 99.6577C4.13019 101.353 9.07932 104.946 15.3166 105.759C21.2442 106.532 22.5386 106.142 22.4585 105.811C27.5541 117.012 38.7539 138.635 69.8926 134.912V127.115Z" fill="#333333"/>
<path d="M215.434 228.836C197.998 230.139 146.096 227.579 137.676 222.591C137.337 221.575 139.71 223.269 145.812 223.269L145.812 204.964C134.825 205.715 116.018 211.763 129.88 224.964C137.12 232.783 189.465 233.202 198.304 234.893C189.702 241.095 183.517 272.735 204.117 265.981C220.597 260.579 218.529 238.967 215.434 228.836Z" fill="#333333"/>
<path d="M161.579 237.591C179.015 238.894 231.291 229.613 239.711 224.625C240.841 223.495 241.406 222.456 234.626 223.269L234.626 204.964C246.524 207.868 265.786 217.789 245.812 229.371C236.66 234.795 187.549 241.957 178.709 243.648C187.311 249.85 193.496 281.49 172.896 274.736C156.416 269.334 158.484 247.722 161.579 237.591Z" fill="#333333"/>
<path d="M157.338 87.3675C160.615 81.9438 169.745 73.9438 180.05 85.3336" stroke="#333333" stroke-width="3.70319" stroke-linecap="round"/>
<path d="M175.643 131.755C180.727 123.619 183.507 114.399 190.558 124.975C199.371 138.196 197.676 108.365 208.185 129.721" stroke="#333333" stroke-width="3.70319" stroke-linecap="round"/>
<path d="M199.371 85.3328C202.648 79.9091 211.778 71.9091 222.083 83.2989" stroke="#333333" stroke-width="3.70319" stroke-linecap="round"/>
</svg>
