<svg width="288" height="64" viewBox="0 0 288 64" fill="none" xmlns="http://www.w3.org/2000/svg">
<path d="M2.02748 20.3423C1.01053 14.5797 27.8579 2.85091 143.383 2.03735C258.908 1.2238 286.659 13.9017 286.094 20.3423V42.7151C282.704 49.1557 249.404 59.698 143.383 61.6607C51.8303 63.3556 4.96521 50.0597 2.02748 42.7151V20.3423Z" fill="#FFCA28"/>
<path d="M2.02748 20.3423C1.01053 14.5797 27.8579 2.85091 143.383 2.03735C258.908 1.2238 286.659 13.9017 286.094 20.3423M2.02748 20.3423C2.02748 26.105 30.2985 37.6304 143.383 37.6304C256.467 37.6304 285.642 26.105 286.094 20.3423M2.02748 20.3423V42.7151C4.96521 50.0597 51.8303 63.3556 143.383 61.6607C249.404 59.698 282.704 49.1557 286.094 42.7151V20.3423" stroke="#4D4D4D" stroke-width="2.96255"/>
</svg>