<svg width="279" height="481" viewBox="0 0 279 481" fill="none" xmlns="http://www.w3.org/2000/svg">
<path d="M116.098 151.648C109.084 127.735 84.0125 78.9645 39.8321 75.1925C-15.3934 70.4775 64.0255 144.155 116.098 151.648Z" fill="#53AF58"/>
<path d="M130.301 190.203C111.529 173.137 68.814 140.989 48.1347 148.931C22.2855 158.858 80.8194 205.468 130.301 190.203Z" fill="#53AF58"/>
<path d="M159.209 237.219C142.039 226.209 101.692 205 77.6666 208.246C47.6343 212.304 79.6326 251.983 159.209 237.219Z" fill="#53AF58"/>
<path d="M205.536 291.291C189.136 281.03 149.137 260.789 125.836 263.661C96.709 267.25 107.791 310.863 205.536 291.291Z" fill="#53AF58"/>
<path d="M231.321 343.364C210.977 333.613 164.92 314.822 143.442 317.669C116.594 321.227 120.901 369.491 231.321 343.364Z" fill="#53AF58"/>
<path d="M256.607 392.252C243.287 384.989 209.361 371.017 180.215 373.239C143.783 376.017 184.991 422.408 256.607 392.252Z" fill="#53AF58"/>
<path d="M273.684 440.797C256.545 432.066 217.735 416.49 199.603 424.032C176.938 433.459 216.585 465.74 273.684 440.797Z" fill="#53AF58"/>
<path d="M299.22 408.081C304.111 387.955 317.309 344.102 330.971 329.692C348.048 311.679 367.933 365.656 299.22 408.081Z" fill="#53AF58"/>
<path d="M276.557 350.95C278.93 324.477 286.754 269.938 299.067 263.57C314.458 255.61 333.719 297.287 276.557 350.95Z" fill="#53AF58"/>
<path d="M243.965 301.25C241.292 272.414 238.997 211.328 251.21 197.667C266.476 180.591 302.065 216.118 243.965 301.25Z" fill="#53AF58"/>
<path d="M206.537 231.101C200.096 204.596 189.98 147.173 201.045 129.516C214.875 107.445 254.677 184.399 206.537 231.101Z" fill="#53AF58"/>
<path d="M172.351 198.29C152.476 167.259 115.411 101.512 126.15 86.7767C139.574 68.358 184.778 106.945 172.351 198.29Z" fill="#53AF58"/>
<g style="mix-blend-mode:soft-light">
<path d="M116.098 151.648C109.084 127.735 84.0125 78.9645 39.8321 75.1925C-15.3934 70.4775 64.0255 144.155 116.098 151.648Z" fill="#FFD54F"/>
<path d="M130.301 190.203C111.529 173.137 68.814 140.989 48.1347 148.931C22.2855 158.858 80.8194 205.468 130.301 190.203Z" fill="#FFD54F"/>
<path d="M159.209 237.219C142.039 226.209 101.692 205 77.6666 208.246C47.6343 212.304 79.6326 251.983 159.209 237.219Z" fill="#FFD54F"/>
<path d="M205.536 291.291C189.136 281.03 149.137 260.789 125.836 263.661C96.709 267.25 107.791 310.863 205.536 291.291Z" fill="#FFD54F"/>
<path d="M231.321 343.364C210.977 333.613 164.92 314.822 143.442 317.669C116.594 321.227 120.901 369.491 231.321 343.364Z" fill="#FFD54F"/>
<path d="M256.607 392.252C243.287 384.989 209.361 371.017 180.215 373.239C143.783 376.017 184.991 422.408 256.607 392.252Z" fill="#FFD54F"/>
<path d="M273.684 440.797C256.545 432.066 217.735 416.49 199.603 424.032C176.938 433.459 216.585 465.74 273.684 440.797Z" fill="#FFD54F"/>
<path d="M299.22 408.081C304.111 387.955 317.309 344.102 330.971 329.692C348.048 311.679 367.933 365.656 299.22 408.081Z" fill="#FFD54F"/>
<path d="M276.557 350.95C278.93 324.477 286.754 269.938 299.067 263.57C314.458 255.61 333.719 297.287 276.557 350.95Z" fill="#FFD54F"/>
<path d="M243.965 301.25C241.292 272.414 238.997 211.328 251.21 197.667C266.476 180.591 302.065 216.118 243.965 301.25Z" fill="#FFD54F"/>
<path d="M206.537 231.101C200.096 204.596 189.98 147.173 201.045 129.516C214.875 107.445 254.677 184.399 206.537 231.101Z" fill="#FFD54F"/>
<path d="M172.351 198.29C152.476 167.259 115.411 101.512 126.15 86.7767C139.574 68.358 184.778 106.945 172.351 198.29Z" fill="#FFD54F"/>
</g>
<path d="M319.824 514.474C315.868 496.238 307.959 470.233 295.391 438.751M68.4292 99.4184C100.281 131.589 128.637 164.218 153.77 196.426M153.77 196.426C143.98 194.987 117.14 187.831 88.0948 170.722M153.77 196.426C160.011 204.424 166.052 212.395 171.9 220.328M171.9 220.328C172.977 202.94 170.656 160.84 152.749 131.544M171.9 220.328C176.228 226.2 180.45 232.05 184.567 237.874M184.567 237.874C172.181 238.925 140.978 237.468 115.254 223.232M184.567 237.874C188.164 242.962 191.681 248.029 195.119 253.072M195.119 253.072C205.304 234.416 223.851 190.474 216.559 163.95M195.119 253.072C203.82 265.836 212.015 278.445 219.722 290.839M219.722 290.839C204.525 292.196 167.618 292.083 141.57 280.769M219.722 290.839C225.425 300.009 230.861 309.063 236.036 317.974M236.036 317.974C243.404 302.306 257.878 265.137 256.829 241.81M236.036 317.974C241.112 326.714 245.938 335.317 250.521 343.762M250.521 343.762C233.028 343.629 192.18 341.346 168.729 333.279M250.521 343.762C255.016 352.044 259.277 360.174 263.311 368.13M263.311 368.13C265.35 364.78 290.95 336.621 299.972 296.381M263.311 368.13C267.104 375.611 270.697 382.938 274.094 390.094M274.094 390.094C260.086 392.749 224.647 395.242 194.952 383.978M274.094 390.094C279.14 400.724 283.756 410.975 287.959 420.791M287.959 420.791C298.602 409.166 321.555 381.152 328.224 362.096M287.959 420.791C290.597 426.954 293.073 432.946 295.391 438.751M295.391 438.751C281.349 441.805 245.206 445.199 212.964 434.334" stroke="black" stroke-width="1.89794"/>
</svg>
