<svg width="636" height="279" viewBox="0 0 636 279" fill="none" xmlns="http://www.w3.org/2000/svg">
<path d="M67.8654 76.657C67.4261 76.5815 71.839 78.2531 72.0214 77.0882C72.8589 71.739 75.2778 67.241 78.6778 63.0245C91.0773 47.6476 109.766 37.1526 127.549 29.2541C143.67 22.0938 160.108 18.9583 177.654 17.9502C183.423 17.6188 192.766 15.7529 197.022 21.0794C198.279 22.6523 200.654 27.9385 203.188 27.359C206.274 26.6535 209.346 23.1308 211.835 21.4687C216.566 18.3108 221.608 16.1065 226.835 13.9279C248.354 4.95932 266.944 -1.14165 291.032 3.41166C316.055 8.14139 336.514 22.8181 354.153 40.2225C358.603 44.6125 363.004 44.9276 368.827 43.3288C388.339 37.9707 407.461 32.488 427.241 28.0999C447.248 23.6615 466.396 18.8415 486.944 17.5301C499.162 16.7504 513.468 15.6549 525.374 19.4936C542.737 25.092 552.352 42.9278 559.596 58.1307C563.226 65.7486 565.77 74.0078 565.854 82.5041C565.872 84.3904 565.081 83.5506 564.006 84.1448C559.244 86.7753 572.222 91.3458 576.826 94.2425C602.495 110.391 628.395 132.719 633.294 164.109C636.074 181.925 627.553 202.854 613.601 214.571C608.012 219.265 600.35 222.773 592.993 222.846C587.723 222.898 579.497 232.655 575.621 235.462C558.643 247.753 539.92 258.832 519.958 265.456C504.709 270.515 479.325 278.808 465.421 266.079C461.352 262.353 458.602 256.455 455.879 251.714C454.027 248.49 451 246.431 449.141 243.444C445.639 237.816 437.543 243.766 433.53 246.18C412.167 259.035 389.828 264.035 365.403 268.944C354.767 271.082 344.142 273.244 333.499 275.345C329.238 276.187 325.552 276.273 321.962 273.365C315.559 268.177 308.804 254.406 300.342 252.554C290.343 250.366 279.674 260.441 270.112 262.897C240.49 270.505 204.455 281.126 173.973 274.717C155.567 270.847 135.549 256.24 124.839 240.83C123.594 239.04 121.638 235.763 121.088 232.769C110.849 242.68 91.6979 244.347 78.6004 246.336C49.924 250.692 17.8653 245.595 8.58431 213.954C2.70521 193.912 -3.36041 167.067 10.8456 149.079C12.2238 147.334 19.1312 143.296 16.629 142.762C10.5389 141.465 6.32173 130.544 4.06579 125.465C-1.11711 113.796 36.4068 77.2583 48.0649 71.4093C56.8758 66.9888 62.6975 69.347 67.8654 76.657Z" fill="white"/>
<path d="M67.8654 76.657C67.4261 76.5815 71.839 78.2531 72.0214 77.0882C72.8589 71.739 75.2778 67.241 78.6778 63.0245C91.0773 47.6476 109.766 37.1526 127.549 29.2541C143.67 22.0938 160.108 18.9583 177.654 17.9502C183.423 17.6188 192.766 15.7529 197.022 21.0794C198.279 22.6523 200.654 27.9385 203.188 27.359C206.274 26.6535 209.346 23.1308 211.835 21.4687C216.566 18.3108 221.608 16.1065 226.835 13.9279C248.354 4.95932 266.944 -1.14165 291.032 3.41167C316.055 8.14138 336.514 22.8181 354.153 40.2225C358.603 44.6125 363.004 44.9276 368.827 43.3288C388.339 37.9707 407.461 32.488 427.241 28.0999C447.248 23.6615 466.396 18.8415 486.944 17.5301C499.162 16.7504 513.468 15.6549 525.374 19.4936C542.737 25.092 552.352 42.9278 559.596 58.1307C563.226 65.7486 565.77 74.0078 565.854 82.5041C565.872 84.3904 565.081 83.5506 564.006 84.1448C559.244 86.7753 572.222 91.3458 576.826 94.2425C602.495 110.391 628.395 132.719 633.294 164.109C636.074 181.925 627.553 202.854 613.601 214.571C608.012 219.265 600.35 222.773 592.993 222.846C587.723 222.898 579.498 232.655 575.621 235.462C558.643 247.753 539.92 258.832 519.958 265.456C504.709 270.515 479.325 278.808 465.421 266.079C461.352 262.353 458.602 256.455 455.879 251.714C454.027 248.49 451 246.431 449.141 243.444C445.639 237.816 437.543 243.766 433.53 246.18C412.167 259.035 389.828 264.035 365.403 268.944C354.767 271.082 344.142 273.244 333.499 275.345C329.238 276.187 325.552 276.273 321.962 273.365C315.559 268.177 308.804 254.406 300.342 252.554C290.343 250.366 279.674 260.441 270.112 262.897C240.49 270.505 204.455 281.126 173.973 274.717C155.567 270.848 135.549 256.24 124.839 240.83C122.757 237.835 118.683 230.681 122.534 227.642C125.715 225.132 122.543 231.273 121.772 232.08C111.722 242.605 91.9954 244.302 78.6004 246.336C49.924 250.692 17.8653 245.595 8.58431 213.954C2.70521 193.912 -3.36041 167.067 10.8456 149.079C12.2238 147.334 19.1312 143.296 16.629 142.762C10.5389 141.465 6.32173 130.544 4.06579 125.465C-1.11711 113.796 36.4068 77.2583 48.0649 71.4093C56.8758 66.9888 62.6975 69.347 67.8654 76.657Z" stroke="white" stroke-width="3.39575" stroke-linecap="round"/>
<path d="M475.88 97.6587C471.021 119.579 451.541 171.896 412.49 205.794" stroke="black" stroke-width="2.96255"/>
<path d="M156.558 97.998C161.416 119.919 180.897 172.235 219.947 206.133" stroke="black" stroke-width="2.96255"/>
<path d="M318.637 102.743C315.021 122.065 309.959 170.065 318.637 207.488" stroke="black" stroke-width="2.96255"/>
</svg>
