<svg width="108" height="113" viewBox="0 0 108 113" fill="none" xmlns="http://www.w3.org/2000/svg">
<path d="M91.39 71.3724C53.8099 102.598 35.281 81.333 30.7141 66.797C4.53843 41.7727 40.9742 -1.63879 43.518 13.7063C45.553 25.9823 41.6019 38.215 39.3719 42.7968C53.8997 21.7219 74.5422 18.3575 83.0476 19.3097C84.1312 36.7827 67.6136 53.5617 59.2194 59.7671C74.1275 56.8349 86.8782 66.2822 91.39 71.3724Z" fill="#FBBC04"/>
<g style="mix-blend-mode:overlay">
<path opacity="0.5" d="M90.9955 71.9744C52.8548 102.513 34.7149 80.915 30.4125 66.2986C4.69538 40.8034 41.913 -1.93975 44.1779 13.4489C45.9898 25.7599 41.8173 37.9188 39.5046 42.4594C54.4124 21.6517 75.1126 18.6625 83.5993 19.7689C84.3656 37.2587 67.5462 53.7352 59.0408 59.7872C73.9996 57.1259 86.5768 66.8031 90.9955 71.9744Z" fill="#1A1A1A"/>
</g>
</svg>