<svg width="304" height="498" viewBox="0 0 304 498" fill="none" xmlns="http://www.w3.org/2000/svg">
<path d="M114.361 188.34C96.6321 144.813 83.0196 39.678 130.25 45.0361C196.373 52.5373 120.496 183.937 114.361 188.34Z" fill="#66BB6A"/>
<path d="M134.693 212.202C141.331 190.341 170.21 149.557 232.618 161.301C310.627 175.981 196.525 234.487 134.693 212.202Z" fill="#66BB6A"/>
<path d="M84.6932 214.438C80.1017 175.371 62.7959 95.3415 30.3047 87.7653C-10.3092 78.2951 -32.9808 156.111 84.6932 214.438Z" fill="#66BB6A"/>
<path d="M111.331 293.077C119.165 269.236 144.856 225.291 184.944 240.235C235.054 258.915 136.667 293.32 111.331 293.077Z" fill="#66BB6A"/>
<path d="M113.156 309.237C127.576 301.344 162.252 290.47 185.594 310.127C214.771 334.699 156.535 362.078 113.156 309.237Z" fill="#66BB6A"/>
<path d="M58.6438 401.416C64.865 386.64 85.5041 356.942 118.291 356.356C159.274 355.625 151.964 413.76 58.6438 401.416Z" fill="#66BB6A"/>
<path d="M1.00328 399.037C13.0116 382.351 34.8954 345.605 26.3641 332.112C15.6999 315.247 -27.8466 320.222 1.00328 399.037Z" fill="#66BB6A"/>
<path d="M-9.0391 402.239C-17.9723 374.836 -43.0907 322.831 -72.0993 334.038C-108.36 348.047 -62.468 413.988 -9.0391 402.239Z" fill="#66BB6A"/>
<path d="M55.6599 316.213C56.9929 286.516 50.4857 223.897 13.7928 211.003C-32.0734 194.886 -9.72757 288.306 55.6599 316.213Z" fill="#66BB6A"/>
<g style="mix-blend-mode:hue">
<path d="M114.361 188.34C96.6321 144.813 83.0196 39.678 130.25 45.0361C196.373 52.5373 120.496 183.937 114.361 188.34Z" fill="#66BB6A"/>
<path d="M134.693 212.202C141.331 190.341 170.21 149.557 232.618 161.301C310.627 175.981 196.525 234.487 134.693 212.202Z" fill="#66BB6A"/>
<path d="M84.6932 214.438C80.1017 175.371 62.7959 95.3415 30.3047 87.7653C-10.3092 78.2951 -32.9808 156.111 84.6932 214.438Z" fill="#66BB6A"/>
<path d="M111.331 293.077C119.165 269.236 144.856 225.291 184.944 240.235C235.054 258.915 136.667 293.32 111.331 293.077Z" fill="#66BB6A"/>
<path d="M113.156 309.237C127.576 301.344 162.252 290.47 185.594 310.127C214.771 334.699 156.535 362.078 113.156 309.237Z" fill="#66BB6A"/>
<path d="M58.6438 401.416C64.865 386.64 85.5041 356.942 118.291 356.356C159.274 355.625 151.964 413.76 58.6438 401.416Z" fill="#66BB6A"/>
<path d="M1.00328 399.037C13.0116 382.351 34.8954 345.605 26.3641 332.112C15.6999 315.247 -27.8466 320.222 1.00328 399.037Z" fill="#66BB6A"/>
<path d="M-9.0391 402.239C-17.9723 374.836 -43.0907 322.831 -72.0993 334.038C-108.36 348.047 -62.468 413.988 -9.0391 402.239Z" fill="#66BB6A"/>
<path d="M55.6599 316.213C56.9929 286.516 50.4857 223.897 13.7928 211.003C-32.0734 194.886 -9.72757 288.306 55.6599 316.213Z" fill="#66BB6A"/>
</g>
<path d="M-23.2715 502.526C-13.5842 491.908 -1.082 475.451 12.6258 453.547M125.272 118.479C119.844 161.915 111.794 202.271 102.107 239.307M102.107 239.307C115.879 223.535 156.387 190.091 208.24 182.487M102.107 239.307C101.791 240.513 101.474 241.715 101.155 242.914M101.155 242.914L47.6411 149.203M101.155 242.914C92.6545 274.875 82.9444 304.329 72.6694 331.119M72.6694 331.119C76.4005 326.13 82.0963 319.465 89.367 312.185M72.6694 331.119C69.8483 338.474 66.9845 345.629 64.0915 352.58M168.047 262.463C135.983 271.621 107.68 293.851 89.367 312.185M89.367 312.185C98.039 309.334 123.403 305.696 155.484 313.951M64.0915 352.58C61.9224 334.281 50.8108 287.8 23.7177 248.271M64.0915 352.58C53.7366 377.459 43.0069 399.724 32.5144 419.226M32.5144 419.226C45.3728 409.616 78.1366 387.936 106.325 378.086M32.5144 419.226C25.7306 431.835 19.046 443.288 12.6258 453.547M12.6258 453.547C11.9136 446.411 8.95112 434.906 2.48638 421.518M-49.7271 360.29C-22.8962 379.755 -6.68244 402.53 2.48638 421.518M2.48638 421.518C0.311794 407.217 -1.84918 374.61 6.90366 358.583" stroke="black" stroke-width="2.56042"/>
</svg>
