<svg width="114" height="105" viewBox="0 0 114 105" fill="none" xmlns="http://www.w3.org/2000/svg">
<path d="M69.9249 16.3931C93.239 25.4205 108.003 48.9481 100.529 68.2498C93.0551 87.5516 65.0907 96.4518 41.7766 87.4245C18.4625 78.3971 6.23236 55.1526 13.7061 35.8509C21.1799 16.5492 46.6108 7.36573 69.9249 16.3931Z" fill="url(#paint0_linear_132_129)"/>
<path d="M13.819 49.9007C15.3778 61.7303 22.6113 79.8445 47.175 86.7031C50.7754 75.7006 53.0084 50.6845 43.7339 26.9202" stroke="#E4ECE5" stroke-width="2.07805"/>
<path d="M13.5754 48.5817C13.3393 42.423 15.1066 33.0738 21.6977 27.745M42.3288 24.6259C32.7127 22.4044 26.1196 24.1699 21.6977 27.745M21.6977 27.745C24.2193 40.9071 32.5961 70.7602 45.9305 84.8761" stroke="#E4ECE5" stroke-width="2.07805"/>
<path d="M50.0889 83.5874C53.5208 86.547 61.0836 90.9361 68.7913 82.5483" stroke="#E4ECE5" stroke-width="2.07805"/>
<path d="M62.9355 15.4487C64.5988 17.5185 67.2772 21.942 69.2978 27.917M72.0034 42.5578C71.8161 37.0955 70.7199 32.122 69.2978 27.917M69.2978 27.917C73.4742 25.3982 80.9579 24.7999 77.4819 42.5578" stroke="#E4ECE5" stroke-width="2.07805"/>
<path d="M80.4102 28.1057C80.5623 28.7939 81.0367 29.9858 81.1658 31.0339M80.4102 42.7465C81.5117 38.307 81.5978 34.5412 81.1658 31.0339M81.1658 31.0339C86.3609 29.3759 93.0862 32.4885 86.3609 44.3523" stroke="#E4ECE5" stroke-width="2.07805"/>
<path d="M96.0218 42.3199C95.4562 44.3933 93.7336 45.3879 92.4229 45.0304C91.1122 44.6729 90.1333 42.9413 90.6989 40.8679C91.2645 38.7944 92.9871 37.7998 94.2978 38.1573C95.6085 38.5149 96.5874 40.2464 96.0218 42.3199Z" stroke="#E4ECE5" stroke-width="1.88913"/>
<path d="M66.5329 26.4478C61.1489 31.5552 59.3005 36.7504 61.1488 40.5218C62.737 43.7625 67.3829 42.5054 69.7443 41.3719" stroke="#E4ECE5" stroke-width="2.07805"/>
<path d="M84.3777 46.1826C66.3097 37.6882 60.7367 57.1463 72.0038 59.3121C95.8629 63.8983 93.9161 74.0823 89.2896 79.2425C84.3777 84.7209 74.7433 87.3657 69.7368 82.6429" stroke="#E4ECE5" stroke-width="2.07805"/>
<path d="M81.2325 59.4134C81.1066 54.7221 84.9327 43.1234 91.3665 47.0328C96.8181 50.3455 92.6934 59.2559 88.8836 62.9083" stroke="#E4ECE5" stroke-width="2.07805"/>
<path d="M92.8789 70.8359C95.0199 70.3951 99.3397 67.7944 99.4909 60.918" stroke="#E4ECE5" stroke-width="2.07805"/>
<path d="M51.7627 49.6839C64.5819 42.1024 69.8984 60.3576 52.6401 85.004" stroke="#E4ECE5" stroke-width="2.07805"/>
<path d="M64.8252 66.3878C88.4628 65.822 90.2071 76.6989 81.6837 80.6275C70.6313 85.7218 65.8956 72.7061 72.4963 61.2012" stroke="#E4ECE5" stroke-width="2.07805"/>
<path d="M48.929 36.8811C55.1316 35.7791 62.1529 27.6243 60.7361 23.1461C58.6515 16.5574 48.3623 16.7188 44.584 24.5586" stroke="#E4ECE5" stroke-width="2.07805"/>
<path d="M50.4404 43.2028C51.9543 43.9325 55.7362 44.6256 58.7526 41.561" stroke="#E4ECE5" stroke-width="2.07805"/>
<defs>
<linearGradient id="paint0_linear_132_129" x1="13.7939" y1="35.6241" x2="100.206" y2="69.0835" gradientUnits="userSpaceOnUse">
<stop stop-color="#FFD13E"/>
<stop offset="1" stop-color="#F99A02"/>
</linearGradient>
</defs>
</svg>
