<svg width="312" height="285" viewBox="0 0 312 285" fill="none" xmlns="http://www.w3.org/2000/svg">
<path d="M168.528 212.451V284.655L240.731 246.919L250.834 177.389L235.383 183.995L231.817 185.519L179.945 207.697L168.528 212.451Z" fill="#FFDB70"/>
<g filter="url(#filter0_d_63_189)">
<path d="M225.244 241.143L231.818 186.006L180.117 208.12L181.91 262.667L225.244 241.143Z" fill="#462E0E"/>
</g>
<path d="M168.527 284.655V212.451C164.121 211.396 159.337 210.241 154.265 209.007C112.904 198.948 52.4574 183.667 22.6344 174.313C21.2823 173.889 19.9932 173.477 18.7716 173.078C10.8789 170.502 5.80727 168.479 4.80632 167.287C-0.185532 161.344 12.1356 216.017 18.7716 243.947C66.4122 258.21 162.822 286.081 168.527 284.655Z" fill="#FFDB70"/>
<path d="M153.969 267.124V209.182L22.6354 174.418C24.7153 192.543 29.41 229.269 31.5494 231.17C33.6888 233.072 114.054 255.932 153.969 267.124Z" fill="#462E0E"/>
<path d="M165.855 182.44L224.094 154.807L88.6005 125.688C68.8906 131.928 29.7679 145.001 30.9565 147.379C32.145 149.756 121.384 171.744 165.855 182.44Z" fill="url(#paint0_linear_63_189)"/>
<ellipse cx="7.4412" cy="7.01677" rx="7.4412" ry="7.01677" transform="matrix(0.959608 -0.28134 -0.320537 -0.947236 152.289 178.8)" fill="#F4C33D"/>
<ellipse cx="6.26101" cy="5.90389" rx="6.26101" ry="5.90389" transform="matrix(0.959608 -0.28134 -0.320537 -0.947236 153.035 177.402)" fill="#EB8D10"/>
<ellipse cx="5.72092" cy="5.39461" rx="5.72092" ry="5.39461" transform="matrix(0.959608 -0.28134 -0.320537 -0.947236 153.395 176.708)" fill="#F4C33D"/>
<ellipse cx="7.4412" cy="3.94687" rx="7.4412" ry="3.94687" transform="matrix(0.959608 -0.28134 -0.320537 -0.947236 149.084 168.858)" fill="#F4C33D"/>
<ellipse cx="6.26101" cy="3.32089" rx="6.26101" ry="3.32089" transform="matrix(0.959608 -0.28134 -0.320537 -0.947236 149.992 167.928)" fill="#EB8D10"/>
<ellipse cx="5.72092" cy="3.03442" rx="5.72092" ry="3.03442" transform="matrix(0.959608 -0.28134 -0.320537 -0.947236 150.428 167.469)" fill="#F4C33D"/>
<ellipse cx="7.4412" cy="3.94687" rx="7.4412" ry="3.94687" transform="matrix(0.959608 -0.28134 -0.320537 -0.947236 130.506 175.467)" fill="#F4C33D"/>
<ellipse cx="6.26101" cy="3.32089" rx="6.26101" ry="3.32089" transform="matrix(0.959608 -0.28134 -0.320537 -0.947236 131.414 174.538)" fill="#EB8D10"/>
<ellipse cx="5.72092" cy="3.03442" rx="5.72092" ry="3.03442" transform="matrix(0.959608 -0.28134 -0.320537 -0.947236 131.85 174.079)" fill="#F4C33D"/>
<ellipse cx="7.4412" cy="7.01677" rx="7.4412" ry="7.01677" transform="matrix(0.959608 -0.28134 -0.320537 -0.947236 143.395 184.594)" fill="#F4C33D"/>
<ellipse cx="6.26101" cy="5.90389" rx="6.26101" ry="5.90389" transform="matrix(0.959608 -0.28134 -0.320537 -0.947236 144.141 183.195)" fill="#EB8D10"/>
<ellipse cx="5.72092" cy="5.39461" rx="5.72092" ry="5.39461" transform="matrix(0.959608 -0.28134 -0.320537 -0.947236 144.5 182.502)" fill="#F4C33D"/>
<ellipse cx="7.4412" cy="7.01677" rx="7.4412" ry="7.01677" transform="matrix(0.959608 -0.28134 -0.320537 -0.947236 158.951 175.49)" fill="#F4C33D"/>
<ellipse cx="6.26101" cy="5.90389" rx="6.26101" ry="5.90389" transform="matrix(0.959608 -0.28134 -0.320537 -0.947236 159.697 174.092)" fill="#EB8D10"/>
<ellipse cx="5.72092" cy="5.39461" rx="5.72092" ry="5.39461" transform="matrix(0.959608 -0.28134 -0.320537 -0.947236 160.057 173.398)" fill="#F4C33D"/>
<ellipse cx="7.4412" cy="7.01677" rx="7.4412" ry="7.01677" transform="matrix(0.959608 -0.28134 -0.320537 -0.947236 153 161.092)" fill="#F4C33D"/>
<ellipse cx="6.26101" cy="5.90389" rx="6.26101" ry="5.90389" transform="matrix(0.959608 -0.28134 -0.320537 -0.947236 153.746 159.694)" fill="#EB8D10"/>
<ellipse cx="5.72092" cy="5.39461" rx="5.72092" ry="5.39461" transform="matrix(0.959608 -0.28134 -0.320537 -0.947236 154.105 159)" fill="#F4C33D"/>
<ellipse cx="7.32158" cy="7.1415" rx="7.32158" ry="7.1415" transform="matrix(0.839411 -0.543497 -0.598624 -0.80103 174.725 180.719)" fill="#F4C33D"/>
<ellipse cx="6.16036" cy="6.00884" rx="6.16036" ry="6.00884" transform="matrix(0.839411 -0.543497 -0.598624 -0.80103 174.994 179.175)" fill="#EB8D10"/>
<ellipse cx="5.62896" cy="5.49051" rx="5.62896" ry="5.49051" transform="matrix(0.839411 -0.543497 -0.598624 -0.80103 175.113 178.415)" fill="#F4C33D"/>
<ellipse cx="7.4412" cy="3.83362" rx="7.4412" ry="3.83362" transform="matrix(0.959608 -0.28134 -0.320537 -0.947236 140.732 162.425)" fill="#F4C33D"/>
<ellipse cx="6.26101" cy="3.2256" rx="6.26101" ry="3.2256" transform="matrix(0.959608 -0.28134 -0.320537 -0.947236 141.646 161.512)" fill="#EB8D10"/>
<ellipse cx="5.72092" cy="2.94736" rx="5.72092" ry="2.94736" transform="matrix(0.959608 -0.28134 -0.320537 -0.947236 142.084 161.062)" fill="#F4C33D"/>
<ellipse cx="7.4412" cy="5.27264" rx="7.4412" ry="5.27264" transform="matrix(0.959608 -0.28134 -0.320537 -0.947236 143.84 173.013)" fill="#F4C33D"/>
<ellipse cx="6.26101" cy="4.43639" rx="6.26101" ry="4.43639" transform="matrix(0.959608 -0.28134 -0.320537 -0.947236 144.68 171.881)" fill="#EB8D10"/>
<ellipse cx="5.72092" cy="4.0537" rx="5.72092" ry="4.0537" transform="matrix(0.959608 -0.28134 -0.320537 -0.947236 145.082 171.322)" fill="#F4C33D"/>
<ellipse cx="7.4412" cy="5.27264" rx="7.4412" ry="5.27264" transform="matrix(0.959608 -0.28134 -0.320537 -0.947236 127.838 164.737)" fill="#F4C33D"/>
<ellipse cx="6.26101" cy="4.43639" rx="6.26101" ry="4.43639" transform="matrix(0.959608 -0.28134 -0.320537 -0.947236 128.678 163.605)" fill="#EB8D10"/>
<ellipse cx="5.72092" cy="4.0537" rx="5.72092" ry="4.0537" transform="matrix(0.959608 -0.28134 -0.320537 -0.947236 129.08 163.046)" fill="#F4C33D"/>
<ellipse cx="7.4412" cy="7.01677" rx="7.4412" ry="7.01677" transform="matrix(0.959608 -0.28134 -0.320537 -0.947236 163.398 185.421)" fill="#F4C33D"/>
<ellipse cx="6.26101" cy="5.90389" rx="6.26101" ry="5.90389" transform="matrix(0.959608 -0.28134 -0.320537 -0.947236 164.145 184.022)" fill="#EB8D10"/>
<ellipse cx="5.72092" cy="5.39461" rx="5.72092" ry="5.39461" transform="matrix(0.959608 -0.28134 -0.320537 -0.947236 164.504 183.329)" fill="#F4C33D"/>
<ellipse cx="7.4412" cy="7.01677" rx="7.4412" ry="7.01677" transform="matrix(0.959608 -0.28134 -0.320537 -0.947236 154.512 185.421)" fill="#F4C33D"/>
<ellipse cx="6.26101" cy="5.90389" rx="6.26101" ry="5.90389" transform="matrix(0.959608 -0.28134 -0.320537 -0.947236 155.258 184.022)" fill="#EB8D10"/>
<ellipse cx="5.72092" cy="5.39461" rx="5.72092" ry="5.39461" transform="matrix(0.959608 -0.28134 -0.320537 -0.947236 155.617 183.329)" fill="#F4C33D"/>
<ellipse cx="7.4412" cy="7.01677" rx="7.4412" ry="7.01677" transform="matrix(0.959608 -0.28134 -0.320537 -0.947236 132.281 179.627)" fill="#F4C33D"/>
<ellipse cx="6.26101" cy="5.90389" rx="6.26101" ry="5.90389" transform="matrix(0.959608 -0.28134 -0.320537 -0.947236 133.027 178.229)" fill="#EB8D10"/>
<ellipse cx="5.72092" cy="5.39461" rx="5.72092" ry="5.39461" transform="matrix(0.959608 -0.28134 -0.320537 -0.947236 133.387 177.535)" fill="#F4C33D"/>
<ellipse cx="7.4412" cy="7.01677" rx="7.4412" ry="7.01677" transform="matrix(0.959608 -0.28134 -0.320537 -0.947236 87.3848 161.008)" fill="#F4C33D"/>
<ellipse cx="6.26101" cy="5.90389" rx="6.26101" ry="5.90389" transform="matrix(0.959608 -0.28134 -0.320537 -0.947236 88.1309 159.609)" fill="#EB8D10"/>
<ellipse cx="5.72092" cy="5.39461" rx="5.72092" ry="5.39461" transform="matrix(0.959608 -0.28134 -0.320537 -0.947236 88.4902 158.916)" fill="#F4C33D"/>
<ellipse cx="7.4412" cy="7.01677" rx="7.4412" ry="7.01677" transform="matrix(0.959608 -0.28134 -0.320537 -0.947236 124.281 171.765)" fill="#F4C33D"/>
<ellipse cx="6.26101" cy="5.90389" rx="6.26101" ry="5.90389" transform="matrix(0.959608 -0.28134 -0.320537 -0.947236 125.031 170.367)" fill="#EB8D10"/>
<ellipse cx="5.72092" cy="5.39461" rx="5.72092" ry="5.39461" transform="matrix(0.959608 -0.28134 -0.320537 -0.947236 125.387 169.673)" fill="#F4C33D"/>
<ellipse cx="7.4412" cy="7.01677" rx="7.4412" ry="7.01677" transform="matrix(0.959608 -0.28134 -0.320537 -0.947236 113.387 176.983)" fill="#F4C33D"/>
<ellipse cx="6.26101" cy="5.90389" rx="6.26101" ry="5.90389" transform="matrix(0.959608 -0.28134 -0.320537 -0.947236 114.133 175.585)" fill="#EB8D10"/>
<ellipse cx="5.72092" cy="5.39461" rx="5.72092" ry="5.39461" transform="matrix(0.959608 -0.28134 -0.320537 -0.947236 114.492 174.891)" fill="#F4C33D"/>
<ellipse cx="7.46936" cy="6.98678" rx="7.46936" ry="6.98678" transform="matrix(0.985012 -0.172483 -0.198104 -0.980181 96.9766 161.232)" fill="#F4C33D"/>
<ellipse cx="6.2847" cy="5.87867" rx="6.2847" ry="5.87867" transform="matrix(0.985012 -0.172483 -0.198104 -0.980181 97.9004 159.927)" fill="#EB8D10"/>
<ellipse cx="5.74257" cy="5.37156" rx="5.74257" ry="5.37156" transform="matrix(0.985012 -0.172483 -0.198104 -0.980181 98.3457 159.278)" fill="#F4C33D"/>
<ellipse cx="7.4412" cy="7.01677" rx="7.4412" ry="7.01677" transform="matrix(0.959608 -0.28134 -0.320537 -0.947236 94.1895 172.18)" fill="#F4C33D"/>
<ellipse cx="6.26101" cy="5.90389" rx="6.26101" ry="5.90389" transform="matrix(0.959608 -0.28134 -0.320537 -0.947236 94.9355 170.782)" fill="#EB8D10"/>
<ellipse cx="5.72092" cy="5.39461" rx="5.72092" ry="5.39461" transform="matrix(0.959608 -0.28134 -0.320537 -0.947236 95.2949 170.088)" fill="#F4C33D"/>
<ellipse cx="7.4412" cy="7.01677" rx="7.4412" ry="7.01677" transform="matrix(0.959608 -0.28134 -0.320537 -0.947236 111.84 159.766)" fill="#F4C33D"/>
<ellipse cx="6.26101" cy="5.90389" rx="6.26101" ry="5.90389" transform="matrix(0.959608 -0.28134 -0.320537 -0.947236 112.586 158.368)" fill="#EB8D10"/>
<ellipse cx="5.72092" cy="5.39461" rx="5.72092" ry="5.39461" transform="matrix(0.959608 -0.28134 -0.320537 -0.947236 112.945 157.674)" fill="#F4C33D"/>
<ellipse cx="7.4412" cy="7.01677" rx="7.4412" ry="7.01677" transform="matrix(0.959608 -0.28134 -0.320537 -0.947236 106.943 166.8)" fill="#F4C33D"/>
<ellipse cx="6.26101" cy="5.90389" rx="6.26101" ry="5.90389" transform="matrix(0.959608 -0.28134 -0.320537 -0.947236 107.689 165.402)" fill="#EB8D10"/>
<ellipse cx="5.72092" cy="5.39461" rx="5.72092" ry="5.39461" transform="matrix(0.959608 -0.28134 -0.320537 -0.947236 108.049 164.708)" fill="#F4C33D"/>
<ellipse cx="7.4412" cy="7.01677" rx="7.4412" ry="7.01677" transform="matrix(0.959608 -0.28134 -0.320537 -0.947236 114.945 168.869)" fill="#F4C33D"/>
<ellipse cx="6.26101" cy="5.90389" rx="6.26101" ry="5.90389" transform="matrix(0.959608 -0.28134 -0.320537 -0.947236 115.691 167.471)" fill="#EB8D10"/>
<ellipse cx="5.72092" cy="5.39461" rx="5.72092" ry="5.39461" transform="matrix(0.959608 -0.28134 -0.320537 -0.947236 116.051 166.777)" fill="#F4C33D"/>
<ellipse cx="7.4412" cy="7.01677" rx="7.4412" ry="7.01677" transform="matrix(0.959608 -0.28134 -0.320537 -0.947236 119.395 159.352)" fill="#F4C33D"/>
<ellipse cx="6.26101" cy="5.90389" rx="6.26101" ry="5.90389" transform="matrix(0.959608 -0.28134 -0.320537 -0.947236 120.141 157.954)" fill="#EB8D10"/>
<ellipse cx="5.72092" cy="5.39461" rx="5.72092" ry="5.39461" transform="matrix(0.959608 -0.28134 -0.320537 -0.947236 120.5 157.26)" fill="#F4C33D"/>
<ellipse cx="7.4412" cy="2.92892" rx="7.4412" ry="2.92892" transform="matrix(0.959608 -0.28134 -0.320537 -0.947236 70.9395 164.021)" fill="#F4C33D"/>
<ellipse cx="6.26101" cy="2.46439" rx="6.26101" ry="2.46439" transform="matrix(0.959608 -0.28134 -0.320537 -0.947236 71.8984 163.247)" fill="#EB8D10"/>
<ellipse cx="5.72092" cy="2.2518" rx="5.72092" ry="2.2518" transform="matrix(0.959608 -0.28134 -0.320537 -0.947236 72.3652 162.865)" fill="#F4C33D"/>
<ellipse cx="7.4412" cy="7.01677" rx="7.4412" ry="7.01677" transform="matrix(0.959608 -0.28134 -0.320537 -0.947236 135.395 168.456)" fill="#F4C33D"/>
<ellipse cx="6.26101" cy="5.90389" rx="6.26101" ry="5.90389" transform="matrix(0.959608 -0.28134 -0.320537 -0.947236 136.141 167.056)" fill="#EB8D10"/>
<ellipse cx="5.72092" cy="5.39461" rx="5.72092" ry="5.39461" transform="matrix(0.959608 -0.28134 -0.320537 -0.947236 136.5 166.363)" fill="#F4C33D"/>
<ellipse cx="7.4412" cy="7.01677" rx="7.4412" ry="7.01677" transform="matrix(0.959608 -0.28134 -0.320537 -0.947236 120.279 182.524)" fill="#F4C33D"/>
<ellipse cx="6.26101" cy="5.90389" rx="6.26101" ry="5.90389" transform="matrix(0.959608 -0.28134 -0.320537 -0.947236 121.027 181.126)" fill="#EB8D10"/>
<ellipse cx="5.72092" cy="5.39461" rx="5.72092" ry="5.39461" transform="matrix(0.959608 -0.28134 -0.320537 -0.947236 121.385 180.432)" fill="#F4C33D"/>
<ellipse cx="7.4412" cy="7.01677" rx="7.4412" ry="7.01677" transform="matrix(0.959608 -0.28134 -0.320537 -0.947236 81.6035 170.525)" fill="#F4C33D"/>
<ellipse cx="6.26101" cy="5.90389" rx="6.26101" ry="5.90389" transform="matrix(0.959608 -0.28134 -0.320537 -0.947236 82.3496 169.126)" fill="#EB8D10"/>
<ellipse cx="5.72092" cy="5.39461" rx="5.72092" ry="5.39461" transform="matrix(0.959608 -0.28134 -0.320537 -0.947236 82.709 168.432)" fill="#F4C33D"/>
<ellipse cx="7.4412" cy="7.06938" rx="7.4412" ry="7.06938" transform="matrix(-0.967111 -0.254355 -0.214397 0.976746 76.0312 149.614)" fill="#F4C33D"/>
<ellipse cx="6.26101" cy="5.94816" rx="6.26101" ry="5.94816" transform="matrix(-0.967111 -0.254355 -0.214397 0.976746 74.666 150.433)" fill="#EB8D10"/>
<ellipse cx="5.72092" cy="5.43506" rx="5.72092" ry="5.43506" transform="matrix(-0.967111 -0.254355 -0.214397 0.976746 74.0039 150.847)" fill="#F4C33D"/>
<ellipse cx="7.4412" cy="7.06938" rx="7.4412" ry="7.06938" transform="matrix(-0.967111 -0.254355 -0.214397 0.976746 76.4512 141.171)" fill="#F4C33D"/>
<ellipse cx="6.26101" cy="5.94816" rx="6.26101" ry="5.94816" transform="matrix(-0.967111 -0.254355 -0.214397 0.976746 75.082 141.99)" fill="#EB8D10"/>
<ellipse cx="5.72092" cy="5.43506" rx="5.72092" ry="5.43506" transform="matrix(-0.967111 -0.254355 -0.214397 0.976746 74.4199 142.404)" fill="#F4C33D"/>
<ellipse cx="7.4412" cy="7.06938" rx="7.4412" ry="7.06938" transform="matrix(-0.967111 -0.254355 -0.214397 0.976746 85.7695 138.469)" fill="#F4C33D"/>
<ellipse cx="6.26101" cy="5.94816" rx="6.26101" ry="5.94816" transform="matrix(-0.967111 -0.254355 -0.214397 0.976746 84.4004 139.288)" fill="#EB8D10"/>
<ellipse cx="5.72092" cy="5.43506" rx="5.72092" ry="5.43506" transform="matrix(-0.967111 -0.254355 -0.214397 0.976746 83.7363 139.701)" fill="#F4C33D"/>
<ellipse cx="7.4412" cy="7.01677" rx="7.4412" ry="7.01677" transform="matrix(0.959608 -0.28134 -0.320537 -0.947236 100.725 173.421)" fill="#F4C33D"/>
<ellipse cx="6.26101" cy="5.90389" rx="6.26101" ry="5.90389" transform="matrix(0.959608 -0.28134 -0.320537 -0.947236 101.471 172.022)" fill="#EB8D10"/>
<ellipse cx="5.72092" cy="5.39461" rx="5.72092" ry="5.39461" transform="matrix(0.959608 -0.28134 -0.320537 -0.947236 101.83 171.328)" fill="#F4C33D"/>
<ellipse cx="7.4412" cy="7.01677" rx="7.4412" ry="7.01677" transform="matrix(0.959608 -0.28134 -0.320537 -0.947236 99.3906 158.111)" fill="#F4C33D"/>
<ellipse cx="6.26101" cy="5.90389" rx="6.26101" ry="5.90389" transform="matrix(0.959608 -0.28134 -0.320537 -0.947236 100.139 156.713)" fill="#EB8D10"/>
<ellipse cx="5.72092" cy="5.39461" rx="5.72092" ry="5.39461" transform="matrix(0.959608 -0.28134 -0.320537 -0.947236 100.496 156.019)" fill="#F4C33D"/>
<ellipse cx="7.4412" cy="7.01677" rx="7.4412" ry="7.01677" transform="matrix(0.959608 -0.28134 -0.320537 -0.947236 100.725 151.49)" fill="#F4C33D"/>
<ellipse cx="6.26101" cy="5.90389" rx="6.26101" ry="5.90389" transform="matrix(0.959608 -0.28134 -0.320537 -0.947236 101.471 150.092)" fill="#EB8D10"/>
<ellipse cx="5.72092" cy="5.39461" rx="5.72092" ry="5.39461" transform="matrix(0.959608 -0.28134 -0.320537 -0.947236 101.83 149.399)" fill="#F4C33D"/>
<ellipse cx="7.4412" cy="4.17235" rx="7.4412" ry="4.17235" transform="matrix(0.959608 -0.28134 -0.320537 -0.947236 89.6055 151.895)" fill="#F4C33D"/>
<ellipse cx="6.26101" cy="3.51061" rx="6.26101" ry="3.51061" transform="matrix(0.959608 -0.28134 -0.320537 -0.947236 90.502 150.931)" fill="#EB8D10"/>
<ellipse cx="5.72092" cy="3.20778" rx="5.72092" ry="3.20778" transform="matrix(0.959608 -0.28134 -0.320537 -0.947236 90.9355 150.455)" fill="#F4C33D"/>
<ellipse cx="7.4412" cy="4.17235" rx="7.4412" ry="4.17235" transform="matrix(0.959608 -0.28134 -0.320537 -0.947236 106.504 168.032)" fill="#F4C33D"/>
<ellipse cx="6.26101" cy="3.51061" rx="6.26101" ry="3.51061" transform="matrix(0.959608 -0.28134 -0.320537 -0.947236 107.4 167.068)" fill="#EB8D10"/>
<ellipse cx="5.72092" cy="3.20778" rx="5.72092" ry="3.20778" transform="matrix(0.959608 -0.28134 -0.320537 -0.947236 107.834 166.592)" fill="#F4C33D"/>
<ellipse cx="7.4412" cy="4.17235" rx="7.4412" ry="4.17235" transform="matrix(0.959608 -0.28134 -0.320537 -0.947236 88.7168 147.757)" fill="#F4C33D"/>
<ellipse cx="6.26101" cy="3.51061" rx="6.26101" ry="3.51061" transform="matrix(0.959608 -0.28134 -0.320537 -0.947236 89.6133 146.792)" fill="#EB8D10"/>
<ellipse cx="5.72092" cy="3.20778" rx="5.72092" ry="3.20778" transform="matrix(0.959608 -0.28134 -0.320537 -0.947236 90.0469 146.316)" fill="#F4C33D"/>
<ellipse cx="7.4412" cy="7.01677" rx="7.4412" ry="7.01677" transform="matrix(0.959608 -0.28134 -0.320537 -0.947236 78.4883 158.938)" fill="#F4C33D"/>
<ellipse cx="6.26101" cy="5.90389" rx="6.26101" ry="5.90389" transform="matrix(0.959608 -0.28134 -0.320537 -0.947236 79.2344 157.54)" fill="#EB8D10"/>
<ellipse cx="5.72092" cy="5.39461" rx="5.72092" ry="5.39461" transform="matrix(0.959608 -0.28134 -0.320537 -0.947236 79.5938 156.846)" fill="#F4C33D"/>
<ellipse cx="7.4412" cy="7.01677" rx="7.4412" ry="7.01677" transform="matrix(0.959608 -0.28134 -0.320537 -0.947236 139.393 188.731)" fill="#F4C33D"/>
<ellipse cx="6.26101" cy="5.90389" rx="6.26101" ry="5.90389" transform="matrix(0.959608 -0.28134 -0.320537 -0.947236 140.139 187.333)" fill="#EB8D10"/>
<ellipse cx="5.72092" cy="5.39461" rx="5.72092" ry="5.39461" transform="matrix(0.959608 -0.28134 -0.320537 -0.947236 140.498 186.639)" fill="#F4C33D"/>
<ellipse cx="7.4412" cy="7.01677" rx="7.4412" ry="7.01677" transform="matrix(0.959608 -0.28134 -0.320537 -0.947236 69.1582 169.282)" fill="#F4C33D"/>
<ellipse cx="6.26101" cy="5.90389" rx="6.26101" ry="5.90389" transform="matrix(0.959608 -0.28134 -0.320537 -0.947236 69.9043 167.884)" fill="#EB8D10"/>
<ellipse cx="5.72092" cy="5.39461" rx="5.72092" ry="5.39461" transform="matrix(0.959608 -0.28134 -0.320537 -0.947236 70.2637 167.19)" fill="#F4C33D"/>
<ellipse cx="7.4412" cy="2.92892" rx="7.4412" ry="2.92892" transform="matrix(0.959608 -0.28134 -0.320537 -0.947236 64.7129 160.298)" fill="#F4C33D"/>
<ellipse cx="6.26101" cy="2.46439" rx="6.26101" ry="2.46439" transform="matrix(0.959608 -0.28134 -0.320537 -0.947236 65.6719 159.523)" fill="#EB8D10"/>
<ellipse cx="5.72092" cy="2.2518" rx="5.72092" ry="2.2518" transform="matrix(0.959608 -0.28134 -0.320537 -0.947236 66.1348 159.142)" fill="#F4C33D"/>
<ellipse cx="7.4412" cy="7.01677" rx="7.4412" ry="7.01677" transform="matrix(0.959608 -0.28134 -0.320537 -0.947236 67.377 158.525)" fill="#F4C33D"/>
<ellipse cx="6.26101" cy="5.90389" rx="6.26101" ry="5.90389" transform="matrix(0.959608 -0.28134 -0.320537 -0.947236 68.123 157.127)" fill="#EB8D10"/>
<ellipse cx="5.72092" cy="5.39461" rx="5.72092" ry="5.39461" transform="matrix(0.959608 -0.28134 -0.320537 -0.947236 68.4824 156.433)" fill="#F4C33D"/>
<ellipse cx="7.4412" cy="7.01677" rx="7.4412" ry="7.01677" transform="matrix(0.959608 -0.28134 -0.320537 -0.947236 58.9336 163.489)" fill="#F4C33D"/>
<ellipse cx="6.26101" cy="5.90389" rx="6.26101" ry="5.90389" transform="matrix(0.959608 -0.28134 -0.320537 -0.947236 59.6797 162.091)" fill="#EB8D10"/>
<ellipse cx="5.72092" cy="5.39461" rx="5.72092" ry="5.39461" transform="matrix(0.959608 -0.28134 -0.320537 -0.947236 60.0391 161.398)" fill="#F4C33D"/>
<ellipse cx="7.4412" cy="7.01677" rx="7.4412" ry="7.01677" transform="matrix(0.959608 -0.28134 -0.320537 -0.947236 129.615 158.111)" fill="#F4C33D"/>
<ellipse cx="6.26101" cy="5.90389" rx="6.26101" ry="5.90389" transform="matrix(0.959608 -0.28134 -0.320537 -0.947236 130.361 156.713)" fill="#EB8D10"/>
<ellipse cx="5.72092" cy="5.39461" rx="5.72092" ry="5.39461" transform="matrix(0.959608 -0.28134 -0.320537 -0.947236 130.721 156.019)" fill="#F4C33D"/>
<ellipse cx="7.4412" cy="7.01677" rx="7.4412" ry="7.01677" transform="matrix(0.959608 -0.28134 -0.320537 -0.947236 122.061 154.8)" fill="#F4C33D"/>
<ellipse cx="6.26101" cy="5.90389" rx="6.26101" ry="5.90389" transform="matrix(0.959608 -0.28134 -0.320537 -0.947236 122.807 153.402)" fill="#EB8D10"/>
<ellipse cx="5.72092" cy="5.39461" rx="5.72092" ry="5.39461" transform="matrix(0.959608 -0.28134 -0.320537 -0.947236 123.166 152.708)" fill="#F4C33D"/>
<ellipse cx="7.4412" cy="7.01677" rx="7.4412" ry="7.01677" transform="matrix(0.959608 -0.28134 -0.320537 -0.947236 108.725 149.836)" fill="#F4C33D"/>
<ellipse cx="6.26101" cy="5.90389" rx="6.26101" ry="5.90389" transform="matrix(0.959608 -0.28134 -0.320537 -0.947236 109.471 148.438)" fill="#EB8D10"/>
<ellipse cx="5.72092" cy="5.39461" rx="5.72092" ry="5.39461" transform="matrix(0.959608 -0.28134 -0.320537 -0.947236 109.83 147.744)" fill="#F4C33D"/>
<ellipse cx="7.4412" cy="7.01677" rx="7.4412" ry="7.01677" transform="matrix(0.959608 -0.28134 -0.320537 -0.947236 111.84 154.388)" fill="#F4C33D"/>
<ellipse cx="6.26101" cy="5.90389" rx="6.26101" ry="5.90389" transform="matrix(0.959608 -0.28134 -0.320537 -0.947236 112.586 152.99)" fill="#EB8D10"/>
<ellipse cx="5.72092" cy="5.39461" rx="5.72092" ry="5.39461" transform="matrix(0.959608 -0.28134 -0.320537 -0.947236 112.945 152.296)" fill="#F4C33D"/>
<ellipse cx="7.4412" cy="7.01677" rx="7.4412" ry="7.01677" transform="matrix(0.959608 -0.28134 -0.320537 -0.947236 81.6035 176.318)" fill="#F4C33D"/>
<ellipse cx="6.26101" cy="5.90389" rx="6.26101" ry="5.90389" transform="matrix(0.959608 -0.28134 -0.320537 -0.947236 82.3496 174.919)" fill="#EB8D10"/>
<ellipse cx="5.72092" cy="5.39461" rx="5.72092" ry="5.39461" transform="matrix(0.959608 -0.28134 -0.320537 -0.947236 82.709 174.225)" fill="#F4C33D"/>
<ellipse cx="7.4412" cy="7.06938" rx="7.4412" ry="7.06938" transform="matrix(0.959608 -0.28134 -0.320537 -0.947236 79.8398 146.442)" fill="#F4C33D"/>
<ellipse cx="6.26101" cy="5.94816" rx="6.26101" ry="5.94816" transform="matrix(0.959608 -0.28134 -0.320537 -0.947236 80.5859 145.035)" fill="#EB8D10"/>
<ellipse cx="5.72092" cy="5.43506" rx="5.72092" ry="5.43506" transform="matrix(0.959608 -0.28134 -0.320537 -0.947236 80.9414 144.338)" fill="#F4C33D"/>
<ellipse cx="7.4412" cy="7.06938" rx="7.4412" ry="7.06938" transform="matrix(0.959608 -0.28134 -0.320537 -0.947236 90.5059 148.097)" fill="#F4C33D"/>
<ellipse cx="6.26101" cy="5.94816" rx="6.26101" ry="5.94816" transform="matrix(0.959608 -0.28134 -0.320537 -0.947236 91.252 146.69)" fill="#EB8D10"/>
<ellipse cx="5.72092" cy="5.43506" rx="5.72092" ry="5.43506" transform="matrix(0.959608 -0.28134 -0.320537 -0.947236 91.6074 145.993)" fill="#F4C33D"/>
<ellipse cx="7.4412" cy="3.95419" rx="7.4412" ry="3.95419" transform="matrix(0.959608 -0.28134 -0.320537 -0.947236 52.709 157.688)" fill="#F4C33D"/>
<ellipse cx="6.26101" cy="3.32705" rx="6.26101" ry="3.32705" transform="matrix(0.959608 -0.28134 -0.320537 -0.947236 53.6172 156.758)" fill="#EB8D10"/>
<ellipse cx="5.72092" cy="3.04005" rx="5.72092" ry="3.04005" transform="matrix(0.959608 -0.28134 -0.320537 -0.947236 54.0527 156.298)" fill="#F4C33D"/>
<ellipse cx="7.4412" cy="4.72005" rx="7.4412" ry="4.72005" transform="matrix(0.959608 -0.28134 -0.320537 -0.947236 79.2383 152.103)" fill="#F4C33D"/>
<ellipse cx="6.26101" cy="3.97144" rx="6.26101" ry="3.97144" transform="matrix(0.959608 -0.28134 -0.320537 -0.947236 80.1094 151.055)" fill="#EB8D10"/>
<ellipse cx="5.72092" cy="3.62885" rx="5.72092" ry="3.62885" transform="matrix(0.959608 -0.28134 -0.320537 -0.947236 80.5254 150.537)" fill="#F4C33D"/>
<ellipse cx="7.4412" cy="7.06938" rx="7.4412" ry="7.06938" transform="matrix(0.959608 -0.28134 -0.320537 -0.947236 52.8555 159.638)" fill="#F4C33D"/>
<ellipse cx="6.26101" cy="5.94816" rx="6.26101" ry="5.94816" transform="matrix(0.959608 -0.28134 -0.320537 -0.947236 53.6035 158.231)" fill="#EB8D10"/>
<ellipse cx="5.72092" cy="5.43506" rx="5.72092" ry="5.43506" transform="matrix(0.959608 -0.28134 -0.320537 -0.947236 53.957 157.533)" fill="#F4C33D"/>
<ellipse cx="7.4412" cy="7.01677" rx="7.4412" ry="7.01677" transform="matrix(0.959608 -0.28134 -0.320537 -0.947236 126.504 182.938)" fill="#F4C33D"/>
<ellipse cx="6.26101" cy="5.90389" rx="6.26101" ry="5.90389" transform="matrix(0.959608 -0.28134 -0.320537 -0.947236 127.254 181.54)" fill="#EB8D10"/>
<ellipse cx="5.72092" cy="5.39461" rx="5.72092" ry="5.39461" transform="matrix(0.959608 -0.28134 -0.320537 -0.947236 127.609 180.847)" fill="#F4C33D"/>
<ellipse cx="7.4412" cy="7.01677" rx="7.4412" ry="7.01677" transform="matrix(0.959608 -0.28134 -0.320537 -0.947236 41.5977 163.489)" fill="#F4C33D"/>
<ellipse cx="6.26101" cy="5.90389" rx="6.26101" ry="5.90389" transform="matrix(0.959608 -0.28134 -0.320537 -0.947236 42.3438 162.091)" fill="#EB8D10"/>
<ellipse cx="5.72092" cy="5.39461" rx="5.72092" ry="5.39461" transform="matrix(0.959608 -0.28134 -0.320537 -0.947236 42.7031 161.397)" fill="#F4C33D"/>
<ellipse cx="7.4412" cy="4.45924" rx="7.4412" ry="4.45924" transform="matrix(0.959608 -0.28134 -0.320537 -0.947236 68.709 158.646)" fill="#F4C33D"/>
<ellipse cx="6.26101" cy="3.75199" rx="6.26101" ry="3.75199" transform="matrix(0.959608 -0.28134 -0.320537 -0.947236 69.5918 157.637)" fill="#EB8D10"/>
<ellipse cx="5.72092" cy="3.42834" rx="5.72092" ry="3.42834" transform="matrix(0.959608 -0.28134 -0.320537 -0.947236 70.0176 157.14)" fill="#F4C33D"/>
<ellipse cx="4.06693" cy="7.01677" rx="4.06693" ry="7.01677" transform="matrix(0.959608 -0.28134 -0.320537 -0.947236 154.322 178.97)" fill="#F4C33D"/>
<ellipse cx="3.42191" cy="5.90389" rx="3.42191" ry="5.90389" transform="matrix(0.959608 -0.28134 -0.320537 -0.947236 154.568 177.719)" fill="#EB8D10"/>
<ellipse cx="3.12673" cy="5.39461" rx="3.12673" ry="5.39461" transform="matrix(0.959608 -0.28134 -0.320537 -0.947236 154.678 177.098)" fill="#F4C33D"/>
<ellipse cx="4.06693" cy="7.01677" rx="4.06693" ry="7.01677" transform="matrix(0.959608 -0.28134 -0.320537 -0.947236 127.201 176.487)" fill="#F4C33D"/>
<ellipse cx="3.42191" cy="5.90389" rx="3.42191" ry="5.90389" transform="matrix(0.959608 -0.28134 -0.320537 -0.947236 127.447 175.236)" fill="#EB8D10"/>
<ellipse cx="3.12673" cy="5.39461" rx="3.12673" ry="5.39461" transform="matrix(0.959608 -0.28134 -0.320537 -0.947236 127.557 174.615)" fill="#F4C33D"/>
<ellipse cx="7.4412" cy="7.01677" rx="7.4412" ry="7.01677" transform="matrix(0.959608 -0.28134 -0.320537 -0.947236 160.73 165.973)" fill="#F4C33D"/>
<ellipse cx="6.26101" cy="5.90389" rx="6.26101" ry="5.90389" transform="matrix(0.959608 -0.28134 -0.320537 -0.947236 161.477 164.574)" fill="#EB8D10"/>
<ellipse cx="5.72092" cy="5.39461" rx="5.72092" ry="5.39461" transform="matrix(0.959608 -0.28134 -0.320537 -0.947236 161.836 163.881)" fill="#F4C33D"/>
<ellipse cx="7.4412" cy="7.01677" rx="7.4412" ry="7.01677" transform="matrix(0.959608 -0.28134 -0.320537 -0.947236 180.74 177.56)" fill="#F4C33D"/>
<ellipse cx="6.26101" cy="5.90389" rx="6.26101" ry="5.90389" transform="matrix(0.959608 -0.28134 -0.320537 -0.947236 181.486 176.162)" fill="#EB8D10"/>
<ellipse cx="5.72092" cy="5.39461" rx="5.72092" ry="5.39461" transform="matrix(0.959608 -0.28134 -0.320537 -0.947236 181.846 175.468)" fill="#F4C33D"/>
<ellipse cx="7.4412" cy="7.01677" rx="7.4412" ry="7.01677" transform="matrix(0.959608 -0.28134 -0.320537 -0.947236 87.9727 158.752)" fill="#F4C33D"/>
<ellipse cx="6.26101" cy="5.90389" rx="6.26101" ry="5.90389" transform="matrix(0.959608 -0.28134 -0.320537 -0.947236 88.7207 157.354)" fill="#EB8D10"/>
<ellipse cx="5.72092" cy="5.39461" rx="5.72092" ry="5.39461" transform="matrix(0.959608 -0.28134 -0.320537 -0.947236 89.0781 156.66)" fill="#F4C33D"/>
<ellipse cx="7.4412" cy="7.01677" rx="7.4412" ry="7.01677" transform="matrix(0.959608 -0.28134 -0.320537 -0.947236 189.482 171.958)" fill="#F4C33D"/>
<ellipse cx="6.26101" cy="5.90389" rx="6.26101" ry="5.90389" transform="matrix(0.959608 -0.28134 -0.320537 -0.947236 190.229 170.56)" fill="#EB8D10"/>
<ellipse cx="5.72092" cy="5.39461" rx="5.72092" ry="5.39461" transform="matrix(0.959608 -0.28134 -0.320537 -0.947236 190.588 169.867)" fill="#F4C33D"/>
<ellipse cx="7.4412" cy="7.01677" rx="7.4412" ry="7.01677" transform="matrix(0.959608 -0.28134 -0.320537 -0.947236 96.8594 152.132)" fill="#F4C33D"/>
<ellipse cx="6.26101" cy="5.90389" rx="6.26101" ry="5.90389" transform="matrix(0.959608 -0.28134 -0.320537 -0.947236 97.6055 150.733)" fill="#EB8D10"/>
<ellipse cx="5.72092" cy="5.39461" rx="5.72092" ry="5.39461" transform="matrix(0.959608 -0.28134 -0.320537 -0.947236 97.9648 150.04)" fill="#F4C33D"/>
<ellipse cx="7.4412" cy="4.93832" rx="7.4412" ry="4.93832" transform="matrix(0.959608 -0.28134 -0.320537 -0.947236 169.621 170.31)" fill="#F4C33D"/>
<ellipse cx="6.26101" cy="4.15509" rx="6.26101" ry="4.15509" transform="matrix(0.959608 -0.28134 -0.320537 -0.947236 170.479 169.229)" fill="#EB8D10"/>
<ellipse cx="5.72092" cy="3.79667" rx="5.72092" ry="3.79667" transform="matrix(0.959608 -0.28134 -0.320537 -0.947236 170.891 168.694)" fill="#F4C33D"/>
<ellipse cx="7.4412" cy="4.93832" rx="7.4412" ry="4.93832" transform="matrix(0.959608 -0.28134 -0.320537 -0.947236 76.8613 151.504)" fill="#F4C33D"/>
<ellipse cx="6.26101" cy="4.15509" rx="6.26101" ry="4.15509" transform="matrix(0.959608 -0.28134 -0.320537 -0.947236 77.7188 150.422)" fill="#EB8D10"/>
<ellipse cx="5.72092" cy="3.79667" rx="5.72092" ry="3.79667" transform="matrix(0.959608 -0.28134 -0.320537 -0.947236 78.1309 149.888)" fill="#F4C33D"/>
<ellipse cx="7.4412" cy="7.06938" rx="7.4412" ry="7.06938" transform="matrix(0.959608 -0.28134 -0.320537 -0.947236 141.619 159.039)" fill="#F4C33D"/>
<ellipse cx="6.26101" cy="5.94816" rx="6.26101" ry="5.94816" transform="matrix(0.959608 -0.28134 -0.320537 -0.947236 142.365 157.632)" fill="#EB8D10"/>
<ellipse cx="5.72092" cy="5.43506" rx="5.72092" ry="5.43506" transform="matrix(0.959608 -0.28134 -0.320537 -0.947236 142.721 156.934)" fill="#F4C33D"/>
<ellipse cx="7.4412" cy="7.06938" rx="7.4412" ry="7.06938" transform="matrix(0.959608 -0.28134 -0.320537 -0.947236 145.621 166.486)" fill="#F4C33D"/>
<ellipse cx="6.26101" cy="5.94816" rx="6.26101" ry="5.94816" transform="matrix(0.959608 -0.28134 -0.320537 -0.947236 146.367 165.079)" fill="#EB8D10"/>
<ellipse cx="5.72092" cy="5.43506" rx="5.72092" ry="5.43506" transform="matrix(0.959608 -0.28134 -0.320537 -0.947236 146.723 164.381)" fill="#F4C33D"/>
<ellipse cx="7.4412" cy="7.06938" rx="7.4412" ry="7.06938" transform="matrix(0.959608 -0.28134 -0.320537 -0.947236 172.291 163.588)" fill="#F4C33D"/>
<ellipse cx="6.26101" cy="5.94816" rx="6.26101" ry="5.94816" transform="matrix(0.959608 -0.28134 -0.320537 -0.947236 173.037 162.182)" fill="#EB8D10"/>
<ellipse cx="5.72092" cy="5.43506" rx="5.72092" ry="5.43506" transform="matrix(0.959608 -0.28134 -0.320537 -0.947236 173.393 161.484)" fill="#F4C33D"/>
<ellipse cx="7.4412" cy="7.06938" rx="7.4412" ry="7.06938" transform="matrix(0.999727 -0.0233885 -0.0644524 -0.997921 178.408 167.384)" fill="#F4C33D"/>
<ellipse cx="6.26101" cy="5.94816" rx="6.26101" ry="5.94816" transform="matrix(0.999727 -0.0233885 -0.0644524 -0.997921 179.496 166.218)" fill="#EB8D10"/>
<ellipse cx="5.72092" cy="5.43506" rx="5.72092" ry="5.43506" transform="matrix(0.999727 -0.0233885 -0.0644524 -0.997921 180.02 165.637)" fill="#F4C33D"/>
<ellipse cx="7.4412" cy="7.06938" rx="7.4412" ry="7.06938" transform="matrix(0.959608 -0.28134 -0.320537 -0.947236 199.578 172.059)" fill="#F4C33D"/>
<ellipse cx="6.26101" cy="5.94816" rx="6.26101" ry="5.94816" transform="matrix(0.959608 -0.28134 -0.320537 -0.947236 200.324 170.652)" fill="#EB8D10"/>
<ellipse cx="5.72092" cy="5.43506" rx="5.72092" ry="5.43506" transform="matrix(0.959608 -0.28134 -0.320537 -0.947236 200.68 169.954)" fill="#F4C33D"/>
<ellipse cx="7.4412" cy="7.06938" rx="7.4412" ry="7.06938" transform="matrix(0.959608 -0.28134 -0.320537 -0.947236 139.023 173.612)" fill="#F4C33D"/>
<ellipse cx="6.26101" cy="5.94816" rx="6.26101" ry="5.94816" transform="matrix(0.959608 -0.28134 -0.320537 -0.947236 139.77 172.205)" fill="#EB8D10"/>
<ellipse cx="5.72092" cy="5.43506" rx="5.72092" ry="5.43506" transform="matrix(0.959608 -0.28134 -0.320537 -0.947236 140.125 171.508)" fill="#F4C33D"/>
<ellipse cx="7.4412" cy="7.06938" rx="7.4412" ry="7.06938" transform="matrix(0.959608 -0.28134 -0.320537 -0.947236 128.549 175.552)" fill="#F4C33D"/>
<ellipse cx="6.26101" cy="5.94816" rx="6.26101" ry="5.94816" transform="matrix(0.959608 -0.28134 -0.320537 -0.947236 129.297 174.145)" fill="#EB8D10"/>
<ellipse cx="5.72092" cy="5.43506" rx="5.72092" ry="5.43506" transform="matrix(0.959608 -0.28134 -0.320537 -0.947236 129.65 173.448)" fill="#F4C33D"/>
<ellipse cx="7.4412" cy="7.06938" rx="7.4412" ry="7.06938" transform="matrix(0.959608 -0.28134 -0.320537 -0.947236 131.836 157.796)" fill="#F4C33D"/>
<ellipse cx="6.26101" cy="5.94816" rx="6.26101" ry="5.94816" transform="matrix(0.959608 -0.28134 -0.320537 -0.947236 132.582 156.389)" fill="#EB8D10"/>
<ellipse cx="5.72092" cy="5.43506" rx="5.72092" ry="5.43506" transform="matrix(0.959608 -0.28134 -0.320537 -0.947236 132.938 155.692)" fill="#F4C33D"/>
<path d="M161.265 147.411L162.685 151.249L162.702 151.295L162.748 151.312L166.586 152.732L162.748 154.152L162.702 154.169L162.685 154.215L161.265 158.053L159.845 154.215L159.828 154.169L159.782 154.152L155.944 152.732L159.782 151.312L159.828 151.295L159.845 151.249L161.265 147.411Z" fill="white" stroke="white" stroke-width="0.213134"/>
<path d="M126.335 159.832L127.755 163.67L127.772 163.716L127.818 163.733L131.656 165.153L127.818 166.573L127.772 166.59L127.755 166.636L126.335 170.474L124.915 166.636L124.898 166.59L124.852 166.573L121.014 165.153L124.852 163.733L124.898 163.716L124.915 163.67L126.335 159.832Z" fill="white" stroke="white" stroke-width="0.213134"/>
<path d="M163.983 172.252L165.404 176.09L165.421 176.136L165.467 176.153L169.304 177.573L165.467 178.993L165.421 179.01L165.404 179.056L163.983 182.894L162.563 179.056L162.546 179.01L162.5 178.993L158.663 177.573L162.5 176.153L162.546 176.136L162.563 176.09L163.983 172.252Z" fill="white" stroke="white" stroke-width="0.213134"/>
<path d="M92.5616 157.115L93.9817 160.953L93.9987 160.999L94.0447 161.016L97.8825 162.436L94.0447 163.856L93.9987 163.873L93.9817 163.919L92.5616 167.757L91.1415 163.919L91.1245 163.873L91.0785 163.856L87.2407 162.436L91.0785 161.016L91.1245 160.999L91.1415 160.953L92.5616 157.115Z" fill="white" stroke="white" stroke-width="0.213134"/>
<path d="M115.851 136.932L117.271 140.77L117.288 140.816L117.334 140.833L121.172 142.253L117.334 143.673L117.288 143.69L117.271 143.736L115.851 147.574L114.431 143.736L114.414 143.69L114.368 143.673L110.53 142.253L114.368 140.833L114.414 140.816L114.431 140.77L115.851 136.932Z" fill="white" stroke="white" stroke-width="0.213134"/>
<path d="M84.4132 134.603L85.8333 138.441L85.8503 138.487L85.8963 138.504L89.7341 139.924L85.8963 141.344L85.8503 141.361L85.8333 141.407L84.4132 145.245L82.993 141.407L82.976 141.361L82.9301 141.344L79.0922 139.924L82.9301 138.504L82.976 138.487L82.993 138.441L84.4132 134.603Z" fill="white" stroke="white" stroke-width="0.213134"/>
<path fill-rule="evenodd" clip-rule="evenodd" d="M49.7052 132.765C64.1413 127.909 78.9214 122.937 89.4959 118.853L259.754 157.481L257.377 175.903L168.831 214.531C116.634 201.952 9.62622 174.774 0.355621 167.88C-0.535767 167.218 0.355621 154.509 1.84131 152.132C-2.19986 150.227 23.1715 141.692 49.7052 132.765ZM224.097 154.806L165.859 182.44C121.388 171.743 32.1486 149.755 30.9601 147.378C29.7715 145.001 68.8942 131.927 88.6041 125.687L224.097 154.806Z" fill="#FFDB70"/>
<path d="M95.1365 0L276.686 22.5822C276.686 22.5822 275.494 63.4754 272.229 89.4374C268.914 115.789 259.749 157.481 259.749 157.481C204.185 145.893 89.1938 123.311 89.4909 118.854C89.876 113.078 95.5326 38.3303 95.1365 0Z" fill="#FFDB70"/>
<path d="M259.748 157.481C324.521 143.813 326.006 55.5638 276.684 22.5819C276.684 22.5819 275.213 63.8155 270.574 89.7343C265.947 115.585 259.748 157.481 259.748 157.481Z" fill="#FFDB70"/>
<g filter="url(#filter1_i_63_189)">
<path d="M272.411 133.704C309.379 126.011 310.522 74.8065 282.694 54.7884C282.694 54.7884 282.167 79.0709 280.17 94.4562C278.157 109.965 272.411 133.704 272.411 133.704Z" fill="#462E0E"/>
</g>
<g filter="url(#filter2_i_63_189)">
<path d="M246.973 133.71C250.832 129.253 263.311 64.478 261.236 35.656L113.474 16.447L112.668 16.3423L108.504 106.671C150.697 116.774 238.653 132.522 246.973 133.71Z" fill="#291B08"/>
</g>
<g style="mix-blend-mode:lighten">
<path d="M113.534 16.6396C142.224 33.3805 136.901 103.832 108.209 123.014L113.534 16.6396Z" fill="url(#paint1_linear_63_189)"/>
</g>
<defs>
<filter id="filter0_d_63_189" x="178.812" y="186.006" width="54.3118" height="79.2712" filterUnits="userSpaceOnUse" color-interpolation-filters="sRGB">
<feFlood flood-opacity="0" result="BackgroundImageFix"/>
<feColorMatrix in="SourceAlpha" type="matrix" values="0 0 0 0 0 0 0 0 0 0 0 0 0 0 0 0 0 0 127 0" result="hardAlpha"/>
<feOffset dy="1.3053"/>
<feGaussianBlur stdDeviation="0.652649"/>
<feComposite in2="hardAlpha" operator="out"/>
<feColorMatrix type="matrix" values="0 0 0 0 0 0 0 0 0 0 0 0 0 0 0 0 0 0 0.25 0"/>
<feBlend mode="normal" in2="BackgroundImageFix" result="effect1_dropShadow_63_189"/>
<feBlend mode="normal" in="SourceGraphic" in2="effect1_dropShadow_63_189" result="shape"/>
</filter>
<filter id="filter1_i_63_189" x="272.41" y="54.7885" width="29.6309" height="78.9161" filterUnits="userSpaceOnUse" color-interpolation-filters="sRGB">
<feFlood flood-opacity="0" result="BackgroundImageFix"/>
<feBlend mode="normal" in="SourceGraphic" in2="BackgroundImageFix" result="shape"/>
<feColorMatrix in="SourceAlpha" type="matrix" values="0 0 0 0 0 0 0 0 0 0 0 0 0 0 0 0 0 0 127 0" result="hardAlpha"/>
<feOffset/>
<feGaussianBlur stdDeviation="3.4264"/>
<feComposite in2="hardAlpha" operator="arithmetic" k2="-1" k3="1"/>
<feColorMatrix type="matrix" values="0 0 0 0 0 0 0 0 0 0 0 0 0 0 0 0 0 0 0.5 0"/>
<feBlend mode="normal" in2="shape" result="effect1_innerShadow_63_189"/>
</filter>
<filter id="filter2_i_63_189" x="108.504" y="16.3423" width="152.963" height="117.368" filterUnits="userSpaceOnUse" color-interpolation-filters="sRGB">
<feFlood flood-opacity="0" result="BackgroundImageFix"/>
<feBlend mode="normal" in="SourceGraphic" in2="BackgroundImageFix" result="shape"/>
<feColorMatrix in="SourceAlpha" type="matrix" values="0 0 0 0 0 0 0 0 0 0 0 0 0 0 0 0 0 0 127 0" result="hardAlpha"/>
<feOffset/>
<feGaussianBlur stdDeviation="4.89486"/>
<feComposite in2="hardAlpha" operator="arithmetic" k2="-1" k3="1"/>
<feColorMatrix type="matrix" values="0 0 0 0 0 0 0 0 0 0 0 0 0 0 0 0 0 0 1 0"/>
<feBlend mode="normal" in2="shape" result="effect1_innerShadow_63_189"/>
</filter>
<linearGradient id="paint0_linear_63_189" x1="127.512" y1="125.688" x2="127.512" y2="182.44" gradientUnits="userSpaceOnUse">
<stop stop-color="#462E0E"/>
<stop offset="0.357292" stop-color="#38250C"/>
<stop offset="1" stop-color="#1E1305"/>
</linearGradient>
<linearGradient id="paint1_linear_63_189" x1="144.591" y1="69.6523" x2="104.341" y2="68.1463" gradientUnits="userSpaceOnUse">
<stop/>
<stop offset="1" stop-color="#462E0E"/>
</linearGradient>
</defs>
</svg>
